{"glyphs":{"0":{"ha":861,"x_min":69,"x_max":792,"o":"m 418 -17 q 615 41 531 -17 q 746 214 699 98 q 792 501 792 331 q 716 880 792 728 q 447 1031 640 1031 q 249 973 333 1031 q 117 800 164 916 q 69 513 69 684 q 147 135 69 287 q 418 -17 224 -17 m 443 105 q 309 155 357 105 q 243 305 262 206 q 224 567 224 404 q 292 860 224 792 q 419 904 338 904 q 553 856 506 904 q 618 710 600 808 q 637 448 637 613 q 569 149 637 215 q 443 105 525 105 m 428 395 q 363 431 381 395 q 345 520 345 467 q 369 611 345 580 q 435 642 394 642 q 516 517 516 642 q 492 426 516 457 q 428 395 469 395 "},"1":{"ha":861,"x_min":95,"x_max":783,"o":"m 95 132 l 116 0 l 763 0 l 783 132 l 516 132 l 516 1021 l 457 1021 l 110 940 l 97 808 l 358 863 l 358 132 l 95 132 "},"2":{"ha":861,"x_min":88,"x_max":799,"o":"m 390 1031 q 565 1000 489 1031 q 683 906 640 969 q 726 748 726 842 q 681 558 726 650 q 561 384 635 467 q 381 208 487 301 l 292 131 l 799 131 l 760 0 l 126 0 l 88 117 l 269 281 q 489 522 408 406 q 569 737 569 639 q 519 853 569 813 q 377 894 469 894 q 238 874 311 894 q 93 817 165 853 l 102 967 q 242 1014 169 998 q 390 1031 315 1031 "},"3":{"ha":861,"x_min":74,"x_max":756,"o":"m 254 532 l 536 883 l 74 883 l 115 1014 l 673 1014 l 699 887 l 456 594 q 677 482 599 549 q 756 313 756 414 q 697 150 756 226 q 524 29 639 75 q 249 -17 410 -17 q 141 -10 192 -17 l 106 139 q 256 126 181 126 q 439 146 357 126 q 567 205 520 166 q 615 297 615 243 q 526 421 615 371 q 260 514 438 472 l 254 532 "},"4":{"ha":861,"x_min":45,"x_max":815,"o":"m 519 1021 l 45 436 l 60 334 l 518 334 l 518 0 l 676 0 l 676 334 l 815 334 l 815 449 l 676 449 l 676 1021 l 519 1021 m 518 437 l 185 437 l 518 840 l 518 437 "},"5":{"ha":861,"x_min":115,"x_max":744,"o":"m 209 1014 l 694 1014 l 722 883 l 315 883 l 284 645 q 546 569 446 611 q 695 469 647 528 q 744 328 744 411 q 675 141 744 219 q 492 23 606 63 q 248 -17 378 -17 q 150 -9 196 -17 l 115 147 q 251 134 184 134 q 425 155 342 134 q 559 215 508 176 q 611 307 611 254 q 494 437 611 385 q 153 527 377 489 l 209 1014 "},"6":{"ha":861,"x_min":85,"x_max":785,"o":"m 85 463 q 128 198 85 306 q 250 37 170 91 q 444 -17 331 -17 q 624 30 547 -17 q 743 155 701 76 q 785 333 785 235 q 750 483 785 423 q 658 571 716 542 q 528 599 600 599 q 258 492 390 599 l 241 492 q 257 672 243 595 q 294 777 271 749 q 364 826 315 801 q 499 869 413 851 q 706 890 585 888 l 673 1031 q 230 884 375 1025 q 85 463 85 744 m 246 398 q 352 458 294 433 q 474 482 410 482 q 635 298 635 482 q 593 147 635 203 q 470 91 551 91 q 355 127 406 91 q 275 233 304 164 q 246 398 246 303 "},"7":{"ha":861,"x_min":81,"x_max":758,"o":"m 758 891 l 728 1014 l 122 1014 l 81 878 l 607 878 q 382 467 492 701 q 213 0 272 233 l 397 0 q 505 362 441 193 q 629 650 569 531 q 758 891 689 769 "},"8":{"ha":861,"x_min":73,"x_max":805,"o":"m 455 1031 q 283 998 358 1031 q 167 905 208 965 q 126 764 126 844 q 299 501 126 607 q 73 244 73 408 q 115 112 73 172 q 235 18 157 53 q 416 -17 313 -17 q 609 18 520 -17 q 752 116 699 53 q 805 261 805 180 q 782 366 805 323 q 708 448 760 410 q 561 531 656 486 q 698 647 649 582 q 746 791 746 712 q 714 912 746 858 q 616 999 681 967 q 455 1031 550 1031 m 231 281 q 265 381 231 336 q 365 465 299 426 l 407 447 q 555 375 502 407 q 631 310 608 342 q 653 236 653 278 q 604 142 653 181 q 547 113 583 125 q 455 101 511 101 q 336 122 387 101 q 259 184 286 144 q 231 281 231 225 m 258 793 q 294 881 258 850 q 342 907 312 897 q 415 917 373 917 q 516 898 471 917 q 586 841 560 879 q 613 749 613 803 q 582 642 613 691 q 501 558 551 594 l 461 576 q 306 674 354 621 q 258 793 258 727 "},"9":{"ha":861,"x_min":76,"x_max":776,"o":"m 776 551 q 733 816 776 709 q 611 977 691 924 q 417 1031 531 1031 q 238 985 315 1031 q 118 859 160 939 q 76 681 76 779 q 111 531 76 591 q 203 443 145 472 q 333 415 261 415 q 603 522 472 415 l 621 522 q 605 342 619 419 q 567 238 591 265 q 497 189 547 213 q 362 145 448 164 q 156 124 276 127 l 188 -17 q 631 130 487 -11 q 776 551 776 270 m 616 616 q 387 532 499 532 q 226 717 226 532 q 269 867 226 811 q 391 924 311 924 q 507 887 456 924 q 587 781 558 851 q 616 616 616 711 "}," ":{"ha":861,"x_min":0,"x_max":0,"o":""},"A":{"ha":861,"x_min":32,"x_max":830,"o":"m 664 0 l 830 0 l 515 1014 l 345 1014 l 32 0 l 191 0 l 267 264 l 587 264 l 664 0 m 553 378 l 301 378 l 422 797 l 431 797 l 553 378 "},"Á":{"ha":861,"x_min":32,"x_max":830,"o":"m 664 0 l 830 0 l 515 1014 l 345 1014 l 32 0 l 191 0 l 267 264 l 587 264 l 664 0 m 497 1135 l 362 1135 l 502 1306 l 671 1306 l 497 1135 m 553 378 l 301 378 l 422 797 l 431 797 l 553 378 "},"Ă":{"ha":861,"x_min":32,"x_max":830,"o":"m 664 0 l 830 0 l 515 1014 l 345 1014 l 32 0 l 191 0 l 267 264 l 587 264 l 664 0 m 313 1306 l 213 1306 q 264 1174 208 1222 q 431 1126 320 1126 q 597 1174 542 1126 q 649 1306 653 1221 l 549 1306 q 520 1234 549 1261 q 431 1208 491 1208 q 342 1234 370 1208 q 313 1306 313 1261 m 553 378 l 301 378 l 422 797 l 431 797 l 553 378 "},"Â":{"ha":861,"x_min":32,"x_max":830,"o":"m 664 0 l 830 0 l 515 1014 l 345 1014 l 32 0 l 191 0 l 267 264 l 587 264 l 664 0 m 344 1306 l 173 1135 l 317 1135 l 431 1258 l 544 1135 l 689 1135 l 518 1306 l 344 1306 m 553 378 l 301 378 l 422 797 l 431 797 l 553 378 "},"Ä":{"ha":861,"x_min":32,"x_max":830,"o":"m 664 0 l 830 0 l 515 1014 l 345 1014 l 32 0 l 191 0 l 267 264 l 587 264 l 664 0 m 248 1140 q 315 1163 290 1140 q 340 1227 340 1187 q 315 1290 340 1267 q 248 1313 290 1313 q 182 1290 207 1313 q 156 1227 156 1267 q 182 1163 156 1187 q 248 1140 207 1140 m 614 1140 q 681 1163 656 1140 q 706 1227 706 1187 q 681 1290 706 1267 q 614 1313 656 1313 q 548 1290 573 1313 q 522 1227 522 1267 q 548 1163 522 1187 q 614 1140 573 1140 m 553 378 l 301 378 l 422 797 l 431 797 l 553 378 "},"Ạ":{"ha":861,"x_min":32,"x_max":830,"o":"m 664 0 l 830 0 l 515 1014 l 345 1014 l 32 0 l 191 0 l 267 264 l 587 264 l 664 0 m 431 -360 q 509 -333 479 -360 q 539 -260 539 -306 q 509 -187 539 -214 q 431 -160 479 -160 q 352 -187 382 -160 q 322 -260 322 -214 q 352 -333 322 -306 q 431 -360 382 -360 m 553 378 l 301 378 l 422 797 l 431 797 l 553 378 "},"À":{"ha":861,"x_min":32,"x_max":830,"o":"m 664 0 l 830 0 l 515 1014 l 345 1014 l 32 0 l 191 0 l 267 264 l 587 264 l 664 0 m 365 1135 l 500 1135 l 359 1306 l 191 1306 l 365 1135 m 553 378 l 301 378 l 422 797 l 431 797 l 553 378 "},"Ā":{"ha":861,"x_min":32,"x_max":830,"o":"m 664 0 l 830 0 l 515 1014 l 345 1014 l 32 0 l 191 0 l 267 264 l 587 264 l 664 0 m 658 1188 l 658 1290 l 203 1290 l 203 1188 l 658 1188 m 553 378 l 301 378 l 422 797 l 431 797 l 553 378 "},"Ą":{"ha":861,"x_min":32,"x_max":830,"o":"m 830 0 l 515 1014 l 345 1014 l 32 0 l 191 0 l 267 264 l 587 264 l 664 0 l 697 0 q 620 -86 645 -46 q 596 -171 596 -126 q 635 -258 596 -224 q 773 -292 675 -292 l 830 -292 l 830 -192 l 810 -192 q 750 -178 768 -192 q 732 -138 732 -164 q 755 -76 732 -110 q 830 0 778 -42 m 553 378 l 301 378 l 422 797 l 431 797 l 553 378 "},"Å":{"ha":861,"x_min":32,"x_max":830,"o":"m 664 0 l 830 0 l 518 1006 q 572 1064 552 1027 q 592 1147 592 1101 q 571 1232 592 1194 q 514 1291 551 1269 q 431 1312 477 1312 q 348 1291 384 1312 q 291 1232 311 1269 q 270 1147 270 1194 q 290 1065 270 1101 q 343 1006 309 1028 l 32 0 l 191 0 l 267 264 l 587 264 l 664 0 m 431 1054 q 365 1080 390 1054 q 340 1147 340 1106 q 365 1214 340 1188 q 431 1240 390 1240 q 496 1214 472 1240 q 521 1147 521 1188 q 496 1080 521 1106 q 431 1054 472 1054 m 553 378 l 301 378 l 422 797 l 431 797 l 553 378 "},"Ã":{"ha":861,"x_min":32,"x_max":830,"o":"m 664 0 l 830 0 l 515 1014 l 345 1014 l 32 0 l 191 0 l 267 264 l 587 264 l 664 0 m 311 1319 q 206 1276 247 1319 q 155 1156 165 1234 l 259 1134 q 287 1199 267 1177 q 338 1222 308 1222 q 376 1212 359 1222 q 420 1181 392 1203 q 482 1140 454 1154 q 550 1126 510 1126 q 655 1168 614 1126 q 706 1288 697 1211 l 602 1310 q 574 1245 594 1267 q 524 1223 554 1223 q 485 1233 503 1223 q 441 1263 468 1242 q 379 1305 407 1290 q 311 1319 351 1319 m 553 378 l 301 378 l 422 797 l 431 797 l 553 378 "},"Æ":{"ha":861,"x_min":31,"x_max":844,"o":"m 436 260 l 436 0 l 826 0 l 844 132 l 584 132 l 584 449 l 747 449 l 747 575 l 584 575 l 584 882 l 844 882 l 826 1014 l 265 1014 l 31 0 l 189 0 l 244 260 l 436 260 m 436 378 l 269 378 l 376 882 l 436 882 l 436 378 "},"Ǽ":{"ha":861,"x_min":31,"x_max":844,"o":"m 436 260 l 436 0 l 826 0 l 844 132 l 584 132 l 584 449 l 747 449 l 747 575 l 584 575 l 584 882 l 844 882 l 826 1014 l 265 1014 l 31 0 l 189 0 l 244 260 l 436 260 m 592 1135 l 458 1135 l 598 1306 l 767 1306 l 592 1135 m 436 378 l 269 378 l 376 882 l 436 882 l 436 378 "},"B":{"ha":861,"x_min":120,"x_max":800,"o":"m 120 1014 l 120 0 l 423 0 q 623 34 538 0 q 754 134 708 69 q 800 291 800 199 q 720 473 800 414 q 503 552 641 531 l 503 558 q 676 645 607 585 q 745 809 745 705 q 666 966 745 917 q 451 1014 586 1015 l 120 1014 m 421 118 l 281 118 l 281 486 l 308 485 q 547 433 455 480 q 638 288 638 387 q 615 202 638 240 q 542 141 591 163 q 421 118 493 118 m 319 566 l 281 561 l 281 897 l 421 897 q 546 868 505 897 q 587 778 587 839 q 517 639 587 695 q 319 566 447 583 "},"C":{"ha":861,"x_min":92,"x_max":774,"o":"m 592 1030 q 210 894 329 1030 q 92 505 92 758 q 220 106 92 229 q 564 -17 349 -17 q 765 11 668 -17 l 773 148 q 683 126 732 134 q 586 118 635 118 q 346 214 440 118 q 251 556 251 310 q 349 842 251 764 q 423 877 378 866 q 544 888 467 888 q 660 881 608 888 q 774 862 713 874 l 769 1010 q 592 1030 677 1030 "},"Ć":{"ha":861,"x_min":92,"x_max":774,"o":"m 592 1030 q 210 894 329 1030 q 92 505 92 758 q 220 106 92 229 q 564 -17 349 -17 q 765 11 668 -17 l 773 148 q 683 126 732 134 q 586 118 635 118 q 346 214 440 118 q 251 556 251 310 q 349 842 251 764 q 423 877 378 866 q 544 888 467 888 q 660 881 608 888 q 774 862 713 874 l 769 1010 q 592 1030 677 1030 m 569 1135 l 435 1135 l 575 1306 l 744 1306 l 569 1135 "},"Č":{"ha":861,"x_min":92,"x_max":774,"o":"m 592 1030 q 210 894 329 1030 q 92 505 92 758 q 220 106 92 229 q 564 -17 349 -17 q 765 11 668 -17 l 773 148 q 683 126 732 134 q 586 118 635 118 q 346 214 440 118 q 251 556 251 310 q 349 842 251 764 q 423 877 378 866 q 544 888 467 888 q 660 881 608 888 q 774 862 713 874 l 769 1010 q 592 1030 677 1030 m 417 1135 l 246 1306 l 390 1306 l 503 1183 l 617 1306 l 762 1306 l 591 1135 l 417 1135 "},"Ç":{"ha":861,"x_min":92,"x_max":774,"o":"m 592 1030 q 210 894 329 1030 q 92 505 92 758 q 180 155 92 278 q 424 -3 269 32 l 424 -182 q 499 -205 473 -187 q 524 -260 524 -223 q 500 -311 524 -294 q 417 -328 475 -328 l 379 -328 l 379 -417 l 434 -417 q 559 -400 513 -417 q 623 -350 604 -383 q 642 -269 642 -318 q 611 -167 642 -203 q 520 -117 581 -131 l 519 -16 l 564 -17 q 765 11 668 -17 l 773 148 q 683 126 732 134 q 586 118 635 118 q 346 214 440 118 q 251 556 251 310 q 349 842 251 764 q 423 877 378 866 q 544 888 467 888 q 660 881 608 888 q 774 862 713 874 l 769 1010 q 592 1030 677 1030 "},"Ĉ":{"ha":861,"x_min":92,"x_max":774,"o":"m 592 1030 q 210 894 329 1030 q 92 505 92 758 q 220 106 92 229 q 564 -17 349 -17 q 765 11 668 -17 l 773 148 q 683 126 732 134 q 586 118 635 118 q 346 214 440 118 q 251 556 251 310 q 349 842 251 764 q 423 877 378 866 q 544 888 467 888 q 660 881 608 888 q 774 862 713 874 l 769 1010 q 592 1030 677 1030 m 417 1306 l 246 1135 l 390 1135 l 503 1258 l 617 1135 l 762 1135 l 591 1306 l 417 1306 "},"Ċ":{"ha":861,"x_min":92,"x_max":774,"o":"m 592 1030 q 210 894 329 1030 q 92 505 92 758 q 220 106 92 229 q 564 -17 349 -17 q 765 11 668 -17 l 773 148 q 683 126 732 134 q 586 118 635 118 q 346 214 440 118 q 251 556 251 310 q 349 842 251 764 q 423 877 378 866 q 544 888 467 888 q 660 881 608 888 q 774 862 713 874 l 769 1010 q 592 1030 677 1030 m 502 1140 q 570 1163 544 1140 q 596 1226 596 1187 q 570 1290 596 1267 q 502 1313 544 1313 q 434 1290 460 1313 q 408 1226 408 1267 q 434 1163 408 1187 q 502 1140 460 1140 "},"D":{"ha":861,"x_min":118,"x_max":778,"o":"m 118 1014 l 118 0 l 321 0 q 666 136 554 0 q 778 530 778 272 q 666 899 778 785 q 345 1014 554 1014 l 118 1014 m 336 135 l 276 135 l 276 890 l 340 890 q 498 856 440 890 q 583 738 556 822 q 610 505 610 655 q 589 280 610 351 q 533 181 567 208 q 336 135 474 135 "},"Ď":{"ha":861,"x_min":118,"x_max":778,"o":"m 118 1014 l 118 0 l 321 0 q 666 136 554 0 q 778 530 778 272 q 666 899 778 785 q 345 1014 554 1014 l 118 1014 m 344 1135 l 173 1306 l 317 1306 l 431 1183 l 544 1306 l 689 1306 l 518 1135 l 344 1135 m 336 135 l 276 135 l 276 890 l 340 890 q 498 856 440 890 q 583 738 556 822 q 610 505 610 655 q 589 280 610 351 q 533 181 567 208 q 336 135 474 135 "},"Đ":{"ha":861,"x_min":19,"x_max":778,"o":"m 456 451 l 456 584 l 276 584 l 276 890 l 340 890 q 498 856 440 890 q 583 738 556 822 q 610 505 610 655 q 589 280 610 351 q 533 181 567 208 q 336 135 474 135 l 276 135 l 276 451 l 456 451 m 118 451 l 118 0 l 321 0 q 666 136 554 0 q 778 530 778 272 q 666 899 778 785 q 345 1014 554 1014 l 118 1014 l 118 584 l 19 584 l 19 451 l 118 451 "},"Ð":{"ha":861,"x_min":19,"x_max":778,"o":"m 456 451 l 456 584 l 276 584 l 276 890 l 340 890 q 498 856 440 890 q 583 738 556 822 q 610 505 610 655 q 589 280 610 351 q 533 181 567 208 q 336 135 474 135 l 276 135 l 276 451 l 456 451 m 118 451 l 118 0 l 321 0 q 666 136 554 0 q 778 530 778 272 q 666 899 778 785 q 345 1014 554 1014 l 118 1014 l 118 584 l 19 584 l 19 451 l 118 451 "},"E":{"ha":861,"x_min":125,"x_max":764,"o":"m 125 1014 l 125 0 l 747 0 l 764 132 l 283 132 l 283 449 l 667 449 l 667 575 l 283 575 l 283 882 l 764 882 l 747 1014 l 125 1014 "},"É":{"ha":861,"x_min":125,"x_max":764,"o":"m 125 1014 l 125 0 l 747 0 l 764 132 l 283 132 l 283 449 l 667 449 l 667 575 l 283 575 l 283 882 l 764 882 l 747 1014 l 125 1014 m 497 1135 l 362 1135 l 502 1306 l 671 1306 l 497 1135 "},"Ĕ":{"ha":861,"x_min":125,"x_max":764,"o":"m 125 1014 l 125 0 l 747 0 l 764 132 l 283 132 l 283 449 l 667 449 l 667 575 l 283 575 l 283 882 l 764 882 l 747 1014 l 125 1014 m 313 1306 l 213 1306 q 264 1174 208 1222 q 431 1126 320 1126 q 597 1174 542 1126 q 649 1306 653 1221 l 549 1306 q 520 1234 549 1261 q 431 1208 491 1208 q 342 1234 370 1208 q 313 1306 313 1261 "},"Ě":{"ha":861,"x_min":125,"x_max":764,"o":"m 125 1014 l 125 0 l 747 0 l 764 132 l 283 132 l 283 449 l 667 449 l 667 575 l 283 575 l 283 882 l 764 882 l 747 1014 l 125 1014 m 344 1135 l 173 1306 l 317 1306 l 431 1183 l 544 1306 l 689 1306 l 518 1135 l 344 1135 "},"Ê":{"ha":861,"x_min":125,"x_max":764,"o":"m 125 1014 l 125 0 l 747 0 l 764 132 l 283 132 l 283 449 l 667 449 l 667 575 l 283 575 l 283 882 l 764 882 l 747 1014 l 125 1014 m 344 1306 l 173 1135 l 317 1135 l 431 1258 l 544 1135 l 689 1135 l 518 1306 l 344 1306 "},"Ë":{"ha":861,"x_min":125,"x_max":764,"o":"m 125 1014 l 125 0 l 747 0 l 764 132 l 283 132 l 283 449 l 667 449 l 667 575 l 283 575 l 283 882 l 764 882 l 747 1014 l 125 1014 m 248 1140 q 315 1163 290 1140 q 340 1227 340 1187 q 315 1290 340 1267 q 248 1313 290 1313 q 182 1290 207 1313 q 156 1227 156 1267 q 182 1163 156 1187 q 248 1140 207 1140 m 614 1140 q 681 1163 656 1140 q 706 1227 706 1187 q 681 1290 706 1267 q 614 1313 656 1313 q 548 1290 573 1313 q 522 1227 522 1267 q 548 1163 522 1187 q 614 1140 573 1140 "},"Ė":{"ha":861,"x_min":125,"x_max":764,"o":"m 125 1014 l 125 0 l 747 0 l 764 132 l 283 132 l 283 449 l 667 449 l 667 575 l 283 575 l 283 882 l 764 882 l 747 1014 l 125 1014 m 429 1140 q 497 1163 472 1140 q 523 1226 523 1187 q 497 1290 523 1267 q 429 1313 472 1313 q 361 1290 387 1313 q 335 1226 335 1267 q 361 1163 335 1187 q 429 1140 387 1140 "},"Ẹ":{"ha":861,"x_min":125,"x_max":764,"o":"m 125 1014 l 125 0 l 747 0 l 764 132 l 283 132 l 283 449 l 667 449 l 667 575 l 283 575 l 283 882 l 764 882 l 747 1014 l 125 1014 m 431 -360 q 509 -333 479 -360 q 539 -260 539 -306 q 509 -187 539 -214 q 431 -160 479 -160 q 352 -187 382 -160 q 322 -260 322 -214 q 352 -333 322 -306 q 431 -360 382 -360 "},"È":{"ha":861,"x_min":125,"x_max":764,"o":"m 125 1014 l 125 0 l 747 0 l 764 132 l 283 132 l 283 449 l 667 449 l 667 575 l 283 575 l 283 882 l 764 882 l 747 1014 l 125 1014 m 365 1135 l 500 1135 l 359 1306 l 191 1306 l 365 1135 "},"Ē":{"ha":861,"x_min":125,"x_max":764,"o":"m 125 1014 l 125 0 l 747 0 l 764 132 l 283 132 l 283 449 l 667 449 l 667 575 l 283 575 l 283 882 l 764 882 l 747 1014 l 125 1014 m 658 1188 l 658 1290 l 203 1290 l 203 1188 l 658 1188 "},"Ę":{"ha":861,"x_min":125,"x_max":764,"o":"m 125 1014 l 125 0 l 613 0 q 536 -86 561 -46 q 512 -171 512 -127 q 551 -258 512 -224 q 690 -292 591 -292 l 747 -292 l 747 -192 l 726 -192 q 666 -178 684 -192 q 648 -138 648 -164 q 671 -76 648 -110 q 747 0 694 -42 l 764 132 l 283 132 l 283 449 l 667 449 l 667 575 l 283 575 l 283 882 l 764 882 l 747 1014 l 125 1014 "},"Ẽ":{"ha":861,"x_min":125,"x_max":764,"o":"m 125 1014 l 125 0 l 747 0 l 764 132 l 283 132 l 283 449 l 667 449 l 667 575 l 283 575 l 283 882 l 764 882 l 747 1014 l 125 1014 m 311 1319 q 206 1276 247 1319 q 155 1156 165 1234 l 259 1134 q 287 1199 267 1177 q 338 1222 308 1222 q 376 1212 359 1222 q 420 1181 392 1203 q 482 1140 454 1154 q 550 1126 510 1126 q 655 1168 614 1126 q 706 1288 697 1211 l 602 1310 q 574 1245 594 1267 q 524 1223 554 1223 q 485 1233 503 1223 q 441 1263 468 1242 q 379 1305 407 1290 q 311 1319 351 1319 "},"Ə":{"ha":861,"x_min":77,"x_max":783,"o":"m 418 -13 q 610 46 528 -13 q 737 225 692 106 q 783 522 783 345 q 738 822 783 711 q 602 982 694 933 q 365 1031 511 1031 q 103 988 223 1031 l 98 869 q 321 904 202 904 q 511 866 446 904 q 600 757 577 828 q 623 571 623 687 l 623 542 l 77 542 q 418 -13 77 -13 m 243 417 l 619 417 q 597 227 613 283 q 561 150 581 170 q 435 107 518 107 q 325 145 366 107 q 266 250 284 183 q 243 417 247 318 "},"F":{"ha":861,"x_min":132,"x_max":780,"o":"m 132 0 l 290 0 l 290 419 l 680 419 l 687 543 l 290 543 l 290 884 l 780 884 l 763 1014 l 132 1014 l 132 0 "},"G":{"ha":861,"x_min":86,"x_max":773,"o":"m 768 866 l 761 1013 q 597 1030 685 1030 q 208 893 330 1030 q 86 495 86 756 q 203 106 86 229 q 534 -17 320 -17 q 773 18 644 -17 l 772 542 l 466 542 l 449 417 l 635 417 l 635 118 q 532 108 581 108 q 322 205 399 108 q 245 531 245 302 q 272 735 245 662 q 338 838 299 808 q 419 876 370 864 q 553 888 468 888 q 658 882 609 888 q 768 866 707 876 "},"Ğ":{"ha":861,"x_min":86,"x_max":773,"o":"m 768 866 l 761 1013 q 597 1030 685 1030 q 208 893 330 1030 q 86 495 86 756 q 203 106 86 229 q 534 -17 320 -17 q 773 18 644 -17 l 772 542 l 466 542 l 449 417 l 635 417 l 635 118 q 532 108 581 108 q 322 205 399 108 q 245 531 245 302 q 272 735 245 662 q 338 838 299 808 q 419 876 370 864 q 553 888 468 888 q 658 882 609 888 q 768 866 707 876 m 390 1306 l 290 1306 q 341 1174 285 1222 q 507 1126 397 1126 q 674 1174 618 1126 q 725 1306 729 1221 l 625 1306 q 596 1234 625 1261 q 507 1208 567 1208 q 418 1234 447 1208 q 390 1306 390 1261 "},"Ǧ":{"ha":861,"x_min":86,"x_max":773,"o":"m 768 866 l 761 1013 q 597 1030 685 1030 q 208 893 330 1030 q 86 495 86 756 q 203 106 86 229 q 534 -17 320 -17 q 773 18 644 -17 l 772 542 l 466 542 l 449 417 l 635 417 l 635 118 q 532 108 581 108 q 322 205 399 108 q 245 531 245 302 q 272 735 245 662 q 338 838 299 808 q 419 876 370 864 q 553 888 468 888 q 658 882 609 888 q 768 866 707 876 m 420 1135 l 249 1306 l 393 1306 l 507 1183 l 621 1306 l 765 1306 l 594 1135 l 420 1135 "},"Ĝ":{"ha":861,"x_min":86,"x_max":773,"o":"m 768 866 l 761 1013 q 597 1030 685 1030 q 208 893 330 1030 q 86 495 86 756 q 203 106 86 229 q 534 -17 320 -17 q 773 18 644 -17 l 772 542 l 466 542 l 449 417 l 635 417 l 635 118 q 532 108 581 108 q 322 205 399 108 q 245 531 245 302 q 272 735 245 662 q 338 838 299 808 q 419 876 370 864 q 553 888 468 888 q 658 882 609 888 q 768 866 707 876 m 420 1306 l 249 1135 l 393 1135 l 507 1258 l 621 1135 l 765 1135 l 594 1306 l 420 1306 "},"Ģ":{"ha":861,"x_min":86,"x_max":773,"o":"m 768 866 l 761 1013 q 597 1030 685 1030 q 208 893 330 1030 q 86 495 86 756 q 203 106 86 229 q 534 -17 320 -17 q 773 18 644 -17 l 772 542 l 466 542 l 449 417 l 635 417 l 635 118 q 532 108 581 108 q 322 205 399 108 q 245 531 245 302 q 272 735 245 662 q 338 838 299 808 q 419 876 370 864 q 553 888 468 888 q 658 882 609 888 q 768 866 707 876 m 492 -356 q 510 -354 498 -356 q 462 -415 495 -389 q 376 -471 429 -441 l 426 -532 q 556 -434 504 -495 q 608 -292 608 -373 q 576 -194 608 -228 q 491 -160 543 -160 q 415 -186 444 -160 q 385 -258 385 -212 q 415 -329 385 -303 q 492 -356 444 -356 "},"Ġ":{"ha":861,"x_min":86,"x_max":773,"o":"m 768 866 l 761 1013 q 597 1030 685 1030 q 208 893 330 1030 q 86 495 86 756 q 203 106 86 229 q 534 -17 320 -17 q 773 18 644 -17 l 772 542 l 466 542 l 449 417 l 635 417 l 635 118 q 532 108 581 108 q 322 205 399 108 q 245 531 245 302 q 272 735 245 662 q 338 838 299 808 q 419 876 370 864 q 553 888 468 888 q 658 882 609 888 q 768 866 707 876 m 506 1140 q 574 1163 548 1140 q 599 1226 599 1187 q 574 1290 599 1267 q 506 1313 548 1313 q 438 1290 463 1313 q 412 1226 412 1267 q 438 1163 412 1187 q 506 1140 463 1140 "},"H":{"ha":861,"x_min":118,"x_max":744,"o":"m 118 0 l 278 0 l 278 452 l 583 452 l 583 0 l 744 0 l 744 1014 l 583 1014 l 583 581 l 278 581 l 278 1014 l 118 1014 l 118 0 "},"Ħ":{"ha":861,"x_min":28,"x_max":833,"o":"m 833 758 l 833 870 l 744 870 l 744 1014 l 583 1014 l 583 870 l 278 870 l 278 1014 l 118 1014 l 118 870 l 28 870 l 28 758 l 118 758 l 118 0 l 278 0 l 278 452 l 583 452 l 583 0 l 744 0 l 744 758 l 833 758 m 583 581 l 278 581 l 278 758 l 583 758 l 583 581 "},"Ĥ":{"ha":861,"x_min":118,"x_max":744,"o":"m 118 0 l 278 0 l 278 452 l 583 452 l 583 0 l 744 0 l 744 1014 l 583 1014 l 583 581 l 278 581 l 278 1014 l 118 1014 l 118 0 m 344 1306 l 173 1135 l 317 1135 l 431 1258 l 544 1135 l 689 1135 l 518 1306 l 344 1306 "},"I":{"ha":861,"x_min":99,"x_max":761,"o":"m 99 132 l 117 0 l 744 0 l 761 132 l 507 132 l 507 882 l 761 882 l 744 1014 l 117 1014 l 99 882 l 349 882 l 349 132 l 99 132 "},"Ĳ":{"ha":861,"x_min":114,"x_max":700,"o":"m 700 306 l 700 1014 l 422 1014 l 404 888 l 544 888 l 544 272 q 536 193 544 222 q 510 151 528 165 q 454 127 493 137 q 360 117 415 117 q 235 127 291 117 q 114 156 179 137 l 135 12 q 228 -9 180 -1 q 344 -16 276 -16 q 538 14 460 -16 q 658 114 615 43 q 700 306 700 185 m 128 378 l 278 378 l 278 1014 l 128 1014 l 128 378 "},"Í":{"ha":861,"x_min":99,"x_max":761,"o":"m 99 132 l 117 0 l 744 0 l 761 132 l 507 132 l 507 882 l 761 882 l 744 1014 l 117 1014 l 99 882 l 349 882 l 349 132 l 99 132 m 497 1135 l 362 1135 l 502 1306 l 671 1306 l 497 1135 "},"Ĭ":{"ha":861,"x_min":99,"x_max":761,"o":"m 99 132 l 117 0 l 744 0 l 761 132 l 507 132 l 507 882 l 761 882 l 744 1014 l 117 1014 l 99 882 l 349 882 l 349 132 l 99 132 m 313 1306 l 213 1306 q 264 1174 208 1222 q 431 1126 320 1126 q 597 1174 542 1126 q 649 1306 653 1221 l 549 1306 q 520 1234 549 1261 q 431 1208 491 1208 q 342 1234 370 1208 q 313 1306 313 1261 "},"Î":{"ha":861,"x_min":99,"x_max":761,"o":"m 99 132 l 117 0 l 744 0 l 761 132 l 507 132 l 507 882 l 761 882 l 744 1014 l 117 1014 l 99 882 l 349 882 l 349 132 l 99 132 m 344 1306 l 173 1135 l 317 1135 l 431 1258 l 544 1135 l 689 1135 l 518 1306 l 344 1306 "},"Ï":{"ha":861,"x_min":99,"x_max":761,"o":"m 99 132 l 117 0 l 744 0 l 761 132 l 507 132 l 507 882 l 761 882 l 744 1014 l 117 1014 l 99 882 l 349 882 l 349 132 l 99 132 m 248 1140 q 315 1163 290 1140 q 340 1227 340 1187 q 315 1290 340 1267 q 248 1313 290 1313 q 182 1290 207 1313 q 156 1227 156 1267 q 182 1163 156 1187 q 248 1140 207 1140 m 614 1140 q 681 1163 656 1140 q 706 1227 706 1187 q 681 1290 706 1267 q 614 1313 656 1313 q 548 1290 573 1313 q 522 1227 522 1267 q 548 1163 522 1187 q 614 1140 573 1140 "},"İ":{"ha":861,"x_min":99,"x_max":761,"o":"m 99 132 l 117 0 l 744 0 l 761 132 l 507 132 l 507 882 l 761 882 l 744 1014 l 117 1014 l 99 882 l 349 882 l 349 132 l 99 132 m 429 1140 q 497 1163 472 1140 q 523 1226 523 1187 q 497 1290 523 1267 q 429 1313 472 1313 q 361 1290 387 1313 q 335 1226 335 1267 q 361 1163 335 1187 q 429 1140 387 1140 "},"Ị":{"ha":861,"x_min":99,"x_max":761,"o":"m 99 132 l 117 0 l 744 0 l 761 132 l 507 132 l 507 882 l 761 882 l 744 1014 l 117 1014 l 99 882 l 349 882 l 349 132 l 99 132 m 431 -360 q 509 -333 479 -360 q 539 -260 539 -306 q 509 -187 539 -214 q 431 -160 479 -160 q 352 -187 382 -160 q 322 -260 322 -214 q 352 -333 322 -306 q 431 -360 382 -360 "},"Ì":{"ha":861,"x_min":99,"x_max":761,"o":"m 99 132 l 117 0 l 744 0 l 761 132 l 507 132 l 507 882 l 761 882 l 744 1014 l 117 1014 l 99 882 l 349 882 l 349 132 l 99 132 m 365 1135 l 500 1135 l 359 1306 l 191 1306 l 365 1135 "},"Ī":{"ha":861,"x_min":99,"x_max":761,"o":"m 99 132 l 117 0 l 744 0 l 761 132 l 507 132 l 507 882 l 761 882 l 744 1014 l 117 1014 l 99 882 l 349 882 l 349 132 l 99 132 m 658 1188 l 658 1290 l 203 1290 l 203 1188 l 658 1188 "},"Į":{"ha":861,"x_min":99,"x_max":761,"o":"m 744 1014 l 117 1014 l 99 882 l 349 882 l 349 132 l 99 132 l 117 0 l 377 0 q 300 -86 325 -46 q 276 -171 276 -126 q 315 -258 276 -224 q 453 -292 355 -292 l 510 -292 l 510 -192 l 490 -192 q 430 -178 448 -192 q 412 -138 412 -164 q 435 -76 412 -110 q 510 0 458 -42 l 744 0 l 761 132 l 507 132 l 507 882 l 761 882 l 744 1014 "},"Ĩ":{"ha":861,"x_min":99,"x_max":761,"o":"m 99 132 l 117 0 l 744 0 l 761 132 l 507 132 l 507 882 l 761 882 l 744 1014 l 117 1014 l 99 882 l 349 882 l 349 132 l 99 132 m 311 1319 q 206 1276 247 1319 q 155 1156 165 1234 l 259 1134 q 287 1199 267 1177 q 338 1222 308 1222 q 376 1212 359 1222 q 420 1181 392 1203 q 482 1140 454 1154 q 550 1126 510 1126 q 655 1168 614 1126 q 706 1288 697 1211 l 602 1310 q 574 1245 594 1267 q 524 1223 554 1223 q 485 1233 503 1223 q 441 1263 468 1242 q 379 1305 407 1290 q 311 1319 351 1319 "},"J":{"ha":861,"x_min":114,"x_max":700,"o":"m 700 306 l 700 1014 l 160 1014 l 142 888 l 538 888 l 538 272 q 529 193 538 222 q 503 151 521 165 q 448 127 486 137 q 360 117 410 117 q 235 127 291 117 q 114 156 179 137 l 135 12 q 228 -9 180 -1 q 344 -16 276 -16 q 538 14 460 -16 q 658 114 615 43 q 700 306 700 185 "},"Ĵ":{"ha":861,"x_min":114,"x_max":700,"o":"m 700 306 l 700 1014 l 160 1014 l 142 888 l 538 888 l 538 272 q 529 193 538 222 q 503 151 521 165 q 448 127 486 137 q 360 117 410 117 q 235 127 291 117 q 114 156 179 137 l 135 12 q 228 -9 180 -1 q 344 -16 276 -16 q 538 14 460 -16 q 658 114 615 43 q 700 306 700 185 m 353 1306 l 183 1135 l 327 1135 l 441 1258 l 555 1135 l 699 1135 l 528 1306 l 353 1306 "},"K":{"ha":861,"x_min":118,"x_max":844,"o":"m 118 0 l 278 0 l 278 448 l 383 448 q 525 232 460 339 q 651 0 590 126 l 844 0 q 686 281 769 154 q 513 521 603 408 l 513 532 q 670 768 602 651 q 796 1014 739 885 l 626 1014 q 515 794 572 897 q 383 578 458 691 l 278 578 l 278 1014 l 118 1014 l 118 0 "},"Ķ":{"ha":861,"x_min":118,"x_max":844,"o":"m 118 0 l 278 0 l 278 448 l 383 448 q 525 232 460 339 q 651 0 590 126 l 844 0 q 686 281 769 154 q 513 521 603 408 l 513 532 q 670 768 602 651 q 796 1014 739 885 l 626 1014 q 515 794 572 897 q 383 578 458 691 l 278 578 l 278 1014 l 118 1014 l 118 0 m 429 -356 q 448 -354 435 -356 q 400 -415 433 -389 q 313 -471 367 -441 l 363 -532 q 494 -434 442 -495 q 546 -292 546 -373 q 513 -194 546 -228 q 428 -160 481 -160 q 352 -186 382 -160 q 322 -258 322 -212 q 352 -329 322 -303 q 429 -356 382 -356 "},"L":{"ha":861,"x_min":135,"x_max":787,"o":"m 135 1014 l 135 0 l 766 0 l 787 133 l 293 132 l 293 1014 l 135 1014 "},"Ĺ":{"ha":861,"x_min":135,"x_max":787,"o":"m 135 1014 l 135 0 l 766 0 l 787 133 l 293 132 l 293 1014 l 135 1014 m 281 1135 l 146 1135 l 287 1306 l 455 1306 l 281 1135 "},"Ľ":{"ha":861,"x_min":135,"x_max":787,"o":"m 135 1014 l 135 0 l 766 0 l 787 133 l 293 132 l 293 1014 l 135 1014 m 433 1106 l 422 852 l 541 852 l 569 1106 l 433 1106 "},"Ļ":{"ha":861,"x_min":135,"x_max":787,"o":"m 135 1014 l 135 0 l 766 0 l 787 133 l 293 132 l 293 1014 l 135 1014 m 429 -356 q 448 -354 435 -356 q 400 -415 433 -389 q 313 -471 367 -441 l 363 -532 q 494 -434 442 -495 q 546 -292 546 -373 q 513 -194 546 -228 q 428 -160 481 -160 q 352 -186 382 -160 q 322 -258 322 -212 q 352 -329 322 -303 q 429 -356 382 -356 "},"Ŀ":{"ha":861,"x_min":135,"x_max":787,"o":"m 647 484 q 713 509 688 484 q 738 576 738 534 q 713 642 738 617 q 647 666 688 666 q 581 642 606 666 q 556 576 556 617 q 581 509 556 534 q 647 484 606 484 m 135 1014 l 135 0 l 766 0 l 787 133 l 293 132 l 293 1014 l 135 1014 "},"Ł":{"ha":861,"x_min":7,"x_max":787,"o":"m 550 650 l 550 787 l 293 662 l 293 1014 l 135 1014 l 135 585 l 7 522 l 7 385 l 135 448 l 135 0 l 766 0 l 787 133 l 293 132 l 293 525 l 550 650 "},"M":{"ha":861,"x_min":73,"x_max":788,"o":"m 261 1014 l 114 1014 l 73 0 l 206 0 l 226 767 l 235 767 l 403 272 l 456 272 l 617 767 l 628 767 l 653 0 l 788 0 l 748 1014 l 612 1014 l 437 533 l 428 533 l 261 1014 "},"N":{"ha":861,"x_min":118,"x_max":744,"o":"m 118 1014 l 118 0 l 251 0 l 251 756 l 259 756 l 578 0 l 744 0 l 744 1014 l 611 1014 l 611 265 l 603 265 l 284 1014 l 118 1014 "},"Ń":{"ha":861,"x_min":118,"x_max":744,"o":"m 118 1014 l 118 0 l 251 0 l 251 756 l 259 756 l 578 0 l 744 0 l 744 1014 l 611 1014 l 611 265 l 603 265 l 284 1014 l 118 1014 m 497 1135 l 362 1135 l 502 1306 l 671 1306 l 497 1135 "},"Ň":{"ha":861,"x_min":118,"x_max":744,"o":"m 118 1014 l 118 0 l 251 0 l 251 756 l 259 756 l 578 0 l 744 0 l 744 1014 l 611 1014 l 611 265 l 603 265 l 284 1014 l 118 1014 m 344 1135 l 173 1306 l 317 1306 l 431 1183 l 544 1306 l 689 1306 l 518 1135 l 344 1135 "},"Ņ":{"ha":861,"x_min":118,"x_max":744,"o":"m 118 1014 l 118 0 l 251 0 l 251 756 l 259 756 l 578 0 l 744 0 l 744 1014 l 611 1014 l 611 265 l 603 265 l 284 1014 l 118 1014 m 429 -356 q 448 -354 435 -356 q 400 -415 433 -389 q 313 -471 367 -441 l 363 -532 q 494 -434 442 -495 q 546 -292 546 -373 q 513 -194 546 -228 q 428 -160 481 -160 q 352 -186 382 -160 q 322 -258 322 -212 q 352 -329 322 -303 q 429 -356 382 -356 "},"Ɲ":{"ha":861,"x_min":-51,"x_max":744,"o":"m 61 -269 q 158 -240 115 -269 q 226 -155 201 -210 q 251 -25 251 -100 l 251 756 l 259 756 l 578 0 l 744 0 l 744 1014 l 611 1014 l 611 265 l 603 265 l 284 1014 l 118 1014 l 118 0 q 115 -87 118 -64 q 99 -124 113 -111 q 44 -141 81 -141 q -51 -117 2 -141 l -30 -248 q 61 -269 16 -269 "},"Ñ":{"ha":861,"x_min":118,"x_max":744,"o":"m 118 1014 l 118 0 l 251 0 l 251 756 l 259 756 l 578 0 l 744 0 l 744 1014 l 611 1014 l 611 265 l 603 265 l 284 1014 l 118 1014 m 311 1319 q 206 1276 247 1319 q 155 1156 165 1234 l 259 1134 q 287 1199 267 1177 q 338 1222 308 1222 q 376 1212 359 1222 q 420 1181 392 1203 q 482 1140 454 1154 q 550 1126 510 1126 q 655 1168 614 1126 q 706 1288 697 1211 l 602 1310 q 574 1245 594 1267 q 524 1223 554 1223 q 485 1233 503 1223 q 441 1263 468 1242 q 379 1305 407 1290 q 311 1319 351 1319 "},"Ŋ":{"ha":861,"x_min":118,"x_max":744,"o":"m 533 -269 q 640 -240 592 -269 q 716 -155 688 -210 q 744 -25 744 -100 l 744 1015 l 611 1015 l 611 265 l 603 265 l 284 1014 l 118 1014 l 118 0 l 251 0 l 251 756 l 259 756 l 588 -24 q 585 -92 588 -71 q 569 -124 581 -112 q 513 -141 551 -141 q 419 -117 469 -141 l 440 -248 q 533 -269 489 -269 "},"O":{"ha":861,"x_min":77,"x_max":784,"o":"m 418 -13 q 610 45 527 -13 q 738 219 692 103 q 784 501 784 334 q 710 876 784 726 q 447 1026 635 1026 q 253 968 337 1026 q 124 794 170 910 q 77 513 77 678 q 153 138 77 288 q 418 -13 228 -13 m 435 107 q 315 158 357 107 q 257 310 273 209 q 242 583 242 412 q 259 771 242 708 q 300 858 276 835 q 350 889 319 877 q 425 901 381 901 q 546 852 504 901 q 604 705 588 803 q 619 435 619 606 q 561 150 619 208 q 435 107 518 107 "},"Ó":{"ha":861,"x_min":77,"x_max":784,"o":"m 418 -13 q 610 45 527 -13 q 738 219 692 103 q 784 501 784 334 q 710 876 784 726 q 447 1026 635 1026 q 253 968 337 1026 q 124 794 170 910 q 77 513 77 678 q 153 138 77 288 q 418 -13 228 -13 m 435 107 q 315 158 357 107 q 257 310 273 209 q 242 583 242 412 q 259 771 242 708 q 300 858 276 835 q 350 889 319 877 q 425 901 381 901 q 546 852 504 901 q 604 705 588 803 q 619 435 619 606 q 561 150 619 208 q 435 107 518 107 m 497 1135 l 362 1135 l 502 1306 l 671 1306 l 497 1135 "},"Ŏ":{"ha":861,"x_min":77,"x_max":784,"o":"m 418 -13 q 610 45 527 -13 q 738 219 692 103 q 784 501 784 334 q 710 876 784 726 q 447 1026 635 1026 q 253 968 337 1026 q 124 794 170 910 q 77 513 77 678 q 153 138 77 288 q 418 -13 228 -13 m 435 107 q 315 158 357 107 q 257 310 273 209 q 242 583 242 412 q 259 771 242 708 q 300 858 276 835 q 350 889 319 877 q 425 901 381 901 q 546 852 504 901 q 604 705 588 803 q 619 435 619 606 q 561 150 619 208 q 435 107 518 107 m 313 1306 l 213 1306 q 264 1174 208 1222 q 431 1126 320 1126 q 597 1174 542 1126 q 649 1306 653 1221 l 549 1306 q 520 1234 549 1261 q 431 1208 491 1208 q 342 1234 370 1208 q 313 1306 313 1261 "},"Ô":{"ha":861,"x_min":77,"x_max":784,"o":"m 418 -13 q 610 45 527 -13 q 738 219 692 103 q 784 501 784 334 q 710 876 784 726 q 447 1026 635 1026 q 253 968 337 1026 q 124 794 170 910 q 77 513 77 678 q 153 138 77 288 q 418 -13 228 -13 m 435 107 q 315 158 357 107 q 257 310 273 209 q 242 583 242 412 q 259 771 242 708 q 300 858 276 835 q 350 889 319 877 q 425 901 381 901 q 546 852 504 901 q 604 705 588 803 q 619 435 619 606 q 561 150 619 208 q 435 107 518 107 m 344 1306 l 173 1135 l 317 1135 l 431 1258 l 544 1135 l 689 1135 l 518 1306 l 344 1306 "},"Ö":{"ha":861,"x_min":77,"x_max":784,"o":"m 418 -13 q 610 45 527 -13 q 738 219 692 103 q 784 501 784 334 q 710 876 784 726 q 447 1026 635 1026 q 253 968 337 1026 q 124 794 170 910 q 77 513 77 678 q 153 138 77 288 q 418 -13 228 -13 m 435 107 q 315 158 357 107 q 257 310 273 209 q 242 583 242 412 q 259 771 242 708 q 300 858 276 835 q 350 889 319 877 q 425 901 381 901 q 546 852 504 901 q 604 705 588 803 q 619 435 619 606 q 561 150 619 208 q 435 107 518 107 m 248 1140 q 315 1163 290 1140 q 340 1227 340 1187 q 315 1290 340 1267 q 248 1313 290 1313 q 182 1290 207 1313 q 156 1227 156 1267 q 182 1163 156 1187 q 248 1140 207 1140 m 614 1140 q 681 1163 656 1140 q 706 1227 706 1187 q 681 1290 706 1267 q 614 1313 656 1313 q 548 1290 573 1313 q 522 1227 522 1267 q 548 1163 522 1187 q 614 1140 573 1140 "},"Ọ":{"ha":861,"x_min":77,"x_max":784,"o":"m 418 -13 q 610 45 527 -13 q 738 219 692 103 q 784 501 784 334 q 710 876 784 726 q 447 1026 635 1026 q 253 968 337 1026 q 124 794 170 910 q 77 513 77 678 q 153 138 77 288 q 418 -13 228 -13 m 435 107 q 315 158 357 107 q 257 310 273 209 q 242 583 242 412 q 259 771 242 708 q 300 858 276 835 q 350 889 319 877 q 425 901 381 901 q 546 852 504 901 q 604 705 588 803 q 619 435 619 606 q 561 150 619 208 q 435 107 518 107 m 431 -360 q 509 -333 479 -360 q 539 -260 539 -306 q 509 -187 539 -214 q 431 -160 479 -160 q 352 -187 382 -160 q 322 -260 322 -214 q 352 -333 322 -306 q 431 -360 382 -360 "},"Ò":{"ha":861,"x_min":77,"x_max":784,"o":"m 418 -13 q 610 45 527 -13 q 738 219 692 103 q 784 501 784 334 q 710 876 784 726 q 447 1026 635 1026 q 253 968 337 1026 q 124 794 170 910 q 77 513 77 678 q 153 138 77 288 q 418 -13 228 -13 m 435 107 q 315 158 357 107 q 257 310 273 209 q 242 583 242 412 q 259 771 242 708 q 300 858 276 835 q 350 889 319 877 q 425 901 381 901 q 546 852 504 901 q 604 705 588 803 q 619 435 619 606 q 561 150 619 208 q 435 107 518 107 m 365 1135 l 500 1135 l 359 1306 l 191 1306 l 365 1135 "},"Ő":{"ha":861,"x_min":77,"x_max":784,"o":"m 418 -13 q 610 45 527 -13 q 738 219 692 103 q 784 501 784 334 q 710 876 784 726 q 447 1026 635 1026 q 253 968 337 1026 q 124 794 170 910 q 77 513 77 678 q 153 138 77 288 q 418 -13 228 -13 m 435 107 q 315 158 357 107 q 257 310 273 209 q 242 583 242 412 q 259 771 242 708 q 300 858 276 835 q 350 889 319 877 q 425 901 381 901 q 546 852 504 901 q 604 705 588 803 q 619 435 619 606 q 561 150 619 208 q 435 107 518 107 m 333 1306 l 238 1135 l 345 1135 l 463 1306 l 333 1306 m 605 1306 l 510 1135 l 617 1135 l 735 1306 l 605 1306 "},"Ō":{"ha":861,"x_min":77,"x_max":784,"o":"m 418 -13 q 610 45 527 -13 q 738 219 692 103 q 784 501 784 334 q 710 876 784 726 q 447 1026 635 1026 q 253 968 337 1026 q 124 794 170 910 q 77 513 77 678 q 153 138 77 288 q 418 -13 228 -13 m 435 107 q 315 158 357 107 q 257 310 273 209 q 242 583 242 412 q 259 771 242 708 q 300 858 276 835 q 350 889 319 877 q 425 901 381 901 q 546 852 504 901 q 604 705 588 803 q 619 435 619 606 q 561 150 619 208 q 435 107 518 107 m 658 1188 l 658 1290 l 203 1290 l 203 1188 l 658 1188 "},"Ǫ":{"ha":861,"x_min":77,"x_max":784,"o":"m 435 107 q 315 158 357 107 q 257 310 273 209 q 242 583 242 412 q 259 771 242 708 q 300 858 276 835 q 350 889 319 877 q 425 901 381 901 q 546 852 504 901 q 604 705 588 803 q 619 435 619 606 q 561 150 619 208 q 435 107 518 107 m 77 513 q 143 157 77 303 q 371 -10 208 10 q 302 -91 324 -52 q 281 -171 281 -129 q 320 -258 281 -224 q 458 -292 360 -292 l 515 -292 l 515 -192 l 495 -192 q 435 -178 453 -192 q 417 -138 417 -164 q 440 -76 417 -110 q 515 0 463 -42 q 658 87 597 23 q 751 256 718 151 q 784 501 784 360 q 710 876 784 726 q 447 1026 635 1026 q 253 968 337 1026 q 124 794 170 910 q 77 513 77 678 "},"Ø":{"ha":861,"x_min":76,"x_max":786,"o":"m 418 -13 q 610 45 527 -13 q 738 219 692 103 q 784 501 784 334 q 685 913 784 781 l 786 1140 l 655 1198 l 569 1005 q 447 1026 514 1026 q 253 968 337 1026 q 124 794 170 910 q 77 513 77 678 q 100 281 77 388 q 177 101 124 174 l 76 -125 l 208 -183 l 294 10 q 418 -13 349 -13 m 435 107 q 336 138 375 107 l 592 756 q 613 624 607 702 q 619 435 619 546 q 561 150 619 208 q 435 107 518 107 m 242 583 q 259 771 242 708 q 300 858 276 835 q 350 889 319 877 q 425 901 381 901 q 524 872 485 901 l 269 257 q 248 392 254 313 q 242 583 242 472 "},"Ǿ":{"ha":861,"x_min":76,"x_max":786,"o":"m 418 -13 q 610 45 527 -13 q 738 219 692 103 q 784 501 784 334 q 685 913 784 781 l 786 1140 l 655 1198 l 569 1005 q 447 1026 514 1026 q 253 968 337 1026 q 124 794 170 910 q 77 513 77 678 q 100 281 77 388 q 177 101 124 174 l 76 -125 l 208 -183 l 294 10 q 418 -13 349 -13 m 435 107 q 336 138 375 107 l 592 756 q 613 624 607 702 q 619 435 619 546 q 561 150 619 208 q 435 107 518 107 m 465 1135 l 331 1135 l 471 1306 l 640 1306 l 465 1135 m 242 583 q 259 771 242 708 q 300 858 276 835 q 350 889 319 877 q 425 901 381 901 q 524 872 485 901 l 269 257 q 248 392 254 313 q 242 583 242 472 "},"Õ":{"ha":861,"x_min":77,"x_max":784,"o":"m 418 -13 q 610 45 527 -13 q 738 219 692 103 q 784 501 784 334 q 710 876 784 726 q 447 1026 635 1026 q 253 968 337 1026 q 124 794 170 910 q 77 513 77 678 q 153 138 77 288 q 418 -13 228 -13 m 435 107 q 315 158 357 107 q 257 310 273 209 q 242 583 242 412 q 259 771 242 708 q 300 858 276 835 q 350 889 319 877 q 425 901 381 901 q 546 852 504 901 q 604 705 588 803 q 619 435 619 606 q 561 150 619 208 q 435 107 518 107 m 311 1319 q 206 1276 247 1319 q 155 1156 165 1234 l 259 1134 q 287 1199 267 1177 q 338 1222 308 1222 q 376 1212 359 1222 q 420 1181 392 1203 q 482 1140 454 1154 q 550 1126 510 1126 q 655 1168 614 1126 q 706 1288 697 1211 l 602 1310 q 574 1245 594 1267 q 524 1223 554 1223 q 485 1233 503 1223 q 441 1263 468 1242 q 379 1305 407 1290 q 311 1319 351 1319 "},"Œ":{"ha":861,"x_min":77,"x_max":844,"o":"m 418 0 l 826 0 l 844 132 l 591 132 l 591 449 l 754 449 l 754 575 l 591 575 l 591 882 l 844 882 l 826 1014 l 444 1014 q 252 955 335 1013 q 123 785 169 897 q 77 513 77 672 q 153 149 77 297 q 418 0 229 0 m 242 583 q 259 761 242 699 q 300 846 276 822 q 350 876 319 865 q 425 888 381 888 l 444 888 l 444 120 l 435 120 q 315 171 357 120 q 257 320 273 222 q 242 583 242 419 "},"P":{"ha":861,"x_min":120,"x_max":783,"o":"m 120 0 l 281 0 l 281 350 l 303 353 q 660 475 538 378 q 783 742 783 572 q 697 948 783 882 q 465 1014 612 1014 l 120 1014 l 120 0 m 298 471 l 281 469 l 281 897 l 423 897 q 574 851 525 897 q 622 724 622 806 q 536 548 622 612 q 298 471 449 485 "},"Þ":{"ha":861,"x_min":120,"x_max":783,"o":"m 120 0 l 281 0 l 281 189 l 303 192 q 660 314 538 217 q 783 581 783 410 q 697 787 783 721 q 465 853 612 853 l 281 853 l 281 1014 l 120 1014 l 120 0 m 298 310 l 281 308 l 281 736 l 423 736 q 574 690 525 736 q 622 563 622 644 q 536 387 622 451 q 298 310 449 324 "},"Q":{"ha":861,"x_min":71,"x_max":863,"o":"m 444 1026 q 649 964 572 1026 q 759 807 727 902 q 792 601 792 711 q 704 273 792 407 q 477 65 617 139 q 424 40 449 50 l 356 106 q 395 127 383 119 q 477 65 431 94 q 644 -12 549 21 q 863 -69 739 -44 l 798 -191 q 401 -57 563 -155 q 155 194 238 40 q 71 555 71 349 q 116 811 71 706 q 244 972 160 917 q 444 1026 328 1026 m 234 583 q 273 314 234 425 q 395 127 313 203 q 566 301 505 192 q 627 594 627 411 q 581 813 627 732 q 419 894 534 894 q 298 854 341 894 q 253 770 273 833 q 234 583 234 708 "},"R":{"ha":861,"x_min":118,"x_max":822,"o":"m 118 0 l 278 0 l 278 897 l 435 897 q 565 864 522 897 q 608 758 608 831 q 539 604 608 668 q 335 488 471 540 l 336 460 l 631 0 l 822 0 l 510 454 q 706 592 636 510 q 776 783 776 674 q 687 962 776 910 q 450 1014 598 1014 l 118 1014 l 118 0 "},"Ŕ":{"ha":861,"x_min":118,"x_max":822,"o":"m 118 0 l 278 0 l 278 897 l 435 897 q 565 864 522 897 q 608 758 608 831 q 539 604 608 668 q 335 488 471 540 l 336 460 l 631 0 l 822 0 l 510 454 q 706 592 636 510 q 776 783 776 674 q 687 962 776 910 q 450 1014 598 1014 l 118 1014 l 118 0 m 497 1135 l 362 1135 l 502 1306 l 671 1306 l 497 1135 "},"Ř":{"ha":861,"x_min":118,"x_max":822,"o":"m 118 0 l 278 0 l 278 897 l 435 897 q 565 864 522 897 q 608 758 608 831 q 539 604 608 668 q 335 488 471 540 l 336 460 l 631 0 l 822 0 l 510 454 q 706 592 636 510 q 776 783 776 674 q 687 962 776 910 q 450 1014 598 1014 l 118 1014 l 118 0 m 344 1135 l 173 1306 l 317 1306 l 431 1183 l 544 1306 l 689 1306 l 518 1135 l 344 1135 "},"Ŗ":{"ha":861,"x_min":118,"x_max":822,"o":"m 118 0 l 278 0 l 278 897 l 435 897 q 565 864 522 897 q 608 758 608 831 q 539 604 608 668 q 335 488 471 540 l 336 460 l 631 0 l 822 0 l 510 454 q 706 592 636 510 q 776 783 776 674 q 687 962 776 910 q 450 1014 598 1014 l 118 1014 l 118 0 m 429 -356 q 448 -354 435 -356 q 400 -415 433 -389 q 313 -471 367 -441 l 363 -532 q 494 -434 442 -495 q 546 -292 546 -373 q 513 -194 546 -228 q 428 -160 481 -160 q 352 -186 382 -160 q 322 -258 322 -212 q 352 -329 322 -303 q 429 -356 382 -356 "},"S":{"ha":861,"x_min":97,"x_max":765,"o":"m 737 868 l 728 1010 q 535 1032 631 1032 q 327 1004 422 1032 q 175 912 233 976 q 117 744 117 847 q 146 622 117 674 q 229 532 175 571 q 371 451 283 493 q 523 374 478 399 q 590 319 567 349 q 613 244 613 289 q 602 192 613 214 q 577 158 592 171 q 415 119 533 119 q 251 135 335 119 q 97 175 167 150 l 101 33 q 362 -14 237 -14 q 576 23 485 -14 q 716 129 667 60 q 765 290 765 198 q 728 417 763 367 q 642 499 694 467 q 494 576 590 531 l 473 586 q 356 647 399 621 q 285 706 312 674 q 259 780 259 739 q 268 825 259 808 q 293 856 277 843 q 489 894 340 894 q 737 868 614 894 "},"Ś":{"ha":861,"x_min":97,"x_max":765,"o":"m 737 868 l 728 1010 q 535 1032 631 1032 q 327 1004 422 1032 q 175 912 233 976 q 117 744 117 847 q 146 622 117 674 q 229 532 175 571 q 371 451 283 493 q 523 374 478 399 q 590 319 567 349 q 613 244 613 289 q 602 192 613 214 q 577 158 592 171 q 415 119 533 119 q 251 135 335 119 q 97 175 167 150 l 101 33 q 362 -14 237 -14 q 576 23 485 -14 q 716 129 667 60 q 765 290 765 198 q 728 417 763 367 q 642 499 694 467 q 494 576 590 531 l 473 586 q 356 647 399 621 q 285 706 312 674 q 259 780 259 739 q 268 825 259 808 q 293 856 277 843 q 489 894 340 894 q 737 868 614 894 m 497 1135 l 362 1135 l 502 1306 l 671 1306 l 497 1135 "},"Š":{"ha":861,"x_min":97,"x_max":765,"o":"m 737 868 l 728 1010 q 535 1032 631 1032 q 327 1004 422 1032 q 175 912 233 976 q 117 744 117 847 q 146 622 117 674 q 229 532 175 571 q 371 451 283 493 q 523 374 478 399 q 590 319 567 349 q 613 244 613 289 q 602 192 613 214 q 577 158 592 171 q 415 119 533 119 q 251 135 335 119 q 97 175 167 150 l 101 33 q 362 -14 237 -14 q 576 23 485 -14 q 716 129 667 60 q 765 290 765 198 q 728 417 763 367 q 642 499 694 467 q 494 576 590 531 l 473 586 q 356 647 399 621 q 285 706 312 674 q 259 780 259 739 q 268 825 259 808 q 293 856 277 843 q 489 894 340 894 q 737 868 614 894 m 344 1135 l 173 1306 l 317 1306 l 431 1183 l 544 1306 l 689 1306 l 518 1135 l 344 1135 "},"Ş":{"ha":861,"x_min":97,"x_max":765,"o":"m 737 868 l 728 1010 q 535 1032 631 1032 q 327 1004 422 1032 q 175 912 233 976 q 117 744 117 847 q 146 622 117 674 q 229 532 175 571 q 371 451 283 493 q 523 374 478 399 q 590 319 567 349 q 613 244 613 289 q 602 192 613 214 q 577 158 592 171 q 415 119 533 119 q 251 135 335 119 q 97 175 167 150 l 101 33 q 362 -14 237 -14 l 383 -14 l 383 -182 q 457 -205 431 -187 q 483 -260 483 -223 q 458 -311 483 -294 q 375 -328 433 -328 l 338 -328 l 338 -417 l 392 -417 q 517 -400 472 -417 q 581 -350 563 -383 q 600 -269 600 -318 q 570 -167 600 -203 q 478 -117 540 -131 l 477 -4 q 631 51 567 11 q 730 152 696 92 q 765 290 765 213 q 728 417 763 367 q 642 499 694 467 q 494 576 590 531 l 473 586 q 356 647 399 621 q 285 706 312 674 q 259 780 259 739 q 268 825 259 808 q 293 856 277 843 q 489 894 340 894 q 737 868 614 894 "},"Ŝ":{"ha":861,"x_min":97,"x_max":765,"o":"m 737 868 l 728 1010 q 535 1032 631 1032 q 327 1004 422 1032 q 175 912 233 976 q 117 744 117 847 q 146 622 117 674 q 229 532 175 571 q 371 451 283 493 q 523 374 478 399 q 590 319 567 349 q 613 244 613 289 q 602 192 613 214 q 577 158 592 171 q 415 119 533 119 q 251 135 335 119 q 97 175 167 150 l 101 33 q 362 -14 237 -14 q 576 23 485 -14 q 716 129 667 60 q 765 290 765 198 q 728 417 763 367 q 642 499 694 467 q 494 576 590 531 l 473 586 q 356 647 399 621 q 285 706 312 674 q 259 780 259 739 q 268 825 259 808 q 293 856 277 843 q 489 894 340 894 q 737 868 614 894 m 344 1306 l 173 1135 l 317 1135 l 431 1258 l 544 1135 l 689 1135 l 518 1306 l 344 1306 "},"Ș":{"ha":861,"x_min":97,"x_max":765,"o":"m 737 868 l 728 1010 q 535 1032 631 1032 q 327 1004 422 1032 q 175 912 233 976 q 117 744 117 847 q 146 622 117 674 q 229 532 175 571 q 371 451 283 493 q 523 374 478 399 q 590 319 567 349 q 613 244 613 289 q 602 192 613 214 q 577 158 592 171 q 415 119 533 119 q 251 135 335 119 q 97 175 167 150 l 101 33 q 362 -14 237 -14 q 576 23 485 -14 q 716 129 667 60 q 765 290 765 198 q 728 417 763 367 q 642 499 694 467 q 494 576 590 531 l 473 586 q 356 647 399 621 q 285 706 312 674 q 259 780 259 739 q 268 825 259 808 q 293 856 277 843 q 489 894 340 894 q 737 868 614 894 m 429 -356 q 448 -354 435 -356 q 400 -415 433 -389 q 313 -471 367 -441 l 363 -532 q 494 -434 442 -495 q 546 -292 546 -373 q 513 -194 546 -228 q 428 -160 481 -160 q 352 -186 382 -160 q 322 -258 322 -212 q 352 -329 322 -303 q 429 -356 382 -356 "},"ẞ":{"ha":861,"x_min":112,"x_max":821,"o":"m 112 0 l 265 0 l 265 890 l 588 890 l 478 599 l 478 525 q 609 448 556 495 q 661 319 661 401 q 635 223 661 267 q 563 149 610 178 q 457 113 517 120 l 404 105 l 427 -15 l 463 -10 q 651 53 571 8 q 776 165 732 97 q 821 319 821 233 q 764 483 821 421 q 617 573 708 545 l 749 917 l 749 1014 l 112 1014 l 112 0 "},"T":{"ha":861,"x_min":64,"x_max":797,"o":"m 349 0 l 507 0 l 507 882 l 797 882 l 780 1014 l 81 1014 l 64 882 l 349 882 l 349 0 "},"Ŧ":{"ha":861,"x_min":64,"x_max":797,"o":"m 181 583 l 181 451 l 349 451 l 349 0 l 507 0 l 507 451 l 681 451 l 681 583 l 507 583 l 507 882 l 797 882 l 780 1014 l 81 1014 l 64 882 l 349 882 l 349 583 l 181 583 "},"Ť":{"ha":861,"x_min":64,"x_max":797,"o":"m 349 0 l 507 0 l 507 882 l 797 882 l 780 1014 l 81 1014 l 64 882 l 349 882 l 349 0 m 344 1135 l 173 1306 l 317 1306 l 431 1183 l 544 1306 l 689 1306 l 518 1135 l 344 1135 "},"Ţ":{"ha":861,"x_min":64,"x_max":797,"o":"m 476 0 l 507 0 l 507 882 l 797 882 l 780 1014 l 81 1014 l 64 882 l 349 882 l 349 0 l 381 0 l 381 -182 q 456 -205 430 -187 q 481 -260 481 -223 q 457 -311 481 -294 q 374 -328 432 -328 l 336 -328 l 336 -417 l 391 -417 q 516 -400 470 -417 q 580 -350 561 -383 q 599 -269 599 -318 q 568 -167 599 -203 q 477 -117 538 -131 l 476 0 "},"Ț":{"ha":861,"x_min":64,"x_max":797,"o":"m 349 0 l 507 0 l 507 882 l 797 882 l 780 1014 l 81 1014 l 64 882 l 349 882 l 349 0 m 428 -356 q 447 -354 434 -356 q 398 -415 431 -389 q 312 -471 365 -441 l 362 -532 q 492 -434 440 -495 q 544 -292 544 -373 q 512 -194 544 -228 q 427 -160 479 -160 q 351 -186 381 -160 q 321 -258 321 -212 q 351 -329 321 -303 q 428 -356 381 -356 "},"U":{"ha":861,"x_min":100,"x_max":762,"o":"m 411 -13 q 667 63 572 -13 q 762 315 762 139 l 762 1014 l 603 1014 l 603 281 q 592 196 603 225 q 563 151 582 167 q 442 121 530 121 q 301 174 342 121 q 260 333 260 227 l 260 1014 l 100 1014 l 100 303 q 134 136 100 207 q 238 26 168 65 q 411 -13 307 -13 "},"Ú":{"ha":861,"x_min":100,"x_max":762,"o":"m 411 -13 q 667 63 572 -13 q 762 315 762 139 l 762 1014 l 603 1014 l 603 281 q 592 196 603 225 q 563 151 582 167 q 442 121 530 121 q 301 174 342 121 q 260 333 260 227 l 260 1014 l 100 1014 l 100 303 q 134 136 100 207 q 238 26 168 65 q 411 -13 307 -13 m 497 1135 l 362 1135 l 502 1306 l 671 1306 l 497 1135 "},"Ŭ":{"ha":861,"x_min":100,"x_max":762,"o":"m 411 -13 q 667 63 572 -13 q 762 315 762 139 l 762 1014 l 603 1014 l 603 281 q 592 196 603 225 q 563 151 582 167 q 442 121 530 121 q 301 174 342 121 q 260 333 260 227 l 260 1014 l 100 1014 l 100 303 q 134 136 100 207 q 238 26 168 65 q 411 -13 307 -13 m 313 1306 l 213 1306 q 264 1174 208 1222 q 431 1126 320 1126 q 597 1174 542 1126 q 649 1306 653 1221 l 549 1306 q 520 1234 549 1261 q 431 1208 491 1208 q 342 1234 370 1208 q 313 1306 313 1261 "},"Û":{"ha":861,"x_min":100,"x_max":762,"o":"m 411 -13 q 667 63 572 -13 q 762 315 762 139 l 762 1014 l 603 1014 l 603 281 q 592 196 603 225 q 563 151 582 167 q 442 121 530 121 q 301 174 342 121 q 260 333 260 227 l 260 1014 l 100 1014 l 100 303 q 134 136 100 207 q 238 26 168 65 q 411 -13 307 -13 m 344 1306 l 173 1135 l 317 1135 l 431 1258 l 544 1135 l 689 1135 l 518 1306 l 344 1306 "},"Ü":{"ha":861,"x_min":100,"x_max":762,"o":"m 411 -13 q 667 63 572 -13 q 762 315 762 139 l 762 1014 l 603 1014 l 603 281 q 592 196 603 225 q 563 151 582 167 q 442 121 530 121 q 301 174 342 121 q 260 333 260 227 l 260 1014 l 100 1014 l 100 303 q 134 136 100 207 q 238 26 168 65 q 411 -13 307 -13 m 248 1140 q 315 1163 290 1140 q 340 1227 340 1187 q 315 1290 340 1267 q 248 1313 290 1313 q 182 1290 207 1313 q 156 1227 156 1267 q 182 1163 156 1187 q 248 1140 207 1140 m 614 1140 q 681 1163 656 1140 q 706 1227 706 1187 q 681 1290 706 1267 q 614 1313 656 1313 q 548 1290 573 1313 q 522 1227 522 1267 q 548 1163 522 1187 q 614 1140 573 1140 "},"Ụ":{"ha":861,"x_min":100,"x_max":762,"o":"m 411 -13 q 667 63 572 -13 q 762 315 762 139 l 762 1014 l 603 1014 l 603 281 q 592 196 603 225 q 563 151 582 167 q 442 121 530 121 q 301 174 342 121 q 260 333 260 227 l 260 1014 l 100 1014 l 100 303 q 134 136 100 207 q 238 26 168 65 q 411 -13 307 -13 m 431 -360 q 509 -333 479 -360 q 539 -260 539 -306 q 509 -187 539 -214 q 431 -160 479 -160 q 352 -187 382 -160 q 322 -260 322 -214 q 352 -333 322 -306 q 431 -360 382 -360 "},"Ù":{"ha":861,"x_min":100,"x_max":762,"o":"m 411 -13 q 667 63 572 -13 q 762 315 762 139 l 762 1014 l 603 1014 l 603 281 q 592 196 603 225 q 563 151 582 167 q 442 121 530 121 q 301 174 342 121 q 260 333 260 227 l 260 1014 l 100 1014 l 100 303 q 134 136 100 207 q 238 26 168 65 q 411 -13 307 -13 m 365 1135 l 500 1135 l 359 1306 l 191 1306 l 365 1135 "},"Ű":{"ha":861,"x_min":100,"x_max":762,"o":"m 411 -13 q 667 63 572 -13 q 762 315 762 139 l 762 1014 l 603 1014 l 603 281 q 592 196 603 225 q 563 151 582 167 q 442 121 530 121 q 301 174 342 121 q 260 333 260 227 l 260 1014 l 100 1014 l 100 303 q 134 136 100 207 q 238 26 168 65 q 411 -13 307 -13 m 333 1306 l 238 1135 l 345 1135 l 463 1306 l 333 1306 m 605 1306 l 510 1135 l 617 1135 l 735 1306 l 605 1306 "},"Ū":{"ha":861,"x_min":100,"x_max":762,"o":"m 411 -13 q 667 63 572 -13 q 762 315 762 139 l 762 1014 l 603 1014 l 603 281 q 592 196 603 225 q 563 151 582 167 q 442 121 530 121 q 301 174 342 121 q 260 333 260 227 l 260 1014 l 100 1014 l 100 303 q 134 136 100 207 q 238 26 168 65 q 411 -13 307 -13 m 658 1188 l 658 1290 l 203 1290 l 203 1188 l 658 1188 "},"Ų":{"ha":861,"x_min":100,"x_max":762,"o":"m 100 1014 l 100 303 q 173 78 100 162 q 389 -12 245 -6 q 323 -92 344 -53 q 301 -171 301 -130 q 341 -258 301 -224 q 479 -292 381 -292 l 536 -292 l 536 -192 l 516 -192 q 456 -178 474 -192 q 438 -138 438 -164 q 460 -76 438 -110 q 535 0 483 -42 q 762 315 762 52 l 762 1014 l 603 1014 l 603 281 q 592 196 603 225 q 563 151 582 167 q 442 121 530 121 q 301 174 342 121 q 260 333 260 227 l 260 1014 l 100 1014 "},"Ů":{"ha":861,"x_min":100,"x_max":762,"o":"m 411 -13 q 667 63 572 -13 q 762 315 762 139 l 762 1014 l 603 1014 l 603 281 q 592 196 603 225 q 563 151 582 167 q 442 121 530 121 q 301 174 342 121 q 260 333 260 227 l 260 1014 l 100 1014 l 100 303 q 134 136 100 207 q 238 26 168 65 q 411 -13 307 -13 m 431 982 q 514 1003 477 982 q 571 1063 551 1025 q 592 1147 592 1100 q 571 1232 592 1194 q 514 1291 551 1269 q 431 1312 477 1312 q 348 1291 384 1312 q 291 1232 311 1269 q 270 1147 270 1194 q 291 1063 270 1100 q 348 1003 311 1025 q 431 982 384 982 m 431 1054 q 365 1080 390 1054 q 340 1147 340 1106 q 365 1214 340 1188 q 431 1240 390 1240 q 496 1214 472 1240 q 521 1147 521 1188 q 496 1080 521 1106 q 431 1054 472 1054 "},"Ũ":{"ha":861,"x_min":100,"x_max":762,"o":"m 411 -13 q 667 63 572 -13 q 762 315 762 139 l 762 1014 l 603 1014 l 603 281 q 592 196 603 225 q 563 151 582 167 q 442 121 530 121 q 301 174 342 121 q 260 333 260 227 l 260 1014 l 100 1014 l 100 303 q 134 136 100 207 q 238 26 168 65 q 411 -13 307 -13 m 311 1319 q 206 1276 247 1319 q 155 1156 165 1234 l 259 1134 q 287 1199 267 1177 q 338 1222 308 1222 q 376 1212 359 1222 q 420 1181 392 1203 q 482 1140 454 1154 q 550 1126 510 1126 q 655 1168 614 1126 q 706 1288 697 1211 l 602 1310 q 574 1245 594 1267 q 524 1223 554 1223 q 485 1233 503 1223 q 441 1263 468 1242 q 379 1305 407 1290 q 311 1319 351 1319 "},"V":{"ha":861,"x_min":71,"x_max":790,"o":"m 235 1014 l 71 1014 q 175 486 108 733 q 360 0 242 239 l 506 0 q 689 489 622 238 q 790 1014 756 740 l 640 1014 q 444 200 585 541 l 431 200 q 235 1014 289 544 "},"W":{"ha":861,"x_min":23,"x_max":839,"o":"m 561 0 l 665 0 q 780 501 737 245 q 839 1014 824 758 l 701 1014 q 664 663 689 844 q 603 314 638 481 l 590 314 q 490 845 534 546 l 386 845 q 278 314 331 512 l 267 314 q 207 664 232 483 q 172 1014 183 844 l 23 1014 q 82 500 39 756 q 198 0 126 244 l 294 0 q 367 294 335 143 q 426 612 398 444 l 438 612 q 493 293 464 444 q 561 0 522 143 "},"Ẃ":{"ha":861,"x_min":23,"x_max":839,"o":"m 561 0 l 665 0 q 780 501 737 245 q 839 1014 824 758 l 701 1014 q 664 663 689 844 q 603 314 638 481 l 590 314 q 490 845 534 546 l 386 845 q 278 314 331 512 l 267 314 q 207 664 232 483 q 172 1014 183 844 l 23 1014 q 82 500 39 756 q 198 0 126 244 l 294 0 q 367 294 335 143 q 426 612 398 444 l 438 612 q 493 293 464 444 q 561 0 522 143 m 497 1135 l 362 1135 l 502 1306 l 671 1306 l 497 1135 "},"Ŵ":{"ha":861,"x_min":23,"x_max":839,"o":"m 561 0 l 665 0 q 780 501 737 245 q 839 1014 824 758 l 701 1014 q 664 663 689 844 q 603 314 638 481 l 590 314 q 490 845 534 546 l 386 845 q 278 314 331 512 l 267 314 q 207 664 232 483 q 172 1014 183 844 l 23 1014 q 82 500 39 756 q 198 0 126 244 l 294 0 q 367 294 335 143 q 426 612 398 444 l 438 612 q 493 293 464 444 q 561 0 522 143 m 344 1306 l 173 1135 l 317 1135 l 431 1258 l 544 1135 l 689 1135 l 518 1306 l 344 1306 "},"Ẅ":{"ha":861,"x_min":23,"x_max":839,"o":"m 561 0 l 665 0 q 780 501 737 245 q 839 1014 824 758 l 701 1014 q 664 663 689 844 q 603 314 638 481 l 590 314 q 490 845 534 546 l 386 845 q 278 314 331 512 l 267 314 q 207 664 232 483 q 172 1014 183 844 l 23 1014 q 82 500 39 756 q 198 0 126 244 l 294 0 q 367 294 335 143 q 426 612 398 444 l 438 612 q 493 293 464 444 q 561 0 522 143 m 248 1140 q 315 1163 290 1140 q 340 1227 340 1187 q 315 1290 340 1267 q 248 1313 290 1313 q 182 1290 207 1313 q 156 1227 156 1267 q 182 1163 156 1187 q 248 1140 207 1140 m 614 1140 q 681 1163 656 1140 q 706 1227 706 1187 q 681 1290 706 1267 q 614 1313 656 1313 q 548 1290 573 1313 q 522 1227 522 1267 q 548 1163 522 1187 q 614 1140 573 1140 "},"Ẁ":{"ha":861,"x_min":23,"x_max":839,"o":"m 561 0 l 665 0 q 780 501 737 245 q 839 1014 824 758 l 701 1014 q 664 663 689 844 q 603 314 638 481 l 590 314 q 490 845 534 546 l 386 845 q 278 314 331 512 l 267 314 q 207 664 232 483 q 172 1014 183 844 l 23 1014 q 82 500 39 756 q 198 0 126 244 l 294 0 q 367 294 335 143 q 426 612 398 444 l 438 612 q 493 293 464 444 q 561 0 522 143 m 365 1135 l 500 1135 l 359 1306 l 191 1306 l 365 1135 "},"X":{"ha":861,"x_min":47,"x_max":815,"o":"m 231 1014 l 57 1014 l 340 519 l 47 0 l 221 0 l 419 382 l 638 0 l 815 0 l 520 511 l 807 1014 l 642 1014 l 447 638 l 231 1014 "},"Y":{"ha":861,"x_min":47,"x_max":815,"o":"m 352 0 l 510 0 l 510 444 q 694 728 617 584 q 815 1014 771 872 l 663 1014 q 444 580 599 799 l 431 580 q 213 1014 276 799 l 47 1014 q 352 448 140 724 l 352 0 "},"Ý":{"ha":861,"x_min":47,"x_max":815,"o":"m 352 0 l 510 0 l 510 444 q 694 728 617 584 q 815 1014 771 872 l 663 1014 q 444 580 599 799 l 431 580 q 213 1014 276 799 l 47 1014 q 352 448 140 724 l 352 0 m 497 1135 l 362 1135 l 503 1306 l 671 1306 l 497 1135 "},"Ŷ":{"ha":861,"x_min":47,"x_max":815,"o":"m 352 0 l 510 0 l 510 444 q 694 728 617 584 q 815 1014 771 872 l 663 1014 q 444 580 599 799 l 431 580 q 213 1014 276 799 l 47 1014 q 352 448 140 724 l 352 0 m 344 1306 l 173 1135 l 317 1135 l 431 1258 l 545 1135 l 689 1135 l 518 1306 l 344 1306 "},"Ÿ":{"ha":861,"x_min":47,"x_max":815,"o":"m 352 0 l 510 0 l 510 444 q 694 728 617 584 q 815 1014 771 872 l 663 1014 q 444 580 599 799 l 431 580 q 213 1014 276 799 l 47 1014 q 352 448 140 724 l 352 0 m 249 1140 q 315 1163 290 1140 q 340 1227 340 1187 q 315 1290 340 1267 q 249 1313 290 1313 q 182 1290 207 1313 q 156 1227 156 1267 q 182 1163 156 1187 q 249 1140 207 1140 m 615 1140 q 681 1163 656 1140 q 706 1227 706 1187 q 681 1290 706 1267 q 615 1313 656 1313 q 548 1290 573 1313 q 522 1227 522 1267 q 548 1163 522 1187 q 615 1140 573 1140 "},"Ỳ":{"ha":861,"x_min":47,"x_max":815,"o":"m 352 0 l 510 0 l 510 444 q 694 728 617 584 q 815 1014 771 872 l 663 1014 q 444 580 599 799 l 431 580 q 213 1014 276 799 l 47 1014 q 352 448 140 724 l 352 0 m 365 1135 l 500 1135 l 360 1306 l 191 1306 l 365 1135 "},"Ȳ":{"ha":861,"x_min":47,"x_max":815,"o":"m 352 0 l 510 0 l 510 444 q 694 728 617 584 q 815 1014 771 872 l 663 1014 q 444 580 599 799 l 431 580 q 213 1014 276 799 l 47 1014 q 352 448 140 724 l 352 0 m 659 1188 l 659 1290 l 203 1290 l 203 1188 l 659 1188 "},"Ỹ":{"ha":861,"x_min":47,"x_max":815,"o":"m 352 0 l 510 0 l 510 444 q 694 728 617 584 q 815 1014 771 872 l 663 1014 q 444 580 599 799 l 431 580 q 213 1014 276 799 l 47 1014 q 352 448 140 724 l 352 0 m 311 1319 q 206 1276 247 1319 q 156 1156 165 1233 l 260 1134 q 288 1199 267 1177 q 338 1222 308 1222 q 376 1212 359 1222 q 420 1181 394 1202 q 482 1140 454 1154 q 550 1126 510 1126 q 655 1168 614 1126 q 707 1288 697 1210 l 603 1310 q 575 1245 595 1267 q 524 1223 554 1223 q 485 1233 503 1223 q 442 1263 468 1242 q 379 1305 408 1290 q 311 1319 351 1319 "},"Z":{"ha":861,"x_min":81,"x_max":788,"o":"m 717 1014 l 126 1014 l 81 885 l 536 885 l 101 85 l 115 0 l 738 0 l 788 137 l 301 137 l 733 933 l 717 1014 "},"Ź":{"ha":861,"x_min":81,"x_max":788,"o":"m 717 1014 l 126 1014 l 81 885 l 536 885 l 101 85 l 115 0 l 738 0 l 788 137 l 301 137 l 733 933 l 717 1014 m 497 1135 l 362 1135 l 502 1306 l 671 1306 l 497 1135 "},"Ž":{"ha":861,"x_min":81,"x_max":788,"o":"m 717 1014 l 126 1014 l 81 885 l 536 885 l 101 85 l 115 0 l 738 0 l 788 137 l 301 137 l 733 933 l 717 1014 m 344 1135 l 173 1306 l 317 1306 l 431 1183 l 544 1306 l 689 1306 l 518 1135 l 344 1135 "},"Ż":{"ha":861,"x_min":81,"x_max":788,"o":"m 717 1014 l 126 1014 l 81 885 l 536 885 l 101 85 l 115 0 l 738 0 l 788 137 l 301 137 l 733 933 l 717 1014 m 429 1140 q 497 1163 472 1140 q 523 1226 523 1187 q 497 1290 523 1267 q 429 1313 472 1313 q 361 1290 387 1313 q 335 1226 335 1267 q 361 1163 335 1187 q 429 1140 387 1140 "},"a":{"ha":861,"x_min":88,"x_max":736,"o":"m 579 0 l 736 0 l 736 532 q 667 689 736 639 q 450 739 597 739 q 289 725 370 739 q 135 688 208 711 l 114 540 q 440 604 292 604 q 542 580 504 604 q 579 501 579 556 l 579 420 q 236 361 383 414 q 88 177 88 308 q 115 78 88 122 q 192 9 141 34 q 315 -16 244 -16 q 438 2 372 -16 q 567 61 503 21 l 579 61 l 579 0 m 246 204 q 264 260 246 238 q 328 294 283 282 q 535 314 397 314 l 579 313 l 579 148 q 477 111 529 124 q 383 97 424 97 q 283 126 320 97 q 246 204 246 156 "},"á":{"ha":861,"x_min":88,"x_max":736,"o":"m 579 0 l 736 0 l 736 532 q 667 689 736 639 q 450 739 597 739 q 289 725 370 739 q 135 688 208 711 l 114 540 q 440 604 292 604 q 542 580 504 604 q 579 501 579 556 l 579 420 q 236 361 383 414 q 88 177 88 308 q 115 78 88 122 q 192 9 141 34 q 315 -16 244 -16 q 438 2 372 -16 q 567 61 503 21 l 579 61 l 579 0 m 497 885 l 362 885 l 502 1125 l 671 1125 l 497 885 m 246 204 q 264 260 246 238 q 328 294 283 282 q 535 314 397 314 l 579 313 l 579 148 q 477 111 529 124 q 383 97 424 97 q 283 126 320 97 q 246 204 246 156 "},"ă":{"ha":861,"x_min":88,"x_max":736,"o":"m 579 0 l 736 0 l 736 532 q 667 689 736 639 q 450 739 597 739 q 289 725 370 739 q 135 688 208 711 l 114 540 q 440 604 292 604 q 542 580 504 604 q 579 501 579 556 l 579 420 q 236 361 383 414 q 88 177 88 308 q 115 78 88 122 q 192 9 141 34 q 315 -16 244 -16 q 438 2 372 -16 q 567 61 503 21 l 579 61 l 579 0 m 313 1125 l 213 1125 q 264 942 208 1006 q 431 879 319 879 q 598 942 542 879 q 649 1125 653 1005 l 549 1125 q 520 1017 549 1054 q 431 980 492 980 q 341 1017 369 980 q 313 1125 313 1054 m 246 204 q 264 260 246 238 q 328 294 283 282 q 535 314 397 314 l 579 313 l 579 148 q 477 111 529 124 q 383 97 424 97 q 283 126 320 97 q 246 204 246 156 "},"â":{"ha":861,"x_min":88,"x_max":736,"o":"m 579 0 l 736 0 l 736 532 q 667 689 736 639 q 450 739 597 739 q 289 725 370 739 q 135 688 208 711 l 114 540 q 440 604 292 604 q 542 580 504 604 q 579 501 579 556 l 579 420 q 236 361 383 414 q 88 177 88 308 q 115 78 88 122 q 192 9 141 34 q 315 -16 244 -16 q 438 2 372 -16 q 567 61 503 21 l 579 61 l 579 0 m 347 1125 l 173 885 l 310 885 l 431 1063 l 551 885 l 689 885 l 515 1125 l 347 1125 m 246 204 q 264 260 246 238 q 328 294 283 282 q 535 314 397 314 l 579 313 l 579 148 q 477 111 529 124 q 383 97 424 97 q 283 126 320 97 q 246 204 246 156 "},"ä":{"ha":861,"x_min":88,"x_max":736,"o":"m 579 0 l 736 0 l 736 532 q 667 689 736 639 q 450 739 597 739 q 289 725 370 739 q 135 688 208 711 l 114 540 q 440 604 292 604 q 542 580 504 604 q 579 501 579 556 l 579 420 q 236 361 383 414 q 88 177 88 308 q 115 78 88 122 q 192 9 141 34 q 315 -16 244 -16 q 438 2 372 -16 q 567 61 503 21 l 579 61 l 579 0 m 248 882 q 319 909 292 882 q 347 983 347 937 q 319 1055 347 1028 q 248 1081 292 1081 q 176 1055 203 1081 q 149 983 149 1028 q 176 909 149 937 q 248 882 203 882 m 614 882 q 685 909 658 882 q 713 983 713 937 q 685 1055 713 1028 q 614 1081 658 1081 q 542 1055 569 1081 q 515 983 515 1028 q 542 909 515 937 q 614 882 569 882 m 246 204 q 264 260 246 238 q 328 294 283 282 q 535 314 397 314 l 579 313 l 579 148 q 477 111 529 124 q 383 97 424 97 q 283 126 320 97 q 246 204 246 156 "},"à":{"ha":861,"x_min":88,"x_max":736,"o":"m 579 0 l 736 0 l 736 532 q 667 689 736 639 q 450 739 597 739 q 289 725 370 739 q 135 688 208 711 l 114 540 q 440 604 292 604 q 542 580 504 604 q 579 501 579 556 l 579 420 q 236 361 383 414 q 88 177 88 308 q 115 78 88 122 q 192 9 141 34 q 315 -16 244 -16 q 438 2 372 -16 q 567 61 503 21 l 579 61 l 579 0 m 365 885 l 500 885 l 359 1125 l 191 1125 l 365 885 m 246 204 q 264 260 246 238 q 328 294 283 282 q 535 314 397 314 l 579 313 l 579 148 q 477 111 529 124 q 383 97 424 97 q 283 126 320 97 q 246 204 246 156 "},"ā":{"ha":861,"x_min":88,"x_max":736,"o":"m 579 0 l 736 0 l 736 532 q 667 689 736 639 q 450 739 597 739 q 289 725 370 739 q 135 688 208 711 l 114 540 q 440 604 292 604 q 542 580 504 604 q 579 501 579 556 l 579 420 q 236 361 383 414 q 88 177 88 308 q 115 78 88 122 q 192 9 141 34 q 315 -16 244 -16 q 438 2 372 -16 q 567 61 503 21 l 579 61 l 579 0 m 658 916 l 658 1018 l 203 1018 l 203 916 l 658 916 m 246 204 q 264 260 246 238 q 328 294 283 282 q 535 314 397 314 l 579 313 l 579 148 q 477 111 529 124 q 383 97 424 97 q 283 126 320 97 q 246 204 246 156 "},"ą":{"ha":861,"x_min":88,"x_max":736,"o":"m 736 0 l 736 532 q 667 689 736 639 q 450 739 597 739 q 289 725 370 739 q 135 688 208 711 l 114 540 q 440 604 292 604 q 542 580 504 604 q 579 501 579 556 l 579 420 q 236 361 383 414 q 88 177 88 308 q 115 78 88 122 q 192 9 141 34 q 315 -16 244 -16 q 438 2 372 -16 q 567 61 503 21 l 579 61 l 579 0 l 603 0 q 527 -86 551 -46 q 502 -171 502 -126 q 542 -258 502 -224 q 679 -292 581 -292 l 736 -292 l 736 -192 l 716 -192 q 656 -178 674 -192 q 638 -138 638 -164 q 661 -76 638 -110 q 736 0 684 -42 m 246 204 q 264 260 246 238 q 328 294 283 282 q 535 314 397 314 l 579 313 l 579 148 q 477 111 529 124 q 383 97 424 97 q 283 126 320 97 q 246 204 246 156 "},"å":{"ha":861,"x_min":88,"x_max":736,"o":"m 579 0 l 736 0 l 736 532 q 667 689 736 639 q 450 739 597 739 q 289 725 370 739 q 135 688 208 711 l 114 540 q 440 604 292 604 q 542 580 504 604 q 579 501 579 556 l 579 420 q 236 361 383 414 q 88 177 88 308 q 115 78 88 122 q 192 9 141 34 q 315 -16 244 -16 q 438 2 372 -16 q 567 61 503 21 l 579 61 l 579 0 m 431 842 q 514 864 477 842 q 571 923 551 885 q 592 1008 592 960 q 571 1092 592 1055 q 514 1151 551 1130 q 431 1172 477 1172 q 348 1151 384 1172 q 291 1092 311 1130 q 270 1008 270 1055 q 291 923 270 960 q 348 864 311 885 q 431 842 384 842 m 431 915 q 365 941 390 915 q 340 1008 340 967 q 365 1074 340 1048 q 431 1100 390 1100 q 496 1074 472 1100 q 521 1008 521 1048 q 496 941 521 967 q 431 915 472 915 m 246 204 q 264 260 246 238 q 328 294 283 282 q 535 314 397 314 l 579 313 l 579 148 q 477 111 529 124 q 383 97 424 97 q 283 126 320 97 q 246 204 246 156 "},"ã":{"ha":861,"x_min":88,"x_max":736,"o":"m 579 0 l 736 0 l 736 532 q 667 689 736 639 q 450 739 597 739 q 289 725 370 739 q 135 688 208 711 l 114 540 q 440 604 292 604 q 542 580 504 604 q 579 501 579 556 l 579 420 q 236 361 383 414 q 88 177 88 308 q 115 78 88 122 q 192 9 141 34 q 315 -16 244 -16 q 438 2 372 -16 q 567 61 503 21 l 579 61 l 579 0 m 306 1122 q 203 1065 244 1122 q 152 907 162 1009 l 256 877 q 284 968 265 935 q 333 1000 303 1000 q 370 987 353 1000 q 415 945 388 974 q 456 905 438 920 q 497 878 473 889 q 548 867 520 867 q 652 924 611 867 q 703 1082 693 980 l 599 1112 q 572 1021 592 1053 q 523 989 553 989 q 485 1002 503 989 q 440 1044 467 1016 q 399 1084 417 1069 q 358 1110 381 1099 q 306 1122 334 1122 m 246 204 q 264 260 246 238 q 328 294 283 282 q 535 314 397 314 l 579 313 l 579 148 q 477 111 529 124 q 383 97 424 97 q 283 126 320 97 q 246 204 246 156 "},"æ":{"ha":861,"x_min":40,"x_max":818,"o":"m 620 -17 q 788 27 699 -17 l 793 145 q 717 119 751 128 q 653 110 683 110 q 542 175 578 110 q 501 351 506 241 l 818 351 l 818 442 q 770 661 818 583 q 623 739 722 739 q 530 716 574 739 q 455 647 485 694 q 378 716 427 693 q 269 739 329 739 q 174 725 222 739 q 85 688 126 712 l 65 544 q 168 591 117 574 q 259 608 219 608 q 343 581 308 608 q 378 494 378 553 l 378 419 q 218 389 294 414 q 91 310 142 364 q 40 173 40 257 q 63 74 40 117 q 128 7 86 31 q 226 -17 171 -17 q 332 5 280 -17 q 423 69 383 27 l 449 69 q 620 -17 510 -17 m 168 202 q 185 259 168 236 q 244 295 201 281 q 383 313 301 313 q 415 134 387 208 q 346 105 382 115 q 279 94 310 94 q 197 124 226 94 q 168 202 168 153 m 702 441 l 502 441 q 516 544 506 505 q 542 601 527 584 q 603 626 563 626 q 676 584 650 626 q 703 465 703 542 l 702 441 "},"ǽ":{"ha":861,"x_min":40,"x_max":818,"o":"m 620 -17 q 788 27 699 -17 l 793 145 q 717 119 751 128 q 653 110 683 110 q 542 175 578 110 q 501 351 506 241 l 818 351 l 818 442 q 770 661 818 583 q 623 739 722 739 q 530 716 574 739 q 455 647 485 694 q 378 716 427 693 q 269 739 329 739 q 174 725 222 739 q 85 688 126 712 l 65 544 q 168 591 117 574 q 259 608 219 608 q 343 581 308 608 q 378 494 378 553 l 378 419 q 218 389 294 414 q 91 310 142 364 q 40 173 40 257 q 63 74 40 117 q 128 7 86 31 q 226 -17 171 -17 q 332 5 280 -17 q 423 69 383 27 l 449 69 q 620 -17 510 -17 m 497 885 l 362 885 l 502 1125 l 671 1125 l 497 885 m 168 202 q 185 259 168 236 q 244 295 201 281 q 383 313 301 313 q 415 134 387 208 q 346 105 382 115 q 279 94 310 94 q 197 124 226 94 q 168 202 168 153 m 702 441 l 502 441 q 516 544 506 505 q 542 601 527 584 q 603 626 563 626 q 676 584 650 626 q 703 465 703 542 l 702 441 "},"b":{"ha":861,"x_min":101,"x_max":792,"o":"m 792 397 q 759 579 792 503 q 661 697 726 656 q 506 738 597 738 q 375 713 433 738 q 267 644 317 688 l 259 644 l 259 1063 l 101 1063 l 101 0 l 144 0 l 185 33 q 401 -16 285 -16 q 601 31 512 -16 q 741 171 690 78 q 792 397 792 264 m 259 139 l 259 572 q 437 617 358 617 q 585 545 544 617 q 627 359 627 474 q 606 208 627 259 q 549 135 584 158 q 494 109 522 117 q 428 101 465 101 q 259 139 340 101 "},"c":{"ha":861,"x_min":108,"x_max":758,"o":"m 543 739 q 322 699 420 739 q 166 572 224 658 q 108 351 108 485 q 155 152 108 235 q 291 26 201 69 q 509 -17 381 -17 q 751 28 642 -17 l 758 153 q 538 119 634 119 q 339 185 413 119 q 264 384 264 251 q 285 497 264 455 q 335 559 306 538 q 397 585 360 577 q 492 594 433 594 q 619 587 548 594 q 757 567 690 580 l 744 712 q 543 739 644 739 "},"ć":{"ha":861,"x_min":108,"x_max":758,"o":"m 543 739 q 322 699 420 739 q 166 572 224 658 q 108 351 108 485 q 155 152 108 235 q 291 26 201 69 q 509 -17 381 -17 q 751 28 642 -17 l 758 153 q 538 119 634 119 q 339 185 413 119 q 264 384 264 251 q 285 497 264 455 q 335 559 306 538 q 397 585 360 577 q 492 594 433 594 q 619 587 548 594 q 757 567 690 580 l 744 712 q 543 739 644 739 m 542 885 l 407 885 l 547 1125 l 716 1125 l 542 885 "},"č":{"ha":861,"x_min":108,"x_max":758,"o":"m 543 739 q 322 699 420 739 q 166 572 224 658 q 108 351 108 485 q 155 152 108 235 q 291 26 201 69 q 509 -17 381 -17 q 751 28 642 -17 l 758 153 q 538 119 634 119 q 339 185 413 119 q 264 384 264 251 q 285 497 264 455 q 335 559 306 538 q 397 585 360 577 q 492 594 433 594 q 619 587 548 594 q 757 567 690 580 l 744 712 q 543 739 644 739 m 392 885 l 218 1125 l 355 1125 l 476 947 l 597 1125 l 734 1125 l 560 885 l 392 885 "},"ç":{"ha":861,"x_min":108,"x_max":758,"o":"m 543 739 q 322 699 420 739 q 166 572 224 658 q 108 351 108 485 q 178 116 108 207 q 383 -4 249 24 l 383 -182 q 457 -205 431 -187 q 483 -260 483 -223 q 458 -311 483 -294 q 375 -328 433 -328 l 338 -328 l 338 -417 l 392 -417 q 517 -400 472 -417 q 581 -350 563 -383 q 600 -269 600 -318 q 570 -167 600 -203 q 478 -117 540 -131 l 477 -16 l 509 -17 q 751 28 642 -17 l 758 153 q 538 119 634 119 q 339 185 413 119 q 264 384 264 251 q 285 497 264 455 q 335 559 306 538 q 397 585 360 577 q 492 594 433 594 q 619 587 548 594 q 757 567 690 580 l 744 712 q 543 739 644 739 "},"ĉ":{"ha":861,"x_min":108,"x_max":758,"o":"m 543 739 q 322 699 420 739 q 166 572 224 658 q 108 351 108 485 q 155 152 108 235 q 291 26 201 69 q 509 -17 381 -17 q 751 28 642 -17 l 758 153 q 538 119 634 119 q 339 185 413 119 q 264 384 264 251 q 285 497 264 455 q 335 559 306 538 q 397 585 360 577 q 492 594 433 594 q 619 587 548 594 q 757 567 690 580 l 744 712 q 543 739 644 739 m 392 1125 l 218 885 l 355 885 l 476 1063 l 597 885 l 734 885 l 560 1125 l 392 1125 "},"ċ":{"ha":861,"x_min":108,"x_max":758,"o":"m 543 739 q 322 699 420 739 q 166 572 224 658 q 108 351 108 485 q 155 152 108 235 q 291 26 201 69 q 509 -17 381 -17 q 751 28 642 -17 l 758 153 q 538 119 634 119 q 339 185 413 119 q 264 384 264 251 q 285 497 264 455 q 335 559 306 538 q 397 585 360 577 q 492 594 433 594 q 619 587 548 594 q 757 567 690 580 l 744 712 q 543 739 644 739 m 476 883 q 554 911 524 883 q 584 984 584 938 q 554 1057 584 1030 q 476 1083 524 1083 q 397 1057 427 1083 q 367 984 367 1030 q 397 911 367 938 q 476 883 427 883 "},"d":{"ha":861,"x_min":69,"x_max":760,"o":"m 69 325 q 102 143 69 220 q 200 25 135 67 q 356 -16 265 -16 q 594 78 488 -16 l 613 78 l 613 0 l 760 0 l 760 1063 l 603 1063 l 603 718 q 460 738 534 738 q 260 692 349 738 q 120 552 172 645 q 69 325 69 459 m 235 364 q 256 514 235 463 q 312 588 278 565 q 368 614 340 606 q 433 622 397 622 q 603 584 519 622 l 603 151 q 424 106 501 106 q 276 177 317 106 q 235 364 235 248 "},"ď":{"ha":861,"x_min":74,"x_max":931,"o":"m 74 325 q 105 143 74 220 q 192 25 135 67 q 331 -16 250 -16 q 440 8 392 -16 q 535 78 488 33 l 551 78 l 551 0 l 695 0 l 695 1063 l 541 1063 l 541 720 q 429 738 483 738 q 250 691 331 738 q 122 550 169 643 q 74 325 74 457 m 806 1155 l 795 901 l 903 901 l 931 1155 l 806 1155 m 229 364 q 248 513 229 463 q 298 587 266 562 q 355 613 321 604 q 426 622 388 622 q 541 594 479 622 l 541 149 q 390 106 450 106 q 265 177 301 106 q 229 364 229 249 "},"đ":{"ha":861,"x_min":69,"x_max":828,"o":"m 69 325 q 102 143 69 220 q 200 25 135 67 q 356 -16 265 -16 q 594 78 488 -16 l 613 78 l 613 0 l 760 0 l 760 872 l 828 872 l 828 962 l 760 962 l 760 1063 l 603 1063 l 603 962 l 293 962 l 293 872 l 603 872 l 603 718 q 460 738 534 738 q 260 692 349 738 q 120 552 172 645 q 69 325 69 459 m 235 364 q 256 514 235 463 q 312 588 278 565 q 368 614 340 606 q 433 622 397 622 q 603 584 519 622 l 603 151 q 424 106 501 106 q 276 177 317 106 q 235 364 235 248 "},"ð":{"ha":861,"x_min":77,"x_max":782,"o":"m 720 990 l 691 1069 l 493 993 q 410 1078 464 1025 l 273 1025 l 352 939 l 172 869 l 201 790 l 410 870 q 453 813 429 846 q 544 674 513 729 q 424 694 485 694 q 258 655 337 694 q 128 536 178 617 q 77 335 77 455 q 121 144 77 223 q 244 24 165 65 q 424 -17 322 -17 q 600 24 519 -17 q 732 153 681 64 q 782 378 782 242 q 731 640 782 518 q 592 876 680 762 l 553 925 l 720 990 m 233 351 q 252 483 233 435 q 297 549 270 531 q 417 578 340 578 q 604 533 524 578 q 629 356 629 448 q 609 203 629 256 q 562 131 590 151 q 440 101 519 101 q 308 138 354 101 q 248 229 263 175 q 233 351 233 283 "},"e":{"ha":861,"x_min":98,"x_max":763,"o":"m 326 592 q 449 626 369 626 q 576 586 534 626 q 617 465 617 546 l 617 444 l 253 444 q 280 538 259 502 q 326 592 300 574 m 98 342 q 195 75 98 167 q 479 -17 293 -17 q 726 27 608 -17 l 732 145 q 522 110 630 110 q 366 140 424 110 q 282 224 308 171 q 251 354 256 278 l 763 354 l 763 442 q 695 659 763 578 q 483 739 628 739 q 293 696 381 739 q 151 563 205 653 q 98 342 98 474 "},"é":{"ha":861,"x_min":98,"x_max":763,"o":"m 326 592 q 449 626 369 626 q 576 586 534 626 q 617 465 617 546 l 617 444 l 253 444 q 280 538 259 502 q 326 592 300 574 m 510 885 l 376 885 l 516 1125 l 685 1125 l 510 885 m 98 342 q 195 75 98 167 q 479 -17 293 -17 q 726 27 608 -17 l 732 145 q 522 110 630 110 q 366 140 424 110 q 282 224 308 171 q 251 354 256 278 l 763 354 l 763 442 q 695 659 763 578 q 483 739 628 739 q 293 696 381 739 q 151 563 205 653 q 98 342 98 474 "},"ĕ":{"ha":861,"x_min":98,"x_max":763,"o":"m 326 592 q 449 626 369 626 q 576 586 534 626 q 617 465 617 546 l 617 444 l 253 444 q 280 538 259 502 q 326 592 300 574 m 327 1125 l 227 1125 q 277 942 222 1006 q 444 879 333 879 q 611 942 556 879 q 663 1125 667 1005 l 563 1125 q 534 1017 563 1054 q 444 980 506 980 q 355 1017 383 980 q 327 1125 327 1054 m 98 342 q 195 75 98 167 q 479 -17 293 -17 q 726 27 608 -17 l 732 145 q 522 110 630 110 q 366 140 424 110 q 282 224 308 171 q 251 354 256 278 l 763 354 l 763 442 q 695 659 763 578 q 483 739 628 739 q 293 696 381 739 q 151 563 205 653 q 98 342 98 474 "},"ě":{"ha":861,"x_min":98,"x_max":763,"o":"m 326 592 q 449 626 369 626 q 576 586 534 626 q 617 465 617 546 l 617 444 l 253 444 q 280 538 259 502 q 326 592 300 574 m 361 885 l 187 1125 l 324 1125 l 444 947 l 565 1125 l 703 1125 l 528 885 l 361 885 m 98 342 q 195 75 98 167 q 479 -17 293 -17 q 726 27 608 -17 l 732 145 q 522 110 630 110 q 366 140 424 110 q 282 224 308 171 q 251 354 256 278 l 763 354 l 763 442 q 695 659 763 578 q 483 739 628 739 q 293 696 381 739 q 151 563 205 653 q 98 342 98 474 "},"ê":{"ha":861,"x_min":98,"x_max":763,"o":"m 326 592 q 449 626 369 626 q 576 586 534 626 q 617 465 617 546 l 617 444 l 253 444 q 280 538 259 502 q 326 592 300 574 m 361 1125 l 187 885 l 324 885 l 444 1063 l 565 885 l 703 885 l 528 1125 l 361 1125 m 98 342 q 195 75 98 167 q 479 -17 293 -17 q 726 27 608 -17 l 732 145 q 522 110 630 110 q 366 140 424 110 q 282 224 308 171 q 251 354 256 278 l 763 354 l 763 442 q 695 659 763 578 q 483 739 628 739 q 293 696 381 739 q 151 563 205 653 q 98 342 98 474 "},"ë":{"ha":861,"x_min":98,"x_max":763,"o":"m 326 592 q 449 626 369 626 q 576 586 534 626 q 617 465 617 546 l 617 444 l 253 444 q 280 538 259 502 q 326 592 300 574 m 262 882 q 333 909 306 882 q 360 983 360 937 q 333 1055 360 1028 q 262 1081 306 1081 q 190 1055 217 1081 q 163 983 163 1028 q 190 909 163 937 q 262 882 217 882 m 628 882 q 699 909 672 882 q 726 983 726 937 q 699 1055 726 1028 q 628 1081 672 1081 q 556 1055 583 1081 q 528 983 528 1028 q 556 909 528 937 q 628 882 583 882 m 98 342 q 195 75 98 167 q 479 -17 293 -17 q 726 27 608 -17 l 732 145 q 522 110 630 110 q 366 140 424 110 q 282 224 308 171 q 251 354 256 278 l 763 354 l 763 442 q 695 659 763 578 q 483 739 628 739 q 293 696 381 739 q 151 563 205 653 q 98 342 98 474 "},"ė":{"ha":861,"x_min":98,"x_max":763,"o":"m 326 592 q 449 626 369 626 q 576 586 534 626 q 617 465 617 546 l 617 444 l 253 444 q 280 538 259 502 q 326 592 300 574 m 444 883 q 523 911 493 883 q 553 984 553 938 q 523 1057 553 1030 q 444 1083 493 1083 q 366 1057 396 1083 q 336 984 336 1030 q 366 911 336 938 q 444 883 396 883 m 98 342 q 195 75 98 167 q 479 -17 293 -17 q 726 27 608 -17 l 732 145 q 522 110 630 110 q 366 140 424 110 q 282 224 308 171 q 251 354 256 278 l 763 354 l 763 442 q 695 659 763 578 q 483 739 628 739 q 293 696 381 739 q 151 563 205 653 q 98 342 98 474 "},"ẹ":{"ha":861,"x_min":98,"x_max":763,"o":"m 326 592 q 449 626 369 626 q 576 586 534 626 q 617 465 617 546 l 617 444 l 253 444 q 280 538 259 502 q 326 592 300 574 m 431 -360 q 509 -333 479 -360 q 539 -260 539 -306 q 509 -187 539 -214 q 431 -160 479 -160 q 352 -187 382 -160 q 322 -260 322 -214 q 352 -333 322 -306 q 431 -360 382 -360 m 98 342 q 195 75 98 167 q 479 -17 293 -17 q 726 27 608 -17 l 732 145 q 522 110 630 110 q 366 140 424 110 q 282 224 308 171 q 251 354 256 278 l 763 354 l 763 442 q 695 659 763 578 q 483 739 628 739 q 293 696 381 739 q 151 563 205 653 q 98 342 98 474 "},"è":{"ha":861,"x_min":98,"x_max":763,"o":"m 326 592 q 449 626 369 626 q 576 586 534 626 q 617 465 617 546 l 617 444 l 253 444 q 280 538 259 502 q 326 592 300 574 m 379 885 l 514 885 l 373 1125 l 205 1125 l 379 885 m 98 342 q 195 75 98 167 q 479 -17 293 -17 q 726 27 608 -17 l 732 145 q 522 110 630 110 q 366 140 424 110 q 282 224 308 171 q 251 354 256 278 l 763 354 l 763 442 q 695 659 763 578 q 483 739 628 739 q 293 696 381 739 q 151 563 205 653 q 98 342 98 474 "},"ē":{"ha":861,"x_min":98,"x_max":763,"o":"m 326 592 q 449 626 369 626 q 576 586 534 626 q 617 465 617 546 l 617 444 l 253 444 q 280 538 259 502 q 326 592 300 574 m 672 916 l 672 1018 l 217 1018 l 217 916 l 672 916 m 98 342 q 195 75 98 167 q 479 -17 293 -17 q 726 27 608 -17 l 732 145 q 522 110 630 110 q 366 140 424 110 q 282 224 308 171 q 251 354 256 278 l 763 354 l 763 442 q 695 659 763 578 q 483 739 628 739 q 293 696 381 739 q 151 563 205 653 q 98 342 98 474 "},"ę":{"ha":861,"x_min":98,"x_max":763,"o":"m 326 592 q 449 626 369 626 q 576 586 534 626 q 617 465 617 546 l 617 444 l 253 444 q 280 538 259 502 q 326 592 300 574 m 98 342 q 181 90 98 181 q 422 -15 263 -1 q 352 -96 375 -57 q 330 -177 330 -135 q 369 -265 330 -231 q 507 -299 409 -299 l 564 -299 l 564 -198 l 544 -198 q 484 -184 502 -198 q 466 -144 466 -170 q 487 -84 466 -117 q 556 -12 508 -52 q 726 27 644 -3 l 732 145 q 522 110 630 110 q 366 140 424 110 q 282 224 308 171 q 251 354 256 278 l 763 354 l 763 442 q 695 659 763 578 q 483 739 628 739 q 293 696 381 739 q 151 563 205 653 q 98 342 98 474 "},"ẽ":{"ha":861,"x_min":98,"x_max":763,"o":"m 326 592 q 449 626 369 626 q 576 586 534 626 q 617 465 617 546 l 617 444 l 253 444 q 280 538 259 502 q 326 592 300 574 m 320 1122 q 217 1065 258 1122 q 166 907 176 1009 l 270 877 q 298 968 278 935 q 347 1000 317 1000 q 384 987 367 1000 q 428 945 401 974 q 469 905 452 920 q 510 878 487 889 q 562 867 534 867 q 666 924 625 867 q 717 1082 707 980 l 613 1112 q 586 1021 606 1053 q 537 989 567 989 q 499 1002 517 989 q 454 1044 481 1016 q 413 1084 431 1069 q 372 1110 395 1099 q 320 1122 348 1122 m 98 342 q 195 75 98 167 q 479 -17 293 -17 q 726 27 608 -17 l 732 145 q 522 110 630 110 q 366 140 424 110 q 282 224 308 171 q 251 354 256 278 l 763 354 l 763 442 q 695 659 763 578 q 483 739 628 739 q 293 696 381 739 q 151 563 205 653 q 98 342 98 474 "},"ə":{"ha":861,"x_min":99,"x_max":764,"o":"m 535 130 q 413 97 492 97 q 286 136 328 97 q 244 258 244 176 l 245 278 l 609 278 q 535 130 597 176 m 99 368 l 99 281 q 166 64 99 144 q 378 -17 234 -17 q 569 26 481 -17 q 710 159 657 69 q 764 381 764 249 q 666 647 764 555 q 383 739 569 739 q 135 696 255 739 l 130 578 q 339 613 234 613 q 495 582 438 613 q 579 498 553 551 q 610 368 605 444 l 99 368 "},"f":{"ha":861,"x_min":71,"x_max":825,"o":"m 825 968 l 800 1109 q 676 1123 741 1123 q 403 1020 494 1123 q 313 735 313 917 l 313 728 l 71 672 l 71 601 l 313 601 l 313 121 l 126 121 l 144 0 l 684 0 l 702 121 l 472 121 l 472 601 l 781 601 l 806 722 l 472 722 l 472 853 q 480 919 472 895 q 503 958 488 944 q 550 983 519 974 q 627 992 581 992 q 825 968 740 992 "},"g":{"ha":861,"x_min":40,"x_max":815,"o":"m 345 259 l 376 258 q 541 288 466 258 q 661 373 617 317 q 706 499 706 428 q 649 629 706 575 l 815 639 l 792 748 q 693 728 744 745 q 603 689 642 710 q 410 740 524 740 q 243 708 318 740 q 126 619 169 676 q 83 489 83 562 q 131 357 83 415 q 261 274 179 299 l 246 239 l 235 217 q 211 161 220 185 q 202 118 202 138 q 229 64 202 88 l 151 16 q 66 -57 93 -21 q 40 -134 40 -92 q 83 -228 40 -190 q 200 -283 126 -265 q 368 -301 274 -301 q 590 -272 490 -301 q 748 -187 690 -243 q 807 -52 807 -131 q 780 35 807 2 q 714 82 753 67 q 626 106 676 97 l 360 153 q 333 164 342 157 q 324 185 324 170 q 327 205 324 192 l 345 259 m 559 478 q 531 386 559 408 q 419 360 500 360 q 276 401 320 360 q 232 515 232 442 q 260 607 232 583 q 372 632 293 632 q 515 592 471 632 q 559 478 559 551 m 191 -103 q 222 -30 191 -62 q 301 30 252 2 q 342 20 317 25 l 549 -17 q 635 -44 607 -27 q 664 -90 664 -61 q 628 -148 664 -124 q 532 -186 593 -173 q 397 -199 472 -199 q 246 -176 301 -199 q 191 -103 191 -152 "},"ğ":{"ha":861,"x_min":40,"x_max":815,"o":"m 345 259 l 376 258 q 541 288 466 258 q 661 373 617 317 q 706 499 706 428 q 649 629 706 575 l 815 639 l 792 748 q 693 728 744 745 q 603 689 642 710 q 410 740 524 740 q 243 708 318 740 q 126 619 169 676 q 83 489 83 562 q 131 357 83 415 q 261 274 179 299 l 246 239 l 235 217 q 211 161 220 185 q 202 118 202 138 q 229 64 202 88 l 151 16 q 66 -57 93 -21 q 40 -134 40 -92 q 83 -228 40 -190 q 200 -283 126 -265 q 368 -301 274 -301 q 590 -272 490 -301 q 748 -187 690 -243 q 807 -52 807 -131 q 780 35 807 2 q 714 82 753 67 q 626 106 676 97 l 360 153 q 333 164 342 157 q 324 185 324 170 q 327 205 324 192 l 345 259 m 559 478 q 531 386 559 408 q 419 360 500 360 q 276 401 320 360 q 232 515 232 442 q 260 607 232 583 q 372 632 293 632 q 515 592 471 632 q 559 478 559 551 m 313 1125 l 213 1125 q 264 942 208 1006 q 431 879 319 879 q 598 942 542 879 q 649 1125 653 1005 l 549 1125 q 520 1017 549 1054 q 431 980 492 980 q 341 1017 369 980 q 313 1125 313 1054 m 191 -103 q 222 -30 191 -62 q 301 30 252 2 q 342 20 317 25 l 549 -17 q 635 -44 607 -27 q 664 -90 664 -61 q 628 -148 664 -124 q 532 -186 593 -173 q 397 -199 472 -199 q 246 -176 301 -199 q 191 -103 191 -152 "},"ǧ":{"ha":861,"x_min":40,"x_max":815,"o":"m 345 259 l 376 258 q 541 288 466 258 q 661 373 617 317 q 706 499 706 428 q 649 629 706 575 l 815 639 l 792 748 q 693 728 744 745 q 603 689 642 710 q 410 740 524 740 q 243 708 318 740 q 126 619 169 676 q 83 489 83 562 q 131 357 83 415 q 261 274 179 299 l 246 239 l 235 217 q 211 161 220 185 q 202 118 202 138 q 229 64 202 88 l 151 16 q 66 -57 93 -21 q 40 -134 40 -92 q 83 -228 40 -190 q 200 -283 126 -265 q 368 -301 274 -301 q 590 -272 490 -301 q 748 -187 690 -243 q 807 -52 807 -131 q 780 35 807 2 q 714 82 753 67 q 626 106 676 97 l 360 153 q 333 164 342 157 q 324 185 324 170 q 327 205 324 192 l 345 259 m 559 478 q 531 386 559 408 q 419 360 500 360 q 276 401 320 360 q 232 515 232 442 q 260 607 232 583 q 372 632 293 632 q 515 592 471 632 q 559 478 559 551 m 347 885 l 173 1125 l 310 1125 l 431 947 l 551 1125 l 689 1125 l 515 885 l 347 885 m 191 -103 q 222 -30 191 -62 q 301 30 252 2 q 342 20 317 25 l 549 -17 q 635 -44 607 -27 q 664 -90 664 -61 q 628 -148 664 -124 q 532 -186 593 -173 q 397 -199 472 -199 q 246 -176 301 -199 q 191 -103 191 -152 "},"ĝ":{"ha":861,"x_min":40,"x_max":815,"o":"m 345 259 l 376 258 q 541 288 466 258 q 661 373 617 317 q 706 499 706 428 q 649 629 706 575 l 815 639 l 792 748 q 693 728 744 745 q 603 689 642 710 q 410 740 524 740 q 243 708 318 740 q 126 619 169 676 q 83 489 83 562 q 131 357 83 415 q 261 274 179 299 l 246 239 l 235 217 q 211 161 220 185 q 202 118 202 138 q 229 64 202 88 l 151 16 q 66 -57 93 -21 q 40 -134 40 -92 q 83 -228 40 -190 q 200 -283 126 -265 q 368 -301 274 -301 q 590 -272 490 -301 q 748 -187 690 -243 q 807 -52 807 -131 q 780 35 807 2 q 714 82 753 67 q 626 106 676 97 l 360 153 q 333 164 342 157 q 324 185 324 170 q 327 205 324 192 l 345 259 m 559 478 q 531 386 559 408 q 419 360 500 360 q 276 401 320 360 q 232 515 232 442 q 260 607 232 583 q 372 632 293 632 q 515 592 471 632 q 559 478 559 551 m 347 1125 l 173 885 l 310 885 l 431 1063 l 551 885 l 689 885 l 515 1125 l 347 1125 m 191 -103 q 222 -30 191 -62 q 301 30 252 2 q 342 20 317 25 l 549 -17 q 635 -44 607 -27 q 664 -90 664 -61 q 628 -148 664 -124 q 532 -186 593 -173 q 397 -199 472 -199 q 246 -176 301 -199 q 191 -103 191 -152 "},"ģ":{"ha":861,"x_min":40,"x_max":815,"o":"m 345 259 l 376 258 q 541 288 466 258 q 661 373 617 317 q 706 499 706 428 q 649 629 706 575 l 815 639 l 792 748 q 693 728 744 745 q 603 689 642 710 q 410 740 524 740 q 243 708 318 740 q 126 619 169 676 q 83 489 83 562 q 131 357 83 415 q 261 274 179 299 l 246 239 l 235 217 q 211 161 220 185 q 202 118 202 138 q 229 64 202 88 l 151 16 q 66 -57 93 -21 q 40 -134 40 -92 q 83 -228 40 -190 q 200 -283 126 -265 q 368 -301 274 -301 q 590 -272 490 -301 q 748 -187 690 -243 q 807 -52 807 -131 q 780 35 807 2 q 714 82 753 67 q 626 106 676 97 l 360 153 q 333 164 342 157 q 324 185 324 170 q 327 205 324 192 l 345 259 m 559 478 q 531 386 559 408 q 419 360 500 360 q 276 401 320 360 q 232 515 232 442 q 260 607 232 583 q 372 632 293 632 q 515 592 471 632 q 559 478 559 551 m 432 1079 q 413 1078 426 1079 q 461 1138 428 1112 q 549 1194 494 1163 l 499 1256 q 367 1157 419 1218 q 315 1016 315 1097 q 348 918 315 951 q 433 884 381 884 q 510 910 480 884 q 540 981 540 936 q 510 1052 540 1026 q 432 1079 480 1079 m 191 -103 q 222 -30 191 -62 q 301 30 252 2 q 342 20 317 25 l 549 -17 q 635 -44 607 -27 q 664 -90 664 -61 q 628 -148 664 -124 q 532 -186 593 -173 q 397 -199 472 -199 q 246 -176 301 -199 q 191 -103 191 -152 "},"ġ":{"ha":861,"x_min":40,"x_max":815,"o":"m 345 259 l 376 258 q 541 288 466 258 q 661 373 617 317 q 706 499 706 428 q 649 629 706 575 l 815 639 l 792 748 q 693 728 744 745 q 603 689 642 710 q 410 740 524 740 q 243 708 318 740 q 126 619 169 676 q 83 489 83 562 q 131 357 83 415 q 261 274 179 299 l 246 239 l 235 217 q 211 161 220 185 q 202 118 202 138 q 229 64 202 88 l 151 16 q 66 -57 93 -21 q 40 -134 40 -92 q 83 -228 40 -190 q 200 -283 126 -265 q 368 -301 274 -301 q 590 -272 490 -301 q 748 -187 690 -243 q 807 -52 807 -131 q 780 35 807 2 q 714 82 753 67 q 626 106 676 97 l 360 153 q 333 164 342 157 q 324 185 324 170 q 327 205 324 192 l 345 259 m 559 478 q 531 386 559 408 q 419 360 500 360 q 276 401 320 360 q 232 515 232 442 q 260 607 232 583 q 372 632 293 632 q 515 592 471 632 q 559 478 559 551 m 431 883 q 509 911 479 883 q 539 984 539 938 q 509 1057 539 1030 q 431 1083 479 1083 q 352 1057 382 1083 q 322 984 322 1030 q 352 911 322 938 q 431 883 382 883 m 191 -103 q 222 -30 191 -62 q 301 30 252 2 q 342 20 317 25 l 549 -17 q 635 -44 607 -27 q 664 -90 664 -61 q 628 -148 664 -124 q 532 -186 593 -173 q 397 -199 472 -199 q 246 -176 301 -199 q 191 -103 191 -152 "},"h":{"ha":861,"x_min":117,"x_max":744,"o":"m 585 0 l 744 0 l 741 549 q 688 688 740 638 q 540 738 635 738 q 399 709 465 738 q 281 628 332 679 l 274 628 l 274 1063 l 117 1063 l 117 0 l 274 0 l 274 547 q 470 615 376 615 q 555 588 526 615 q 585 501 585 562 l 585 0 "},"ħ":{"ha":861,"x_min":33,"x_max":744,"o":"m 585 0 l 744 0 l 741 549 q 688 688 740 638 q 540 738 635 738 q 399 709 465 738 q 281 628 332 679 l 274 628 l 274 872 l 568 872 l 568 962 l 274 962 l 274 1063 l 117 1063 l 117 962 l 33 962 l 33 872 l 117 872 l 117 0 l 274 0 l 274 547 q 470 615 376 615 q 555 588 526 615 q 585 501 585 562 l 585 0 "},"ĥ":{"ha":861,"x_min":-60,"x_max":744,"o":"m 585 0 l 744 0 l 741 549 q 688 688 740 638 q 540 738 635 738 q 399 709 465 738 q 281 628 332 679 l 274 628 l 274 1063 l 117 1063 l 117 0 l 274 0 l 274 547 q 470 615 376 615 q 555 588 526 615 q 585 501 585 562 l 585 0 m 110 1355 l -60 1184 l 83 1184 l 197 1306 l 311 1184 l 456 1184 l 285 1355 l 110 1355 "},"i":{"ha":861,"x_min":105,"x_max":744,"o":"m 349 598 l 349 186 q 369 68 349 113 q 432 4 390 24 q 545 -16 475 -16 q 733 21 643 -16 l 744 140 q 607 114 662 114 q 546 125 567 114 q 516 158 524 136 q 507 215 507 180 l 507 722 l 119 722 l 105 598 l 349 598 m 403 883 q 482 911 452 883 q 512 984 512 938 q 482 1057 512 1030 q 403 1083 452 1083 q 325 1057 355 1083 q 295 984 295 1030 q 325 911 295 938 q 403 883 355 883 "},"ı":{"ha":861,"x_min":105,"x_max":744,"o":"m 349 598 l 349 186 q 369 68 349 113 q 432 4 390 24 q 545 -16 475 -16 q 733 21 643 -16 l 744 140 q 607 114 662 114 q 546 125 567 114 q 516 158 524 136 q 507 215 507 180 l 507 722 l 119 722 l 105 598 l 349 598 "},"í":{"ha":861,"x_min":105,"x_max":744,"o":"m 349 598 l 349 186 q 369 68 349 113 q 432 4 390 24 q 545 -16 475 -16 q 733 21 643 -16 l 744 140 q 607 114 662 114 q 546 125 567 114 q 516 158 524 136 q 507 215 507 180 l 507 722 l 119 722 l 105 598 l 349 598 m 469 885 l 335 885 l 475 1125 l 644 1125 l 469 885 "},"ĭ":{"ha":861,"x_min":105,"x_max":744,"o":"m 349 598 l 349 186 q 369 68 349 113 q 432 4 390 24 q 545 -16 475 -16 q 733 21 643 -16 l 744 140 q 607 114 662 114 q 546 125 567 114 q 516 158 524 136 q 507 215 507 180 l 507 722 l 119 722 l 105 598 l 349 598 m 286 1125 l 186 1125 q 236 942 181 1006 q 403 879 292 879 q 570 942 515 879 q 622 1125 626 1005 l 522 1125 q 493 1017 522 1054 q 403 980 465 980 q 314 1017 342 980 q 286 1125 286 1054 "},"î":{"ha":861,"x_min":105,"x_max":744,"o":"m 349 598 l 349 186 q 369 68 349 113 q 432 4 390 24 q 545 -16 475 -16 q 733 21 643 -16 l 744 140 q 607 114 662 114 q 546 125 567 114 q 516 158 524 136 q 507 215 507 180 l 507 722 l 119 722 l 105 598 l 349 598 m 320 1125 l 146 885 l 283 885 l 403 1063 l 524 885 l 662 885 l 488 1125 l 320 1125 "},"ï":{"ha":861,"x_min":105,"x_max":744,"o":"m 349 598 l 349 186 q 369 68 349 113 q 432 4 390 24 q 545 -16 475 -16 q 733 21 643 -16 l 744 140 q 607 114 662 114 q 546 125 567 114 q 516 158 524 136 q 507 215 507 180 l 507 722 l 119 722 l 105 598 l 349 598 m 221 882 q 292 909 265 882 q 319 983 319 937 q 292 1055 319 1028 q 221 1081 265 1081 q 149 1055 176 1081 q 122 983 122 1028 q 149 909 122 937 q 221 882 176 882 m 587 882 q 658 909 631 882 q 685 983 685 937 q 658 1055 685 1028 q 587 1081 631 1081 q 515 1055 542 1081 q 488 983 488 1028 q 515 909 488 937 q 587 882 542 882 "},"ị":{"ha":861,"x_min":105,"x_max":744,"o":"m 349 598 l 349 186 q 369 68 349 113 q 432 4 390 24 q 545 -16 475 -16 q 733 21 643 -16 l 744 140 q 607 114 662 114 q 546 125 567 114 q 516 158 524 136 q 507 215 507 180 l 507 722 l 119 722 l 105 598 l 349 598 m 403 883 q 482 911 452 883 q 512 984 512 938 q 482 1057 512 1030 q 403 1083 452 1083 q 325 1057 355 1083 q 295 984 295 1030 q 325 911 295 938 q 403 883 355 883 m 431 -360 q 509 -333 479 -360 q 539 -260 539 -306 q 509 -187 539 -214 q 431 -160 479 -160 q 352 -187 382 -160 q 322 -260 322 -214 q 352 -333 322 -306 q 431 -360 382 -360 "},"ì":{"ha":861,"x_min":105,"x_max":744,"o":"m 349 598 l 349 186 q 369 68 349 113 q 432 4 390 24 q 545 -16 475 -16 q 733 21 643 -16 l 744 140 q 607 114 662 114 q 546 125 567 114 q 516 158 524 136 q 507 215 507 180 l 507 722 l 119 722 l 105 598 l 349 598 m 338 885 l 473 885 l 332 1125 l 164 1125 l 338 885 "},"ī":{"ha":861,"x_min":105,"x_max":744,"o":"m 349 598 l 349 186 q 369 68 349 113 q 432 4 390 24 q 545 -16 475 -16 q 733 21 643 -16 l 744 140 q 607 114 662 114 q 546 125 567 114 q 516 158 524 136 q 507 215 507 180 l 507 722 l 119 722 l 105 598 l 349 598 m 631 916 l 631 1018 l 176 1018 l 176 916 l 631 916 "},"į":{"ha":861,"x_min":105,"x_max":744,"o":"m 349 598 l 349 186 q 387 40 349 87 q 510 -15 425 -7 q 445 -92 466 -55 q 424 -171 424 -130 q 464 -258 424 -224 q 601 -292 503 -292 l 658 -292 l 658 -192 l 638 -192 q 578 -178 597 -192 q 560 -138 560 -164 q 582 -78 560 -110 q 653 -4 603 -45 q 733 21 692 5 l 744 140 q 607 114 662 114 q 546 125 567 114 q 516 158 524 136 q 507 215 507 180 l 507 722 l 119 722 l 105 598 l 349 598 m 403 883 q 482 911 452 883 q 512 984 512 938 q 482 1057 512 1030 q 403 1083 452 1083 q 325 1057 355 1083 q 295 984 295 1030 q 325 911 295 938 q 403 883 355 883 "},"ĳ":{"ha":861,"x_min":59,"x_max":765,"o":"m 239 883 q 317 911 288 883 q 347 984 347 938 q 317 1057 347 1030 q 239 1083 288 1083 q 160 1057 190 1083 q 131 984 131 1030 q 160 911 131 938 q 239 883 190 883 m 759 722 l 487 722 l 469 598 l 599 598 l 599 -28 q 560 -142 599 -111 q 501 -168 540 -158 q 416 -178 461 -178 q 232 -154 317 -178 l 257 -294 q 320 -305 289 -301 q 391 -309 351 -309 q 594 -275 513 -309 q 717 -163 675 -240 q 759 40 759 -86 l 759 722 m 657 883 q 735 911 706 883 q 765 984 765 938 q 735 1057 765 1030 q 657 1083 706 1083 q 578 1057 608 1083 q 549 984 549 1030 q 578 911 549 938 q 657 883 608 883 m 189 598 l 188 170 q 205 61 188 102 q 258 2 222 21 q 351 -16 293 -16 q 477 12 419 -16 l 486 135 q 444 124 463 128 q 406 119 426 119 q 357 135 372 119 q 343 188 343 150 l 346 722 l 73 722 l 59 598 l 189 598 "},"j":{"ha":861,"x_min":84,"x_max":641,"o":"m 635 722 l 131 722 l 113 598 l 476 598 l 476 -28 q 436 -142 476 -110 q 372 -168 415 -158 q 267 -178 329 -178 q 84 -154 169 -178 l 109 -294 q 242 -309 174 -309 q 463 -275 377 -309 q 592 -164 549 -240 q 635 40 635 -87 l 635 722 m 533 883 q 611 911 581 883 q 641 984 641 938 q 611 1057 641 1030 q 533 1083 581 1083 q 454 1057 484 1083 q 424 984 424 1030 q 454 911 424 938 q 533 883 484 883 "},"ȷ":{"ha":861,"x_min":84,"x_max":635,"o":"m 635 722 l 131 722 l 113 598 l 476 598 l 476 -28 q 436 -142 476 -110 q 372 -168 415 -158 q 267 -178 329 -178 q 84 -154 169 -178 l 109 -294 q 242 -309 174 -309 q 463 -275 377 -309 q 592 -164 549 -240 q 635 40 635 -87 l 635 722 "},"ĵ":{"ha":861,"x_min":84,"x_max":791,"o":"m 635 722 l 131 722 l 113 598 l 476 598 l 476 -28 q 436 -142 476 -110 q 372 -168 415 -158 q 267 -178 329 -178 q 84 -154 169 -178 l 109 -294 q 242 -309 174 -309 q 463 -275 377 -309 q 592 -164 549 -240 q 635 40 635 -87 l 635 722 m 449 1125 l 275 885 l 412 885 l 533 1063 l 653 885 l 791 885 l 617 1125 l 449 1125 "},"k":{"ha":861,"x_min":117,"x_max":844,"o":"m 274 1063 l 117 1063 l 117 0 l 274 0 l 274 324 l 392 324 q 527 168 465 247 q 649 0 590 90 l 844 0 q 687 211 769 116 q 513 398 605 307 l 513 407 q 664 561 597 488 q 796 722 731 635 l 621 722 q 389 448 527 588 l 274 448 l 274 1063 "},"ķ":{"ha":861,"x_min":117,"x_max":844,"o":"m 274 1063 l 117 1063 l 117 0 l 274 0 l 274 324 l 392 324 q 527 168 465 247 q 649 0 590 90 l 844 0 q 687 211 769 116 q 513 398 605 307 l 513 407 q 664 561 597 488 q 796 722 731 635 l 621 722 q 389 448 527 588 l 274 448 l 274 1063 m 429 -356 q 448 -354 435 -356 q 400 -415 433 -389 q 313 -471 367 -441 l 363 -532 q 494 -434 442 -495 q 546 -292 546 -373 q 513 -194 546 -228 q 428 -160 481 -160 q 352 -186 382 -160 q 322 -258 322 -212 q 352 -329 322 -303 q 429 -356 382 -356 "},"ĸ":{"ha":861,"x_min":117,"x_max":844,"o":"m 117 0 l 274 0 l 274 324 l 392 324 q 527 168 465 247 q 649 0 590 90 l 844 0 q 687 211 769 116 q 513 398 605 307 l 513 407 q 664 561 597 488 q 796 722 731 635 l 621 722 q 389 448 527 588 l 274 448 l 274 723 l 117 723 l 117 0 "},"l":{"ha":861,"x_min":105,"x_max":744,"o":"m 349 938 l 349 186 q 369 68 349 113 q 432 4 390 24 q 545 -16 475 -16 q 733 21 643 -16 l 744 140 q 607 114 662 114 q 546 125 567 114 q 516 158 524 136 q 507 215 507 180 l 507 1063 l 119 1063 l 105 938 l 349 938 "},"ĺ":{"ha":861,"x_min":105,"x_max":744,"o":"m 349 938 l 349 186 q 369 68 349 113 q 432 4 390 24 q 545 -16 475 -16 q 733 21 643 -16 l 744 140 q 607 114 662 114 q 546 125 567 114 q 516 158 524 136 q 507 215 507 180 l 507 1063 l 119 1063 l 105 938 l 349 938 m 497 1184 l 362 1184 l 502 1354 l 671 1354 l 497 1184 "},"ľ":{"ha":861,"x_min":105,"x_max":785,"o":"m 349 938 l 349 186 q 369 68 349 113 q 432 4 390 24 q 545 -16 475 -16 q 733 21 643 -16 l 744 140 q 607 114 662 114 q 546 125 567 114 q 516 158 524 136 q 507 215 507 180 l 507 1063 l 119 1063 l 105 938 l 349 938 m 649 1155 l 637 901 l 756 901 l 785 1155 l 649 1155 "},"ļ":{"ha":861,"x_min":105,"x_max":744,"o":"m 349 938 l 349 186 q 369 68 349 113 q 432 4 390 24 q 545 -16 475 -16 q 733 21 643 -16 l 744 140 q 607 114 662 114 q 546 125 567 114 q 516 158 524 136 q 507 215 507 180 l 507 1063 l 119 1063 l 105 938 l 349 938 m 531 -364 q 550 -362 538 -364 q 502 -422 535 -397 q 415 -478 469 -448 l 465 -540 q 596 -442 544 -503 q 648 -301 648 -381 q 615 -202 648 -236 q 531 -169 583 -169 q 454 -195 484 -169 q 424 -266 424 -221 q 454 -337 424 -310 q 531 -364 484 -364 "},"ŀ":{"ha":861,"x_min":105,"x_max":854,"o":"m 763 484 q 829 509 803 484 q 854 576 854 534 q 829 642 854 617 q 763 666 804 666 q 697 642 722 666 q 672 576 672 617 q 697 509 672 534 q 763 484 722 484 m 349 938 l 349 186 q 369 68 349 113 q 432 4 390 24 q 545 -16 475 -16 q 733 21 643 -16 l 744 140 q 607 114 662 114 q 546 125 567 114 q 516 158 524 136 q 507 215 507 180 l 507 1063 l 119 1063 l 105 938 l 349 938 "},"ł":{"ha":861,"x_min":105,"x_max":744,"o":"m 702 660 l 702 797 l 507 702 l 507 1063 l 119 1063 l 105 938 l 349 938 l 349 625 l 159 533 l 159 396 l 349 488 l 349 186 q 369 68 349 113 q 432 4 390 24 q 545 -16 475 -16 q 733 21 643 -16 l 744 140 q 607 114 662 114 q 546 125 567 114 q 516 158 524 136 q 507 215 507 180 l 507 565 l 702 660 "},"m":{"ha":861,"x_min":94,"x_max":767,"o":"m 361 0 l 499 0 l 497 570 q 580 608 540 608 q 630 547 630 608 l 630 0 l 767 0 l 765 601 q 738 705 765 672 q 656 738 710 738 q 565 708 603 738 q 502 628 526 678 l 496 628 q 464 711 491 685 q 388 738 438 738 q 294 708 334 738 q 231 628 255 678 l 223 628 l 223 722 l 94 722 l 94 0 l 231 0 l 231 571 q 312 608 273 608 q 361 547 361 608 l 361 0 "},"n":{"ha":861,"x_min":117,"x_max":744,"o":"m 585 0 l 744 0 l 741 549 q 688 688 740 638 q 540 738 635 738 q 394 708 464 738 q 274 628 324 678 l 266 628 l 266 722 l 117 722 l 117 0 l 274 0 l 274 547 q 470 615 376 615 q 555 588 526 615 q 585 501 585 562 l 585 0 "},"ń":{"ha":861,"x_min":117,"x_max":744,"o":"m 585 0 l 744 0 l 741 549 q 688 688 740 638 q 540 738 635 738 q 394 708 464 738 q 274 628 324 678 l 266 628 l 266 722 l 117 722 l 117 0 l 274 0 l 274 547 q 470 615 376 615 q 555 588 526 615 q 585 501 585 562 l 585 0 m 497 885 l 362 885 l 502 1125 l 671 1125 l 497 885 "},"ň":{"ha":861,"x_min":117,"x_max":744,"o":"m 585 0 l 744 0 l 741 549 q 688 688 740 638 q 540 738 635 738 q 394 708 464 738 q 274 628 324 678 l 266 628 l 266 722 l 117 722 l 117 0 l 274 0 l 274 547 q 470 615 376 615 q 555 588 526 615 q 585 501 585 562 l 585 0 m 347 885 l 173 1125 l 310 1125 l 431 947 l 551 1125 l 689 1125 l 515 885 l 347 885 "},"ņ":{"ha":861,"x_min":117,"x_max":744,"o":"m 585 0 l 744 0 l 741 549 q 688 688 740 638 q 540 738 635 738 q 394 708 464 738 q 274 628 324 678 l 266 628 l 266 722 l 117 722 l 117 0 l 274 0 l 274 547 q 470 615 376 615 q 555 588 526 615 q 585 501 585 562 l 585 0 m 429 -356 q 448 -354 435 -356 q 400 -415 433 -389 q 313 -471 367 -441 l 363 -532 q 494 -434 442 -495 q 546 -292 546 -373 q 513 -194 546 -228 q 428 -160 481 -160 q 352 -186 382 -160 q 322 -258 322 -212 q 352 -329 322 -303 q 429 -356 382 -356 "},"ɲ":{"ha":861,"x_min":-51,"x_max":744,"o":"m 63 -269 q 170 -240 122 -269 q 247 -155 219 -210 q 274 -25 274 -100 l 274 547 q 470 615 376 615 q 555 588 526 615 q 585 501 585 562 l 585 0 l 744 0 l 741 549 q 688 688 740 638 q 540 738 635 738 q 394 708 464 738 q 274 628 324 678 l 266 628 l 266 722 l 117 722 l 117 0 q 114 -88 117 -65 q 98 -124 111 -112 q 42 -141 80 -141 q -51 -117 -1 -141 l -31 -248 q 63 -269 18 -269 "},"ñ":{"ha":861,"x_min":117,"x_max":744,"o":"m 585 0 l 744 0 l 741 549 q 688 688 740 638 q 540 738 635 738 q 394 708 464 738 q 274 628 324 678 l 266 628 l 266 722 l 117 722 l 117 0 l 274 0 l 274 547 q 470 615 376 615 q 555 588 526 615 q 585 501 585 562 l 585 0 m 306 1122 q 203 1065 244 1122 q 152 907 162 1009 l 256 877 q 284 968 265 935 q 333 1000 303 1000 q 370 987 353 1000 q 415 945 388 974 q 456 905 438 920 q 497 878 473 889 q 548 867 520 867 q 652 924 611 867 q 703 1082 693 980 l 599 1112 q 572 1021 592 1053 q 523 989 553 989 q 485 1002 503 989 q 440 1044 467 1016 q 399 1084 417 1069 q 358 1110 381 1099 q 306 1122 334 1122 "},"ŋ":{"ha":861,"x_min":117,"x_max":744,"o":"m 531 -269 q 639 -240 591 -269 q 716 -155 688 -210 q 744 -25 744 -100 l 744 14 l 741 549 q 688 688 740 638 q 540 738 635 738 q 394 708 464 738 q 274 628 324 678 l 266 628 l 266 722 l 117 722 l 117 0 l 274 0 l 274 547 q 470 615 376 615 q 555 588 526 615 q 585 501 585 562 l 585 0 q 582 -88 585 -65 q 565 -124 578 -112 q 506 -141 547 -141 q 417 -117 467 -141 l 438 -248 q 531 -269 487 -269 "},"o":{"ha":861,"x_min":77,"x_max":782,"o":"m 424 -17 q 600 23 519 -17 q 732 148 681 63 q 782 363 782 233 q 739 567 782 482 q 618 695 695 651 q 441 739 540 739 q 264 699 347 739 q 129 574 181 660 q 77 359 77 489 q 121 156 77 240 q 244 27 165 71 q 424 -17 323 -17 m 440 101 q 308 141 353 101 q 248 243 263 181 q 233 393 233 306 q 252 528 233 479 q 297 594 270 576 q 348 616 319 608 q 418 623 378 623 q 551 583 506 623 q 611 481 597 543 q 626 332 626 419 q 607 198 626 247 q 562 131 588 149 q 440 101 519 101 "},"ó":{"ha":861,"x_min":77,"x_max":782,"o":"m 424 -17 q 600 23 519 -17 q 732 148 681 63 q 782 363 782 233 q 739 567 782 482 q 618 695 695 651 q 441 739 540 739 q 264 699 347 739 q 129 574 181 660 q 77 359 77 489 q 121 156 77 240 q 244 27 165 71 q 424 -17 323 -17 m 440 101 q 308 141 353 101 q 248 243 263 181 q 233 393 233 306 q 252 528 233 479 q 297 594 270 576 q 348 616 319 608 q 418 623 378 623 q 551 583 506 623 q 611 481 597 543 q 626 332 626 419 q 607 198 626 247 q 562 131 588 149 q 440 101 519 101 m 497 885 l 362 885 l 502 1125 l 671 1125 l 497 885 "},"ŏ":{"ha":861,"x_min":77,"x_max":782,"o":"m 424 -17 q 600 23 519 -17 q 732 148 681 63 q 782 363 782 233 q 739 567 782 482 q 618 695 695 651 q 441 739 540 739 q 264 699 347 739 q 129 574 181 660 q 77 359 77 489 q 121 156 77 240 q 244 27 165 71 q 424 -17 323 -17 m 440 101 q 308 141 353 101 q 248 243 263 181 q 233 393 233 306 q 252 528 233 479 q 297 594 270 576 q 348 616 319 608 q 418 623 378 623 q 551 583 506 623 q 611 481 597 543 q 626 332 626 419 q 607 198 626 247 q 562 131 588 149 q 440 101 519 101 m 313 1125 l 213 1125 q 264 942 208 1006 q 431 879 319 879 q 598 942 542 879 q 649 1125 653 1005 l 549 1125 q 520 1017 549 1054 q 431 980 492 980 q 341 1017 369 980 q 313 1125 313 1054 "},"ô":{"ha":861,"x_min":77,"x_max":782,"o":"m 424 -17 q 600 23 519 -17 q 732 148 681 63 q 782 363 782 233 q 739 567 782 482 q 618 695 695 651 q 441 739 540 739 q 264 699 347 739 q 129 574 181 660 q 77 359 77 489 q 121 156 77 240 q 244 27 165 71 q 424 -17 323 -17 m 440 101 q 308 141 353 101 q 248 243 263 181 q 233 393 233 306 q 252 528 233 479 q 297 594 270 576 q 348 616 319 608 q 418 623 378 623 q 551 583 506 623 q 611 481 597 543 q 626 332 626 419 q 607 198 626 247 q 562 131 588 149 q 440 101 519 101 m 347 1125 l 173 885 l 310 885 l 431 1063 l 551 885 l 689 885 l 515 1125 l 347 1125 "},"ö":{"ha":861,"x_min":77,"x_max":782,"o":"m 424 -17 q 600 23 519 -17 q 732 148 681 63 q 782 363 782 233 q 739 567 782 482 q 618 695 695 651 q 441 739 540 739 q 264 699 347 739 q 129 574 181 660 q 77 359 77 489 q 121 156 77 240 q 244 27 165 71 q 424 -17 323 -17 m 440 101 q 308 141 353 101 q 248 243 263 181 q 233 393 233 306 q 252 528 233 479 q 297 594 270 576 q 348 616 319 608 q 418 623 378 623 q 551 583 506 623 q 611 481 597 543 q 626 332 626 419 q 607 198 626 247 q 562 131 588 149 q 440 101 519 101 m 248 882 q 319 909 292 882 q 347 983 347 937 q 319 1055 347 1028 q 248 1081 292 1081 q 176 1055 203 1081 q 149 983 149 1028 q 176 909 149 937 q 248 882 203 882 m 614 882 q 685 909 658 882 q 713 983 713 937 q 685 1055 713 1028 q 614 1081 658 1081 q 542 1055 569 1081 q 515 983 515 1028 q 542 909 515 937 q 614 882 569 882 "},"ọ":{"ha":861,"x_min":77,"x_max":782,"o":"m 424 -17 q 600 23 519 -17 q 732 148 681 63 q 782 363 782 233 q 739 567 782 482 q 618 695 695 651 q 441 739 540 739 q 264 699 347 739 q 129 574 181 660 q 77 359 77 489 q 121 156 77 240 q 244 27 165 71 q 424 -17 323 -17 m 440 101 q 308 141 353 101 q 248 243 263 181 q 233 393 233 306 q 252 528 233 479 q 297 594 270 576 q 348 616 319 608 q 418 623 378 623 q 551 583 506 623 q 611 481 597 543 q 626 332 626 419 q 607 198 626 247 q 562 131 588 149 q 440 101 519 101 m 431 -360 q 509 -333 479 -360 q 539 -260 539 -306 q 509 -187 539 -214 q 431 -160 479 -160 q 352 -187 382 -160 q 322 -260 322 -214 q 352 -333 322 -306 q 431 -360 382 -360 "},"ò":{"ha":861,"x_min":77,"x_max":782,"o":"m 424 -17 q 600 23 519 -17 q 732 148 681 63 q 782 363 782 233 q 739 567 782 482 q 618 695 695 651 q 441 739 540 739 q 264 699 347 739 q 129 574 181 660 q 77 359 77 489 q 121 156 77 240 q 244 27 165 71 q 424 -17 323 -17 m 440 101 q 308 141 353 101 q 248 243 263 181 q 233 393 233 306 q 252 528 233 479 q 297 594 270 576 q 348 616 319 608 q 418 623 378 623 q 551 583 506 623 q 611 481 597 543 q 626 332 626 419 q 607 198 626 247 q 562 131 588 149 q 440 101 519 101 m 365 885 l 500 885 l 359 1125 l 191 1125 l 365 885 "},"ő":{"ha":861,"x_min":77,"x_max":782,"o":"m 424 -17 q 600 23 519 -17 q 732 148 681 63 q 782 363 782 233 q 739 567 782 482 q 618 695 695 651 q 441 739 540 739 q 264 699 347 739 q 129 574 181 660 q 77 359 77 489 q 121 156 77 240 q 244 27 165 71 q 424 -17 323 -17 m 440 101 q 308 141 353 101 q 248 243 263 181 q 233 393 233 306 q 252 528 233 479 q 297 594 270 576 q 348 616 319 608 q 418 623 378 623 q 551 583 506 623 q 611 481 597 543 q 626 332 626 419 q 607 198 626 247 q 562 131 588 149 q 440 101 519 101 m 333 1125 l 238 885 l 345 885 l 463 1125 l 333 1125 m 605 1125 l 510 885 l 617 885 l 735 1125 l 605 1125 "},"ō":{"ha":861,"x_min":77,"x_max":782,"o":"m 424 -17 q 600 23 519 -17 q 732 148 681 63 q 782 363 782 233 q 739 567 782 482 q 618 695 695 651 q 441 739 540 739 q 264 699 347 739 q 129 574 181 660 q 77 359 77 489 q 121 156 77 240 q 244 27 165 71 q 424 -17 323 -17 m 440 101 q 308 141 353 101 q 248 243 263 181 q 233 393 233 306 q 252 528 233 479 q 297 594 270 576 q 348 616 319 608 q 418 623 378 623 q 551 583 506 623 q 611 481 597 543 q 626 332 626 419 q 607 198 626 247 q 562 131 588 149 q 440 101 519 101 m 658 916 l 658 1018 l 203 1018 l 203 916 l 658 916 "},"ǫ":{"ha":861,"x_min":77,"x_max":782,"o":"m 440 101 q 308 141 353 101 q 248 243 263 181 q 233 393 233 306 q 252 528 233 479 q 297 594 270 576 q 348 616 319 608 q 418 623 378 623 q 551 583 506 623 q 611 481 597 543 q 626 332 626 419 q 607 198 626 247 q 562 131 588 149 q 440 101 519 101 m 550 0 l 545 1 q 716 124 651 34 q 782 363 782 215 q 739 567 782 482 q 618 695 695 651 q 441 739 540 739 q 264 699 347 739 q 129 574 181 660 q 77 359 77 489 q 118 163 77 246 q 232 35 159 80 q 399 -16 304 -10 q 336 -93 356 -56 q 315 -171 315 -131 q 355 -258 315 -224 q 493 -292 394 -292 l 550 -292 l 550 -192 l 530 -192 q 469 -178 488 -192 q 451 -138 451 -164 q 474 -76 451 -110 q 550 0 497 -42 "},"ø":{"ha":861,"x_min":57,"x_max":804,"o":"m 424 -17 q 600 23 519 -17 q 732 148 681 63 q 782 363 782 233 q 759 516 782 448 q 695 632 737 583 l 804 796 l 685 875 l 578 714 q 441 739 516 739 q 264 699 347 739 q 129 574 181 660 q 77 359 77 489 q 100 207 77 274 q 166 90 123 139 l 57 -73 l 176 -152 l 283 9 q 424 -17 346 -17 m 440 101 q 336 123 378 101 l 598 519 q 620 436 614 483 q 626 332 626 390 q 607 198 626 247 q 562 131 588 149 q 440 101 519 101 m 233 393 q 252 528 233 479 q 297 594 270 576 q 348 616 319 608 q 418 623 378 623 q 526 600 482 623 l 263 203 q 240 286 246 239 q 233 393 233 333 "},"ǿ":{"ha":861,"x_min":57,"x_max":804,"o":"m 424 -17 q 600 23 519 -17 q 732 148 681 63 q 782 363 782 233 q 759 516 782 448 q 695 632 737 583 l 804 796 l 685 875 l 578 714 q 441 739 516 739 q 264 699 347 739 q 129 574 181 660 q 77 359 77 489 q 100 207 77 274 q 166 90 123 139 l 57 -73 l 176 -152 l 283 9 q 424 -17 346 -17 m 440 101 q 336 123 378 101 l 598 519 q 620 436 614 483 q 626 332 626 390 q 607 198 626 247 q 562 131 588 149 q 440 101 519 101 m 497 885 l 362 885 l 502 1125 l 671 1125 l 497 885 m 233 393 q 252 528 233 479 q 297 594 270 576 q 348 616 319 608 q 418 623 378 623 q 526 600 482 623 l 263 203 q 240 286 246 239 q 233 393 233 333 "},"õ":{"ha":861,"x_min":77,"x_max":782,"o":"m 424 -17 q 600 23 519 -17 q 732 148 681 63 q 782 363 782 233 q 739 567 782 482 q 618 695 695 651 q 441 739 540 739 q 264 699 347 739 q 129 574 181 660 q 77 359 77 489 q 121 156 77 240 q 244 27 165 71 q 424 -17 323 -17 m 440 101 q 308 141 353 101 q 248 243 263 181 q 233 393 233 306 q 252 528 233 479 q 297 594 270 576 q 348 616 319 608 q 418 623 378 623 q 551 583 506 623 q 611 481 597 543 q 626 332 626 419 q 607 198 626 247 q 562 131 588 149 q 440 101 519 101 m 306 1122 q 203 1065 244 1122 q 152 907 162 1009 l 256 877 q 284 968 265 935 q 333 1000 303 1000 q 370 987 353 1000 q 415 945 388 974 q 456 905 438 920 q 497 878 473 889 q 548 867 520 867 q 652 924 611 867 q 703 1082 693 980 l 599 1112 q 572 1021 592 1053 q 523 989 553 989 q 485 1002 503 989 q 440 1044 467 1016 q 399 1084 417 1069 q 358 1110 381 1099 q 306 1122 334 1122 "},"œ":{"ha":861,"x_min":40,"x_max":818,"o":"m 620 -17 q 788 27 699 -17 l 792 145 q 716 119 750 128 q 653 110 683 110 q 542 175 578 110 q 501 351 506 241 l 818 351 l 818 442 q 770 661 818 583 q 623 739 722 739 q 513 706 564 739 q 433 607 463 674 q 364 706 407 674 q 265 739 321 739 q 151 701 201 739 q 70 578 101 663 q 40 359 40 493 q 94 74 40 165 q 256 -17 149 -17 q 356 13 312 -17 q 428 106 400 42 q 506 14 458 45 q 620 -17 555 -17 m 266 101 q 190 176 211 101 q 169 376 169 251 q 179 526 169 472 q 203 598 189 580 q 263 622 224 622 q 340 546 319 622 q 362 347 362 470 q 352 198 362 252 q 328 126 342 143 q 266 101 306 101 m 702 441 l 502 441 q 516 544 506 505 q 542 601 527 584 q 603 626 563 626 q 676 584 650 626 q 703 465 703 542 l 702 441 "},"p":{"ha":861,"x_min":101,"x_max":792,"o":"m 792 397 q 759 579 792 503 q 661 697 726 656 q 506 738 597 738 q 375 713 433 738 q 267 644 317 688 l 249 644 l 249 723 l 101 723 l 101 -278 l 259 -278 l 259 4 q 401 -16 328 -16 q 601 31 512 -16 q 741 171 690 78 q 792 397 792 264 m 259 139 l 259 572 q 437 617 358 617 q 585 545 544 617 q 627 359 627 474 q 606 208 627 259 q 549 135 584 158 q 494 109 522 117 q 428 101 465 101 q 259 139 340 101 "},"þ":{"ha":861,"x_min":120,"x_max":790,"o":"m 274 652 l 274 1063 l 120 1063 l 120 -264 l 274 -264 l 274 -1 q 399 -16 333 -16 q 599 31 510 -16 q 739 171 688 78 q 790 397 790 264 q 757 580 790 503 q 659 697 724 656 q 503 738 594 738 q 274 652 376 738 m 274 131 l 274 579 q 435 617 363 617 q 583 545 542 617 q 624 359 624 474 q 603 208 624 259 q 547 135 581 158 q 491 109 519 117 q 426 101 463 101 q 274 131 349 101 "},"q":{"ha":861,"x_min":69,"x_max":760,"o":"m 69 326 q 102 143 69 220 q 200 26 135 67 q 356 -15 265 -15 q 594 79 489 -15 l 603 79 l 603 -278 l 760 -278 l 760 722 l 717 722 l 676 690 q 460 739 576 739 q 260 692 349 739 q 120 552 172 645 q 69 326 69 459 m 235 364 q 256 515 235 464 q 312 588 278 565 q 368 614 340 606 q 433 622 397 622 q 603 584 519 622 l 603 151 q 424 106 503 106 q 276 177 317 106 q 235 364 235 249 "},"r":{"ha":861,"x_min":80,"x_max":793,"o":"m 420 562 l 420 722 l 97 722 l 80 598 l 276 598 l 276 125 l 83 125 l 101 0 l 664 0 l 681 125 l 433 125 l 433 495 q 606 567 522 544 q 793 588 690 590 l 787 732 q 728 738 762 738 q 608 717 666 738 q 503 655 549 695 q 431 562 458 615 l 420 562 "},"ŕ":{"ha":861,"x_min":80,"x_max":793,"o":"m 420 562 l 420 722 l 97 722 l 80 598 l 276 598 l 276 125 l 83 125 l 101 0 l 664 0 l 681 125 l 433 125 l 433 495 q 606 567 522 544 q 793 588 690 590 l 787 732 q 728 738 762 738 q 608 717 666 738 q 503 655 549 695 q 431 562 458 615 l 420 562 m 497 885 l 362 885 l 502 1125 l 671 1125 l 497 885 "},"ř":{"ha":861,"x_min":80,"x_max":793,"o":"m 420 562 l 420 722 l 97 722 l 80 598 l 276 598 l 276 125 l 83 125 l 101 0 l 664 0 l 681 125 l 433 125 l 433 495 q 606 567 522 544 q 793 588 690 590 l 787 732 q 728 738 762 738 q 608 717 666 738 q 503 655 549 695 q 431 562 458 615 l 420 562 m 347 885 l 173 1125 l 310 1125 l 431 947 l 551 1125 l 689 1125 l 515 885 l 347 885 "},"ŗ":{"ha":861,"x_min":80,"x_max":793,"o":"m 420 562 l 420 722 l 97 722 l 80 598 l 276 598 l 276 125 l 83 125 l 101 0 l 664 0 l 681 125 l 433 125 l 433 495 q 606 567 522 544 q 793 588 690 590 l 787 732 q 728 738 762 738 q 608 717 666 738 q 503 655 549 695 q 431 562 458 615 l 420 562 m 392 -356 q 410 -354 398 -356 q 362 -415 395 -389 q 276 -471 329 -441 l 326 -532 q 456 -434 404 -495 q 508 -292 508 -373 q 476 -194 508 -228 q 391 -160 443 -160 q 315 -186 344 -160 q 285 -258 285 -212 q 315 -329 285 -303 q 392 -356 344 -356 "},"s":{"ha":861,"x_min":115,"x_max":747,"o":"m 510 739 q 317 714 404 739 q 178 636 230 688 q 126 508 126 585 q 182 387 126 431 q 349 315 238 343 l 407 300 q 524 268 485 281 q 584 236 562 256 q 607 186 607 217 q 583 135 607 152 q 456 108 544 108 q 292 124 381 108 q 115 164 203 139 l 127 17 q 369 -15 248 -15 q 576 15 491 -15 q 704 99 660 45 q 747 225 747 153 q 715 327 747 288 q 628 386 682 365 q 483 429 574 408 q 355 464 401 449 q 285 497 308 478 q 263 539 263 515 q 287 583 263 566 q 433 613 327 613 q 567 604 500 613 q 719 579 635 596 l 714 713 q 510 739 618 739 "},"ś":{"ha":861,"x_min":115,"x_max":747,"o":"m 510 739 q 317 714 404 739 q 178 636 230 688 q 126 508 126 585 q 182 387 126 431 q 349 315 238 343 l 407 300 q 524 268 485 281 q 584 236 562 256 q 607 186 607 217 q 583 135 607 152 q 456 108 544 108 q 292 124 381 108 q 115 164 203 139 l 127 17 q 369 -15 248 -15 q 576 15 491 -15 q 704 99 660 45 q 747 225 747 153 q 715 327 747 288 q 628 386 682 365 q 483 429 574 408 q 355 464 401 449 q 285 497 308 478 q 263 539 263 515 q 287 583 263 566 q 433 613 327 613 q 567 604 500 613 q 719 579 635 596 l 714 713 q 510 739 618 739 m 497 885 l 362 885 l 502 1125 l 671 1125 l 497 885 "},"š":{"ha":861,"x_min":115,"x_max":747,"o":"m 510 739 q 317 714 404 739 q 178 636 230 688 q 126 508 126 585 q 182 387 126 431 q 349 315 238 343 l 407 300 q 524 268 485 281 q 584 236 562 256 q 607 186 607 217 q 583 135 607 152 q 456 108 544 108 q 292 124 381 108 q 115 164 203 139 l 127 17 q 369 -15 248 -15 q 576 15 491 -15 q 704 99 660 45 q 747 225 747 153 q 715 327 747 288 q 628 386 682 365 q 483 429 574 408 q 355 464 401 449 q 285 497 308 478 q 263 539 263 515 q 287 583 263 566 q 433 613 327 613 q 567 604 500 613 q 719 579 635 596 l 714 713 q 510 739 618 739 m 347 885 l 173 1125 l 310 1125 l 431 947 l 551 1125 l 689 1125 l 515 885 l 347 885 "},"ş":{"ha":861,"x_min":115,"x_max":747,"o":"m 510 739 q 317 714 404 739 q 178 636 230 688 q 126 508 126 585 q 182 387 126 431 q 349 315 238 343 l 407 300 q 524 268 485 281 q 584 236 562 256 q 607 186 607 217 q 583 135 607 152 q 456 108 544 108 q 292 124 381 108 q 115 164 203 139 l 127 17 q 369 -15 248 -15 l 383 -15 l 383 -182 q 457 -205 431 -187 q 483 -260 483 -223 q 458 -311 483 -294 q 375 -328 433 -328 l 338 -328 l 338 -417 l 392 -417 q 517 -400 472 -417 q 581 -350 563 -383 q 600 -269 600 -318 q 570 -167 600 -203 q 478 -117 540 -131 l 477 -8 q 678 73 608 11 q 747 225 747 134 q 715 327 747 288 q 628 386 682 365 q 483 429 574 408 q 355 464 401 449 q 285 497 308 478 q 263 539 263 515 q 287 583 263 566 q 433 613 327 613 q 567 604 500 613 q 719 579 635 596 l 714 713 q 510 739 618 739 "},"ŝ":{"ha":861,"x_min":115,"x_max":747,"o":"m 510 739 q 317 714 404 739 q 178 636 230 688 q 126 508 126 585 q 182 387 126 431 q 349 315 238 343 l 407 300 q 524 268 485 281 q 584 236 562 256 q 607 186 607 217 q 583 135 607 152 q 456 108 544 108 q 292 124 381 108 q 115 164 203 139 l 127 17 q 369 -15 248 -15 q 576 15 491 -15 q 704 99 660 45 q 747 225 747 153 q 715 327 747 288 q 628 386 682 365 q 483 429 574 408 q 355 464 401 449 q 285 497 308 478 q 263 539 263 515 q 287 583 263 566 q 433 613 327 613 q 567 604 500 613 q 719 579 635 596 l 714 713 q 510 739 618 739 m 347 1125 l 173 885 l 310 885 l 431 1063 l 551 885 l 689 885 l 515 1125 l 347 1125 "},"ș":{"ha":861,"x_min":115,"x_max":747,"o":"m 510 739 q 317 714 404 739 q 178 636 230 688 q 126 508 126 585 q 182 387 126 431 q 349 315 238 343 l 407 300 q 524 268 485 281 q 584 236 562 256 q 607 186 607 217 q 583 135 607 152 q 456 108 544 108 q 292 124 381 108 q 115 164 203 139 l 127 17 q 369 -15 248 -15 q 576 15 491 -15 q 704 99 660 45 q 747 225 747 153 q 715 327 747 288 q 628 386 682 365 q 483 429 574 408 q 355 464 401 449 q 285 497 308 478 q 263 539 263 515 q 287 583 263 566 q 433 613 327 613 q 567 604 500 613 q 719 579 635 596 l 714 713 q 510 739 618 739 m 429 -356 q 448 -354 435 -356 q 400 -415 433 -389 q 313 -471 367 -441 l 363 -532 q 494 -434 442 -495 q 546 -292 546 -373 q 513 -194 546 -228 q 428 -160 481 -160 q 352 -186 382 -160 q 322 -258 322 -212 q 352 -329 322 -303 q 429 -356 382 -356 "},"ß":{"ha":861,"x_min":117,"x_max":800,"o":"m 447 957 q 553 924 515 957 q 590 822 590 890 q 566 719 590 768 q 496 635 541 671 q 392 581 451 599 l 392 511 q 571 444 494 494 q 649 295 649 394 q 626 205 649 244 q 560 141 604 165 q 456 118 517 118 l 392 118 l 392 0 l 440 0 q 630 35 549 0 q 755 136 710 69 q 800 298 800 203 q 727 485 800 425 q 528 567 653 545 l 528 573 q 631 625 581 589 q 713 718 681 662 q 745 845 745 774 q 707 974 745 921 q 606 1053 669 1026 q 467 1079 542 1079 q 271 1023 348 1079 q 155 850 194 967 q 117 548 117 733 l 117 0 l 270 0 l 270 620 q 284 826 270 760 q 319 915 297 892 q 370 945 336 934 q 447 957 403 957 "},"t":{"ha":861,"x_min":70,"x_max":753,"o":"m 70 671 l 70 601 l 266 601 l 266 186 q 291 68 266 113 q 369 4 316 24 q 507 -16 422 -16 q 731 21 622 -16 l 744 140 q 559 114 633 114 q 476 125 506 114 q 435 158 447 136 q 423 215 423 180 l 423 601 l 728 601 l 753 722 l 420 722 l 420 894 l 369 894 l 70 671 "},"ŧ":{"ha":861,"x_min":70,"x_max":753,"o":"m 70 515 l 70 411 l 266 411 l 266 186 q 291 68 266 113 q 369 4 316 24 q 507 -16 422 -16 q 731 21 622 -16 l 744 140 q 559 114 633 114 q 476 125 506 114 q 435 158 447 136 q 423 215 423 180 l 423 411 l 728 411 l 753 515 l 423 515 l 423 664 l 728 664 l 753 768 l 420 768 l 420 940 l 369 940 l 70 717 l 70 664 l 266 664 l 266 515 l 70 515 "},"ť":{"ha":861,"x_min":70,"x_max":785,"o":"m 649 1106 l 637 852 l 756 852 l 785 1106 l 649 1106 m 70 671 l 70 601 l 266 601 l 266 186 q 291 68 266 113 q 369 4 316 24 q 507 -16 422 -16 q 731 21 622 -16 l 744 140 q 559 114 633 114 q 476 125 506 114 q 435 158 447 136 q 423 215 423 180 l 423 601 l 728 601 l 753 722 l 420 722 l 420 894 l 369 894 l 70 671 "},"ţ":{"ha":861,"x_min":70,"x_max":753,"o":"m 70 671 l 70 601 l 266 601 l 266 186 q 310 43 266 90 q 450 -13 353 -4 l 450 -182 q 524 -205 499 -187 q 549 -260 549 -223 q 525 -311 549 -294 q 442 -328 500 -328 l 405 -328 l 405 -417 l 460 -417 q 584 -400 539 -417 q 649 -350 630 -383 q 667 -269 667 -318 q 637 -167 667 -203 q 546 -117 607 -131 l 544 -15 q 731 21 638 -10 l 744 140 q 559 114 633 114 q 476 125 506 114 q 435 158 447 136 q 423 215 423 180 l 423 601 l 728 601 l 753 722 l 420 722 l 420 894 l 369 894 l 70 671 "},"ț":{"ha":861,"x_min":70,"x_max":753,"o":"m 497 -356 q 515 -354 503 -356 q 467 -414 500 -388 q 380 -471 434 -440 l 430 -532 q 561 -434 509 -495 q 613 -292 613 -373 q 581 -194 613 -228 q 496 -160 548 -160 q 419 -186 449 -160 q 389 -258 389 -212 q 419 -329 389 -303 q 497 -356 449 -356 m 70 671 l 70 601 l 266 601 l 266 186 q 291 68 266 113 q 369 4 316 24 q 507 -16 422 -16 q 731 21 622 -16 l 744 140 q 559 114 633 114 q 476 125 506 114 q 435 158 447 136 q 423 215 423 180 l 423 601 l 728 601 l 753 722 l 420 722 l 420 894 l 369 894 l 70 671 "},"u":{"ha":861,"x_min":117,"x_max":744,"o":"m 276 722 l 117 722 l 120 174 q 173 34 121 84 q 322 -16 226 -16 q 467 14 397 -16 q 588 95 538 44 l 595 95 l 595 0 l 744 0 l 744 722 l 587 722 l 587 175 q 391 108 485 108 q 306 134 335 108 q 276 221 276 160 l 276 722 "},"ú":{"ha":861,"x_min":117,"x_max":744,"o":"m 276 722 l 117 722 l 120 174 q 173 34 121 84 q 322 -16 226 -16 q 467 14 397 -16 q 588 95 538 44 l 595 95 l 595 0 l 744 0 l 744 722 l 587 722 l 587 175 q 391 108 485 108 q 306 134 335 108 q 276 221 276 160 l 276 722 m 497 885 l 362 885 l 502 1125 l 671 1125 l 497 885 "},"ŭ":{"ha":861,"x_min":117,"x_max":744,"o":"m 276 722 l 117 722 l 120 174 q 173 34 121 84 q 322 -16 226 -16 q 467 14 397 -16 q 588 95 538 44 l 595 95 l 595 0 l 744 0 l 744 722 l 587 722 l 587 175 q 391 108 485 108 q 306 134 335 108 q 276 221 276 160 l 276 722 m 313 1125 l 213 1125 q 264 942 208 1006 q 431 879 319 879 q 598 942 542 879 q 649 1125 653 1005 l 549 1125 q 520 1017 549 1054 q 431 980 492 980 q 341 1017 369 980 q 313 1125 313 1054 "},"û":{"ha":861,"x_min":117,"x_max":744,"o":"m 276 722 l 117 722 l 120 174 q 173 34 121 84 q 322 -16 226 -16 q 467 14 397 -16 q 588 95 538 44 l 595 95 l 595 0 l 744 0 l 744 722 l 587 722 l 587 175 q 391 108 485 108 q 306 134 335 108 q 276 221 276 160 l 276 722 m 347 1125 l 173 885 l 310 885 l 431 1063 l 551 885 l 689 885 l 515 1125 l 347 1125 "},"ü":{"ha":861,"x_min":117,"x_max":744,"o":"m 276 722 l 117 722 l 120 174 q 173 34 121 84 q 322 -16 226 -16 q 467 14 397 -16 q 588 95 538 44 l 595 95 l 595 0 l 744 0 l 744 722 l 587 722 l 587 175 q 391 108 485 108 q 306 134 335 108 q 276 221 276 160 l 276 722 m 248 882 q 319 909 292 882 q 347 983 347 937 q 319 1055 347 1028 q 248 1081 292 1081 q 176 1055 203 1081 q 149 983 149 1028 q 176 909 149 937 q 248 882 203 882 m 614 882 q 685 909 658 882 q 713 983 713 937 q 685 1055 713 1028 q 614 1081 658 1081 q 542 1055 569 1081 q 515 983 515 1028 q 542 909 515 937 q 614 882 569 882 "},"ụ":{"ha":861,"x_min":117,"x_max":744,"o":"m 276 722 l 117 722 l 120 174 q 173 34 121 84 q 322 -16 226 -16 q 467 14 397 -16 q 588 95 538 44 l 595 95 l 595 0 l 744 0 l 744 722 l 587 722 l 587 175 q 391 108 485 108 q 306 134 335 108 q 276 221 276 160 l 276 722 m 431 -360 q 509 -333 479 -360 q 539 -260 539 -306 q 509 -187 539 -214 q 431 -160 479 -160 q 352 -187 382 -160 q 322 -260 322 -214 q 352 -333 322 -306 q 431 -360 382 -360 "},"ù":{"ha":861,"x_min":117,"x_max":744,"o":"m 276 722 l 117 722 l 120 174 q 173 34 121 84 q 322 -16 226 -16 q 467 14 397 -16 q 588 95 538 44 l 595 95 l 595 0 l 744 0 l 744 722 l 587 722 l 587 175 q 391 108 485 108 q 306 134 335 108 q 276 221 276 160 l 276 722 m 365 885 l 500 885 l 359 1125 l 191 1125 l 365 885 "},"ű":{"ha":861,"x_min":117,"x_max":744,"o":"m 276 722 l 117 722 l 120 174 q 173 34 121 84 q 322 -16 226 -16 q 467 14 397 -16 q 588 95 538 44 l 595 95 l 595 0 l 744 0 l 744 722 l 587 722 l 587 175 q 391 108 485 108 q 306 134 335 108 q 276 221 276 160 l 276 722 m 333 1125 l 238 885 l 345 885 l 463 1125 l 333 1125 m 605 1125 l 510 885 l 617 885 l 735 1125 l 605 1125 "},"ū":{"ha":861,"x_min":117,"x_max":744,"o":"m 276 722 l 117 722 l 120 174 q 173 34 121 84 q 322 -16 226 -16 q 467 14 397 -16 q 588 95 538 44 l 595 95 l 595 0 l 744 0 l 744 722 l 587 722 l 587 175 q 391 108 485 108 q 306 134 335 108 q 276 221 276 160 l 276 722 m 658 916 l 658 1018 l 203 1018 l 203 916 l 658 916 "},"ų":{"ha":861,"x_min":117,"x_max":744,"o":"m 276 722 l 117 722 l 120 174 q 173 34 121 84 q 322 -16 226 -16 q 467 14 397 -16 q 588 95 538 44 l 595 95 l 595 0 l 611 0 q 534 -87 558 -46 q 510 -172 510 -128 q 549 -259 510 -225 q 687 -293 589 -293 l 744 -293 l 744 -192 l 724 -192 q 664 -178 682 -192 q 646 -139 646 -165 q 668 -76 646 -110 q 744 0 691 -42 l 744 722 l 587 722 l 587 175 q 391 108 485 108 q 306 134 335 108 q 276 221 276 160 l 276 722 "},"ů":{"ha":861,"x_min":117,"x_max":744,"o":"m 276 722 l 117 722 l 120 174 q 173 34 121 84 q 322 -16 226 -16 q 467 14 397 -16 q 588 95 538 44 l 595 95 l 595 0 l 744 0 l 744 722 l 587 722 l 587 175 q 391 108 485 108 q 306 134 335 108 q 276 221 276 160 l 276 722 m 431 842 q 514 864 477 842 q 571 923 551 885 q 592 1008 592 960 q 571 1092 592 1055 q 514 1151 551 1130 q 431 1172 477 1172 q 348 1151 384 1172 q 291 1092 311 1130 q 270 1008 270 1055 q 291 923 270 960 q 348 864 311 885 q 431 842 384 842 m 431 915 q 365 941 390 915 q 340 1008 340 967 q 365 1074 340 1048 q 431 1100 390 1100 q 496 1074 472 1100 q 521 1008 521 1048 q 496 941 521 967 q 431 915 472 915 "},"ũ":{"ha":861,"x_min":117,"x_max":744,"o":"m 276 722 l 117 722 l 120 174 q 173 34 121 84 q 322 -16 226 -16 q 467 14 397 -16 q 588 95 538 44 l 595 95 l 595 0 l 744 0 l 744 722 l 587 722 l 587 175 q 391 108 485 108 q 306 134 335 108 q 276 221 276 160 l 276 722 m 306 1122 q 203 1065 244 1122 q 152 907 162 1009 l 256 877 q 284 968 265 935 q 333 1000 303 1000 q 370 987 353 1000 q 415 945 388 974 q 456 905 438 920 q 497 878 473 889 q 548 867 520 867 q 652 924 611 867 q 703 1082 693 980 l 599 1112 q 572 1021 592 1053 q 523 989 553 989 q 485 1002 503 989 q 440 1044 467 1016 q 399 1084 417 1069 q 358 1110 381 1099 q 306 1122 334 1122 "},"v":{"ha":861,"x_min":67,"x_max":794,"o":"m 233 722 l 67 722 q 363 0 150 338 l 502 0 q 794 722 716 341 l 642 722 q 444 161 590 428 l 431 161 q 233 722 285 430 "},"w":{"ha":861,"x_min":17,"x_max":844,"o":"m 563 0 l 664 0 q 784 356 740 179 q 844 722 829 533 l 703 722 q 600 228 681 485 l 588 228 q 486 602 537 376 l 388 602 q 277 228 333 373 l 265 228 q 167 722 188 472 l 17 722 q 76 357 32 534 q 195 0 121 181 l 290 0 q 424 426 374 209 l 435 426 q 563 0 485 208 "},"ẃ":{"ha":861,"x_min":17,"x_max":844,"o":"m 563 0 l 664 0 q 784 356 740 179 q 844 722 829 533 l 703 722 q 600 228 681 485 l 588 228 q 486 602 537 376 l 388 602 q 277 228 333 373 l 265 228 q 167 722 188 472 l 17 722 q 76 357 32 534 q 195 0 121 181 l 290 0 q 424 426 374 209 l 435 426 q 563 0 485 208 m 497 885 l 362 885 l 502 1125 l 671 1125 l 497 885 "},"ŵ":{"ha":861,"x_min":17,"x_max":844,"o":"m 563 0 l 664 0 q 784 356 740 179 q 844 722 829 533 l 703 722 q 600 228 681 485 l 588 228 q 486 602 537 376 l 388 602 q 277 228 333 373 l 265 228 q 167 722 188 472 l 17 722 q 76 357 32 534 q 195 0 121 181 l 290 0 q 424 426 374 209 l 435 426 q 563 0 485 208 m 347 1125 l 173 885 l 310 885 l 431 1063 l 551 885 l 689 885 l 515 1125 l 347 1125 "},"ẅ":{"ha":861,"x_min":17,"x_max":844,"o":"m 563 0 l 664 0 q 784 356 740 179 q 844 722 829 533 l 703 722 q 600 228 681 485 l 588 228 q 486 602 537 376 l 388 602 q 277 228 333 373 l 265 228 q 167 722 188 472 l 17 722 q 76 357 32 534 q 195 0 121 181 l 290 0 q 424 426 374 209 l 435 426 q 563 0 485 208 m 248 882 q 319 909 292 882 q 347 983 347 937 q 319 1055 347 1028 q 248 1081 292 1081 q 176 1055 203 1081 q 149 983 149 1028 q 176 909 149 937 q 248 882 203 882 m 614 882 q 685 909 658 882 q 713 983 713 937 q 685 1055 713 1028 q 614 1081 658 1081 q 542 1055 569 1081 q 515 983 515 1028 q 542 909 515 937 q 614 882 569 882 "},"ẁ":{"ha":861,"x_min":17,"x_max":844,"o":"m 563 0 l 664 0 q 784 356 740 179 q 844 722 829 533 l 703 722 q 600 228 681 485 l 588 228 q 486 602 537 376 l 388 602 q 277 228 333 373 l 265 228 q 167 722 188 472 l 17 722 q 76 357 32 534 q 195 0 121 181 l 290 0 q 424 426 374 209 l 435 426 q 563 0 485 208 m 365 885 l 500 885 l 359 1125 l 191 1125 l 365 885 "},"x":{"ha":861,"x_min":48,"x_max":813,"o":"m 240 722 l 58 722 l 338 369 l 48 0 l 224 0 l 419 267 l 629 0 l 813 0 l 519 369 l 805 722 l 638 722 l 445 463 l 240 722 "},"y":{"ha":861,"x_min":32,"x_max":801,"o":"m 222 722 l 60 722 q 188 350 115 522 q 364 -3 261 177 l 350 -29 q 135 -159 283 -159 q 32 -147 87 -159 l 65 -284 q 146 -294 107 -294 q 302 -246 228 -294 q 436 -123 377 -198 q 535 37 494 -49 l 565 95 q 801 722 738 453 l 644 722 q 562 430 609 563 q 449 167 515 296 l 439 167 q 222 722 292 438 "},"ý":{"ha":861,"x_min":32,"x_max":801,"o":"m 222 722 l 60 722 q 188 350 115 522 q 364 -3 261 177 l 350 -29 q 135 -159 283 -159 q 32 -147 87 -159 l 65 -284 q 146 -294 107 -294 q 302 -246 228 -294 q 436 -123 377 -198 q 535 37 494 -49 l 565 95 q 801 722 738 453 l 644 722 q 562 430 609 563 q 449 167 515 296 l 439 167 q 222 722 292 438 m 497 885 l 362 885 l 502 1125 l 671 1125 l 497 885 "},"ŷ":{"ha":861,"x_min":32,"x_max":801,"o":"m 222 722 l 60 722 q 188 350 115 522 q 364 -3 261 177 l 350 -29 q 135 -159 283 -159 q 32 -147 87 -159 l 65 -284 q 146 -294 107 -294 q 302 -246 228 -294 q 436 -123 377 -198 q 535 37 494 -49 l 565 95 q 801 722 738 453 l 644 722 q 562 430 609 563 q 449 167 515 296 l 439 167 q 222 722 292 438 m 347 1125 l 173 885 l 310 885 l 431 1063 l 551 885 l 689 885 l 515 1125 l 347 1125 "},"ÿ":{"ha":861,"x_min":32,"x_max":801,"o":"m 222 722 l 60 722 q 188 350 115 522 q 364 -3 261 177 l 350 -29 q 135 -159 283 -159 q 32 -147 87 -159 l 65 -284 q 146 -294 107 -294 q 302 -246 228 -294 q 436 -123 377 -198 q 535 37 494 -49 l 565 95 q 801 722 738 453 l 644 722 q 562 430 609 563 q 449 167 515 296 l 439 167 q 222 722 292 438 m 248 882 q 319 909 292 882 q 347 983 347 937 q 319 1055 347 1028 q 248 1081 292 1081 q 176 1055 203 1081 q 149 983 149 1028 q 176 909 149 937 q 248 882 203 882 m 614 882 q 685 909 658 882 q 713 983 713 937 q 685 1055 713 1028 q 614 1081 658 1081 q 542 1055 569 1081 q 515 983 515 1028 q 542 909 515 937 q 614 882 569 882 "},"ỳ":{"ha":861,"x_min":32,"x_max":801,"o":"m 222 722 l 60 722 q 188 350 115 522 q 364 -3 261 177 l 350 -29 q 135 -159 283 -159 q 32 -147 87 -159 l 65 -284 q 146 -294 107 -294 q 302 -246 228 -294 q 436 -123 377 -198 q 535 37 494 -49 l 565 95 q 801 722 738 453 l 644 722 q 562 430 609 563 q 449 167 515 296 l 439 167 q 222 722 292 438 m 365 885 l 500 885 l 359 1125 l 191 1125 l 365 885 "},"ȳ":{"ha":861,"x_min":32,"x_max":801,"o":"m 222 722 l 60 722 q 188 350 115 522 q 364 -3 261 177 l 350 -29 q 135 -159 283 -159 q 32 -147 87 -159 l 65 -284 q 146 -294 107 -294 q 302 -246 228 -294 q 436 -123 377 -198 q 535 37 494 -49 l 565 95 q 801 722 738 453 l 644 722 q 562 430 609 563 q 449 167 515 296 l 439 167 q 222 722 292 438 m 658 916 l 658 1018 l 203 1018 l 203 916 l 658 916 "},"ỹ":{"ha":861,"x_min":32,"x_max":801,"o":"m 222 722 l 60 722 q 188 350 115 522 q 364 -3 261 177 l 350 -29 q 135 -159 283 -159 q 32 -147 87 -159 l 65 -284 q 146 -294 107 -294 q 302 -246 228 -294 q 436 -123 377 -198 q 535 37 494 -49 l 565 95 q 801 722 738 453 l 644 722 q 562 430 609 563 q 449 167 515 296 l 439 167 q 222 722 292 438 m 306 1122 q 203 1065 244 1122 q 152 907 162 1009 l 256 877 q 284 968 265 935 q 333 1000 303 1000 q 370 987 353 1000 q 415 945 388 974 q 456 905 438 920 q 497 878 473 889 q 548 867 520 867 q 652 924 611 867 q 703 1082 693 980 l 599 1112 q 572 1021 592 1053 q 523 989 553 989 q 485 1002 503 989 q 440 1044 467 1016 q 399 1084 417 1069 q 358 1110 381 1099 q 306 1122 334 1122 "},"z":{"ha":861,"x_min":92,"x_max":774,"o":"m 708 723 l 141 723 l 92 599 l 510 599 l 102 88 l 110 0 l 720 0 l 774 133 l 315 133 l 719 642 l 708 723 "},"ź":{"ha":861,"x_min":92,"x_max":774,"o":"m 708 723 l 141 723 l 92 599 l 510 599 l 102 88 l 110 0 l 720 0 l 774 133 l 315 133 l 719 642 l 708 723 m 497 885 l 362 885 l 502 1125 l 671 1125 l 497 885 "},"ž":{"ha":861,"x_min":92,"x_max":774,"o":"m 708 723 l 141 723 l 92 599 l 510 599 l 102 88 l 110 0 l 720 0 l 774 133 l 315 133 l 719 642 l 708 723 m 347 885 l 173 1125 l 310 1125 l 431 947 l 551 1125 l 689 1125 l 515 885 l 347 885 "},"ż":{"ha":861,"x_min":92,"x_max":774,"o":"m 708 723 l 141 723 l 92 599 l 510 599 l 102 88 l 110 0 l 720 0 l 774 133 l 315 133 l 719 642 l 708 723 m 431 883 q 509 911 479 883 q 539 984 539 938 q 509 1057 539 1030 q 431 1083 479 1083 q 352 1057 382 1083 q 322 984 322 1030 q 352 911 322 938 q 431 883 382 883 "},"":{"ha":861,"x_min":252,"x_max":634,"o":"m 634 -1 q 593 145 634 90 q 476 200 552 200 q 348 142 398 200 l 343 142 l 343 367 l 252 367 l 252 -194 l 331 -194 l 337 -146 l 349 -146 q 399 -187 368 -172 q 473 -203 430 -203 q 592 -148 550 -203 q 634 -1 634 -93 m 343 -99 l 343 96 q 435 125 385 125 q 515 94 488 125 q 541 -1 541 63 q 435 -128 541 -128 q 343 -99 385 -128 "},"":{"ha":861,"x_min":227,"x_max":628,"o":"m 628 -74 l 541 -62 q 502 -114 529 -95 q 435 -132 476 -132 q 350 -99 381 -132 q 320 -1 320 -66 q 349 96 320 63 q 435 129 378 129 q 506 110 478 129 q 540 53 533 90 l 628 60 q 570 164 622 128 q 438 200 519 200 q 285 149 342 200 q 227 -1 227 99 q 283 -151 227 -99 q 433 -203 338 -203 q 558 -172 506 -203 q 628 -74 611 -140 "},"":{"ha":861,"x_min":227,"x_max":609,"o":"m 227 -3 q 268 -149 227 -94 q 385 -203 308 -203 q 513 -146 463 -203 l 525 -146 l 531 -194 l 609 -194 l 609 367 l 518 367 l 518 142 l 513 142 q 462 184 492 169 q 389 200 431 200 q 269 145 311 200 q 227 -3 227 90 m 320 -3 q 426 125 320 125 q 518 97 477 125 l 518 -99 q 426 -128 476 -128 q 347 -98 373 -128 q 320 -3 320 -67 "},"":{"ha":861,"x_min":224,"x_max":632,"o":"m 632 310 l 632 387 q 538 398 586 398 q 397 353 444 398 q 350 208 350 309 l 350 191 l 224 191 l 224 118 l 350 118 l 350 -121 l 248 -121 l 248 -194 l 577 -194 l 577 -121 l 441 -121 l 441 118 l 618 118 l 618 191 l 441 191 l 441 226 q 452 284 441 263 q 484 312 463 304 q 542 320 506 320 q 632 310 581 320 "},"":{"ha":861,"x_min":227,"x_max":609,"o":"m 227 19 q 246 -75 227 -35 q 300 -138 265 -115 q 385 -160 336 -160 q 513 -103 463 -160 l 518 -103 l 518 -182 q 492 -256 518 -233 q 419 -278 466 -278 q 358 -264 382 -278 q 322 -220 333 -250 l 239 -237 q 294 -314 251 -286 q 419 -341 336 -341 q 562 -301 515 -341 q 609 -172 609 -260 l 609 191 l 531 191 l 525 142 l 513 142 q 461 184 493 168 q 388 200 430 200 q 302 177 338 200 q 247 114 266 155 q 227 19 227 72 m 320 19 q 348 97 320 69 q 426 125 376 125 q 518 97 477 125 l 518 -56 q 426 -85 477 -85 q 348 -58 375 -85 q 320 19 320 -31 "},"":{"ha":861,"x_min":227,"x_max":609,"o":"m 227 -3 q 268 -149 227 -94 q 385 -203 309 -203 q 513 -146 463 -203 l 518 -146 l 518 -332 l 609 -332 l 609 191 l 531 191 l 525 142 l 513 142 q 462 184 493 169 q 389 200 431 200 q 269 145 311 200 q 227 -3 227 90 m 320 -3 q 426 125 320 125 q 518 96 476 125 l 518 -99 q 426 -128 475 -128 q 347 -98 373 -128 q 320 -3 320 -67 "},"ₐ":{"ha":861,"x_min":233,"x_max":629,"o":"m 419 200 q 289 170 330 200 q 247 88 247 140 l 247 68 l 330 68 l 330 83 q 352 125 330 112 q 412 138 374 138 q 472 124 451 138 q 493 74 493 110 l 493 22 q 305 -1 376 24 q 233 -99 233 -26 q 266 -175 233 -147 q 356 -203 299 -203 q 490 -147 432 -203 l 499 -147 q 519 -187 502 -173 q 572 -202 535 -202 q 629 -194 601 -202 l 629 -129 q 614 -130 624 -130 q 591 -124 597 -130 q 585 -101 585 -117 l 585 78 q 542 172 585 143 q 419 200 499 200 m 328 -87 q 363 -40 328 -56 q 461 -25 397 -25 q 493 -27 476 -25 l 493 -108 q 399 -137 446 -137 q 347 -124 365 -137 q 328 -87 328 -111 "},"ₑ":{"ha":861,"x_min":227,"x_max":626,"o":"m 227 -1 q 253 -111 227 -66 q 326 -180 279 -157 q 435 -203 373 -203 q 554 -175 504 -203 q 624 -91 603 -147 l 535 -78 q 435 -132 510 -132 q 352 -101 382 -132 q 320 -11 323 -70 l 626 -11 l 626 25 q 577 156 626 112 q 439 200 528 200 q 284 148 342 200 q 227 -1 227 97 m 537 44 l 324 44 q 363 108 334 88 q 436 129 392 129 q 509 108 482 129 q 537 44 537 87 "},"ᵢ":{"ha":861,"x_min":245,"x_max":616,"o":"m 245 -121 l 245 -194 l 616 -194 l 616 -121 l 476 -121 l 476 190 l 465 200 l 245 191 l 245 119 l 385 119 l 385 -121 l 245 -121 m 415 269 q 460 284 443 269 q 478 326 478 300 q 460 367 478 352 q 415 383 443 383 q 369 367 386 383 q 351 326 351 352 q 369 284 351 300 q 415 269 386 269 "},"ⱼ":{"ha":861,"x_min":245,"x_max":544,"o":"m 544 -161 l 544 190 l 533 200 l 265 191 l 265 119 l 453 119 l 453 -162 q 443 -228 453 -205 q 412 -261 433 -251 q 351 -270 390 -270 q 245 -258 301 -270 l 245 -335 q 355 -348 297 -348 q 468 -332 428 -348 q 526 -275 508 -315 q 544 -161 544 -235 m 481 269 q 527 284 510 269 q 544 326 544 300 q 527 367 544 352 q 481 383 510 383 q 435 367 453 383 q 418 326 418 352 q 435 284 418 300 q 481 269 453 269 "},"ₒ":{"ha":861,"x_min":227,"x_max":634,"o":"m 634 -3 q 607 109 634 64 q 534 177 580 155 q 431 200 488 200 q 327 177 374 200 q 254 109 281 155 q 227 -3 227 64 q 254 -115 227 -69 q 327 -181 281 -160 q 431 -203 373 -203 q 534 -181 488 -203 q 607 -114 580 -159 q 634 -3 634 -69 m 541 -3 q 511 -101 541 -70 q 431 -132 482 -132 q 350 -101 379 -132 q 320 -3 320 -70 q 350 97 320 65 q 431 129 379 129 q 511 97 482 129 q 541 -3 541 65 "},"ᵣ":{"ha":861,"x_min":240,"x_max":627,"o":"m 427 135 l 421 191 l 240 191 l 240 118 l 342 118 l 342 -121 l 240 -121 l 240 -194 l 569 -194 l 569 -121 l 434 -121 l 434 77 q 517 105 475 98 q 627 111 559 111 l 627 196 q 587 200 610 200 q 505 184 538 200 q 439 135 471 169 l 427 135 "},"ₔ":{"ha":861,"x_min":236,"x_max":634,"o":"m 634 -2 q 578 148 634 95 q 426 200 522 200 q 308 172 357 200 q 238 88 258 144 l 326 75 q 426 129 351 129 q 509 98 479 129 q 542 8 539 67 l 236 8 l 236 -28 q 285 -159 236 -115 q 423 -203 333 -203 q 577 -151 520 -203 q 634 -2 634 -99 m 325 -47 l 537 -47 q 499 -111 528 -90 q 425 -132 470 -132 q 352 -111 380 -132 q 325 -47 325 -90 "},"ᵤ":{"ha":861,"x_min":252,"x_max":609,"o":"m 343 191 l 252 191 l 252 -89 q 367 -203 252 -203 q 449 -186 414 -203 q 513 -137 483 -169 l 524 -137 l 531 -194 l 609 -194 l 609 191 l 518 191 l 518 -84 q 410 -131 469 -131 q 361 -116 379 -131 q 343 -65 343 -101 l 343 191 "},"ᵥ":{"ha":861,"x_min":217,"x_max":643,"o":"m 315 191 l 217 191 l 383 -194 l 478 -194 l 643 191 l 553 191 l 438 -85 l 432 -85 l 315 191 "},"ₓ":{"ha":861,"x_min":212,"x_max":649,"o":"m 324 191 l 217 191 l 376 2 l 212 -194 l 317 -194 l 426 -56 l 542 -194 l 649 -194 l 485 0 l 644 191 l 542 191 l 436 58 l 324 191 "},"ª":{"ha":861,"x_min":233,"x_max":629,"o":"m 419 1158 q 289 1128 330 1158 q 247 1046 247 1098 l 247 1026 l 330 1026 l 330 1042 q 352 1083 330 1070 q 412 1097 374 1097 q 472 1082 451 1097 q 493 1033 493 1068 l 493 981 q 305 957 376 982 q 233 859 233 932 q 266 783 233 811 q 356 756 299 756 q 490 811 432 756 l 499 811 q 519 771 502 785 q 572 756 535 756 q 629 764 601 756 l 629 829 q 614 828 624 828 q 591 835 597 828 q 585 857 585 841 l 585 1037 q 542 1130 585 1101 q 419 1158 499 1158 m 328 871 q 363 918 328 903 q 461 933 397 933 q 493 931 476 933 l 493 851 q 399 821 446 821 q 347 834 365 821 q 328 871 328 847 "},"º":{"ha":861,"x_min":227,"x_max":634,"o":"m 634 956 q 607 1068 634 1022 q 534 1136 580 1113 q 431 1158 488 1158 q 327 1136 374 1158 q 254 1068 281 1113 q 227 956 227 1022 q 254 844 227 889 q 327 777 281 799 q 431 756 373 756 q 534 777 488 756 q 607 844 580 799 q 634 956 634 889 m 541 956 q 511 857 541 888 q 431 826 482 826 q 350 857 379 826 q 320 956 320 888 q 350 1056 320 1024 q 431 1088 379 1088 q 511 1056 482 1088 q 541 956 541 1024 "},"ʰ":{"ha":861,"x_min":252,"x_max":609,"o":"m 252 764 l 343 764 l 343 1038 q 451 1086 392 1086 q 500 1072 482 1086 q 518 1021 518 1057 l 518 764 l 609 764 l 609 1044 q 496 1158 609 1158 q 417 1142 450 1158 q 354 1093 385 1125 l 343 1093 l 343 1326 l 252 1326 l 252 764 "},"ⁱ":{"ha":861,"x_min":245,"x_max":616,"o":"m 245 838 l 245 764 l 616 764 l 616 838 l 476 838 l 476 1148 l 465 1158 l 245 1149 l 245 1077 l 385 1077 l 385 838 l 245 838 m 415 1227 q 460 1243 443 1227 q 478 1285 478 1258 q 460 1326 478 1310 q 415 1341 443 1341 q 369 1326 386 1341 q 351 1285 351 1310 q 369 1243 351 1258 q 415 1227 386 1227 "},"ʲ":{"ha":861,"x_min":245,"x_max":544,"o":"m 544 797 l 544 1148 l 533 1158 l 265 1149 l 265 1077 l 453 1077 l 453 796 q 443 730 453 753 q 412 698 433 707 q 351 688 390 688 q 245 700 301 688 l 245 623 q 355 610 297 610 q 468 627 428 610 q 526 683 508 643 q 544 797 544 723 m 481 1227 q 527 1243 510 1227 q 544 1285 544 1258 q 527 1326 544 1310 q 481 1341 510 1341 q 435 1326 453 1341 q 418 1285 418 1310 q 435 1243 418 1258 q 481 1227 453 1227 "},"ˡ":{"ha":861,"x_min":245,"x_max":616,"o":"m 245 838 l 245 764 l 616 764 l 616 838 l 476 838 l 476 1324 l 465 1335 l 245 1326 l 245 1253 l 385 1253 l 385 838 l 245 838 "},"ⁿ":{"ha":861,"x_min":252,"x_max":609,"o":"m 518 764 l 609 764 l 609 1044 q 494 1158 609 1158 q 414 1142 448 1158 q 349 1093 379 1125 l 337 1093 l 331 1149 l 252 1149 l 252 764 l 343 764 l 343 1039 q 451 1086 392 1086 q 500 1072 482 1086 q 518 1021 518 1057 l 518 764 "},"ʳ":{"ha":861,"x_min":240,"x_max":627,"o":"m 427 1093 l 421 1149 l 240 1149 l 240 1076 l 342 1076 l 342 838 l 240 838 l 240 764 l 569 764 l 569 838 l 434 838 l 434 1035 q 517 1063 475 1056 q 627 1069 559 1069 l 627 1154 q 587 1158 610 1158 q 505 1143 538 1158 q 439 1093 471 1127 l 427 1093 "},"ˢ":{"ha":861,"x_min":232,"x_max":614,"o":"m 433 1158 q 296 1128 342 1158 q 250 1042 250 1098 q 286 967 250 993 q 398 926 323 941 q 474 909 448 916 q 511 892 499 901 q 523 868 523 883 q 500 834 523 848 q 430 821 477 821 q 355 834 383 821 q 315 884 326 847 l 232 875 q 291 783 244 811 q 426 756 338 756 q 565 788 517 756 q 614 878 614 821 q 596 935 614 914 q 545 969 578 956 q 456 992 512 981 q 384 1009 408 1002 q 348 1026 360 1017 q 337 1050 337 1035 q 360 1083 337 1072 q 426 1094 384 1094 q 498 1080 474 1094 q 525 1037 522 1065 l 607 1043 q 563 1129 607 1099 q 433 1158 518 1158 "},"ʷ":{"ha":861,"x_min":198,"x_max":663,"o":"m 283 1149 l 198 1149 l 288 764 l 359 764 l 428 985 l 433 985 l 497 764 l 574 764 l 663 1149 l 581 1149 l 526 902 l 519 902 l 465 1099 l 406 1099 l 344 902 l 338 902 l 283 1149 "},"ˣ":{"ha":861,"x_min":212,"x_max":649,"o":"m 324 1149 l 217 1149 l 376 960 l 212 764 l 317 764 l 426 902 l 542 764 l 649 764 l 485 958 l 644 1149 l 542 1149 l 436 1017 l 324 1149 "},"ʸ":{"ha":861,"x_min":217,"x_max":646,"o":"m 315 1149 l 217 1149 l 394 768 l 389 754 q 356 712 379 727 q 288 697 332 697 q 235 702 262 697 l 235 622 q 285 617 265 617 q 411 658 365 617 q 491 781 458 699 l 646 1149 l 555 1149 l 445 881 l 440 881 l 315 1149 "},"ℂ":{"ha":861,"x_min":85,"x_max":774,"o":"m 178 506 q 275 871 178 760 l 275 144 q 178 506 178 254 m 85 506 q 131 218 85 335 q 260 43 178 101 q 450 -15 342 -15 q 617 26 545 -15 q 729 142 688 68 q 774 313 769 216 l 689 321 q 653 186 683 244 q 572 98 624 129 q 452 66 521 66 q 358 83 401 66 l 358 931 q 452 949 401 949 q 572 917 521 949 q 653 828 624 885 q 689 694 683 771 l 774 702 q 729 873 769 799 q 617 988 688 947 q 450 1030 545 1030 q 260 972 342 1030 q 131 796 178 914 q 85 506 85 678 "},"ℕ":{"ha":861,"x_min":132,"x_max":729,"o":"m 132 1014 l 132 0 l 215 0 l 215 599 l 608 0 l 729 0 l 729 1014 l 646 1014 l 646 415 l 253 1014 l 132 1014 m 646 90 l 215 747 l 215 924 l 646 267 l 646 90 "},"ℚ":{"ha":861,"x_min":76,"x_max":785,"o":"m 575 114 l 501 273 l 417 273 l 513 78 q 431 65 476 65 q 353 76 388 65 l 353 938 q 431 949 388 949 q 623 845 556 949 q 691 508 691 740 q 575 114 691 211 m 785 508 q 741 798 785 681 q 618 973 697 915 q 431 1031 538 1031 q 243 973 323 1031 q 120 798 164 915 q 76 508 76 681 q 120 217 76 335 q 243 42 164 99 q 431 -16 322 -16 q 548 4 496 -16 l 638 -176 l 728 -176 l 615 40 q 741 216 697 98 q 785 508 785 333 m 170 508 q 270 886 170 784 l 270 128 q 170 508 170 232 "},"ℝ":{"ha":861,"x_min":132,"x_max":789,"o":"m 399 490 l 392 490 l 392 938 l 419 938 q 566 917 510 938 q 649 850 622 896 q 676 726 676 803 q 613 551 676 613 q 399 490 549 490 m 132 1014 l 132 0 l 392 0 l 392 417 l 408 417 q 490 422 454 417 l 690 0 l 789 0 l 572 440 q 716 545 669 472 q 763 726 763 619 q 678 944 763 874 q 436 1014 593 1014 l 132 1014 m 309 76 l 215 76 l 215 938 l 309 938 l 309 76 "},"ℤ":{"ha":861,"x_min":104,"x_max":757,"o":"m 757 1014 l 104 1014 l 104 931 l 473 931 l 104 83 l 104 0 l 757 0 l 757 83 l 388 83 l 757 931 l 757 1014 m 297 83 l 197 83 l 565 931 l 665 931 l 297 83 "},"ₕ":{"ha":861,"x_min":252,"x_max":609,"o":"m 252 -194 l 343 -194 l 343 80 q 451 128 392 128 q 500 113 482 128 q 518 63 518 99 l 518 -194 l 609 -194 l 609 86 q 496 200 609 200 q 417 183 450 200 q 354 135 385 167 l 343 135 l 343 367 l 252 367 l 252 -194 "},"ₖ":{"ha":861,"x_min":252,"x_max":656,"o":"m 252 -194 l 343 -194 l 343 -25 l 402 -25 l 549 -194 l 656 -194 l 483 6 l 483 10 l 643 191 l 542 191 l 416 47 l 343 47 l 343 367 l 252 367 l 252 -194 "},"ₗ":{"ha":861,"x_min":245,"x_max":616,"o":"m 245 -121 l 245 -194 l 616 -194 l 616 -121 l 476 -121 l 476 365 l 465 376 l 245 367 l 245 295 l 385 295 l 385 -121 l 245 -121 "},"ₘ":{"ha":861,"x_min":238,"x_max":624,"o":"m 390 -194 l 471 -194 l 471 104 q 515 124 492 124 q 544 92 544 124 l 544 -194 l 624 -194 l 624 124 q 607 181 624 162 q 559 199 590 199 q 507 183 528 199 q 473 140 486 166 l 470 140 q 406 199 463 199 q 353 182 375 199 q 319 140 331 165 l 311 140 l 306 191 l 238 191 l 238 -194 l 318 -194 l 318 104 q 362 124 340 124 q 390 92 390 124 l 390 -194 "},"ₙ":{"ha":861,"x_min":252,"x_max":609,"o":"m 518 -194 l 609 -194 l 609 86 q 494 200 609 200 q 414 183 448 200 q 349 135 379 167 l 337 135 l 331 191 l 252 191 l 252 -194 l 343 -194 l 343 81 q 451 128 392 128 q 500 113 482 128 q 518 63 518 99 l 518 -194 "},"ₚ":{"ha":861,"x_min":252,"x_max":634,"o":"m 634 -1 q 593 145 634 90 q 476 200 552 200 q 348 142 398 200 l 336 142 l 331 191 l 252 191 l 252 -332 l 343 -332 l 343 -146 l 349 -146 q 399 -187 368 -172 q 473 -203 430 -203 q 592 -148 550 -203 q 634 -1 634 -93 m 343 -99 l 343 96 q 435 125 385 125 q 515 94 488 125 q 541 -1 541 63 q 435 -128 541 -128 q 343 -99 385 -128 "},"ₛ":{"ha":861,"x_min":232,"x_max":614,"o":"m 433 200 q 296 170 342 200 q 250 84 250 140 q 286 9 250 35 q 398 -33 323 -17 q 474 -50 448 -42 q 511 -66 499 -57 q 523 -90 523 -76 q 500 -124 523 -110 q 430 -137 477 -137 q 355 -125 383 -137 q 315 -74 326 -112 l 232 -83 q 291 -175 244 -147 q 426 -203 338 -203 q 565 -170 517 -203 q 614 -80 614 -137 q 596 -23 614 -44 q 545 10 578 -2 q 456 34 512 23 q 384 51 408 44 q 348 68 360 58 q 337 92 337 77 q 360 124 337 113 q 426 135 384 135 q 498 121 474 135 q 525 78 522 107 l 607 85 q 563 170 607 141 q 433 200 518 200 "},"ₜ":{"ha":861,"x_min":224,"x_max":614,"o":"m 509 -203 q 614 -191 568 -203 l 614 -114 q 519 -126 565 -126 q 465 -118 484 -126 q 436 -92 445 -111 q 427 -36 427 -72 l 427 118 l 604 118 l 604 191 l 427 191 l 427 303 l 336 303 l 336 191 l 224 191 l 224 118 l 336 118 l 336 -37 q 353 -139 336 -103 q 408 -189 371 -175 q 509 -203 444 -203 "},"ᴬ":{"ha":861,"x_min":239,"x_max":623,"o":"m 527 764 l 623 764 l 479 1149 l 381 1149 l 239 764 l 331 764 l 359 842 l 498 842 l 527 764 m 477 899 l 379 899 l 425 1024 l 430 1024 l 477 899 "},"ᴮ":{"ha":861,"x_min":281,"x_max":613,"o":"m 281 1149 l 281 764 l 436 764 q 565 794 516 764 q 613 878 613 824 q 576 943 613 922 q 483 966 540 965 l 483 969 q 557 997 525 972 q 590 1065 590 1022 q 551 1133 590 1115 q 436 1149 512 1150 l 281 1149 m 412 826 l 373 826 l 373 932 l 412 932 q 492 921 465 932 q 519 881 519 910 q 492 839 519 851 q 412 826 465 826 m 405 991 l 373 991 l 373 1088 l 412 1088 q 477 1077 456 1088 q 499 1042 499 1066 q 475 1004 499 1017 q 405 991 451 991 "},"ᴰ":{"ha":861,"x_min":276,"x_max":607,"o":"m 276 1149 l 276 764 l 404 764 q 514 781 469 764 q 583 839 558 797 q 607 955 607 881 q 555 1106 607 1063 q 404 1149 503 1149 l 276 1149 m 513 955 q 502 883 513 909 q 468 845 491 856 q 404 833 444 833 l 368 833 l 368 1080 l 404 1080 q 488 1051 463 1080 q 513 955 513 1023 "},"ᴱ":{"ha":861,"x_min":276,"x_max":583,"o":"m 276 1149 l 276 764 l 583 764 l 583 838 l 368 838 l 368 921 l 542 921 l 542 990 l 368 990 l 368 1076 l 583 1076 l 583 1149 l 276 1149 "},"ᴳ":{"ha":861,"x_min":256,"x_max":601,"o":"m 601 974 l 443 974 l 443 905 l 516 905 l 516 894 q 440 831 516 831 q 372 860 393 831 q 350 959 350 890 q 372 1051 350 1023 q 439 1078 394 1078 q 489 1067 471 1078 q 513 1033 506 1056 l 599 1040 q 438 1156 581 1156 q 256 957 256 1156 q 438 758 256 758 q 556 793 511 758 q 601 908 601 828 l 601 974 "},"ᴴ":{"ha":861,"x_min":276,"x_max":585,"o":"m 276 764 l 368 764 l 368 919 l 494 919 l 494 764 l 585 764 l 585 1149 l 494 1149 l 494 992 l 368 992 l 368 1149 l 276 1149 l 276 764 "},"ᴵ":{"ha":861,"x_min":279,"x_max":583,"o":"m 279 838 l 279 764 l 583 764 l 583 838 l 477 838 l 477 1076 l 583 1076 l 583 1149 l 279 1149 l 279 1076 l 385 1076 l 385 838 l 279 838 "},"ᴶ":{"ha":861,"x_min":273,"x_max":580,"o":"m 357 920 l 273 920 l 274 869 q 312 786 276 815 q 417 758 348 758 q 540 790 501 758 q 580 894 580 822 l 580 1149 l 297 1149 l 297 1076 l 488 1076 l 488 888 q 472 846 488 859 q 422 833 455 833 q 375 845 392 833 q 358 879 359 858 l 357 920 "},"ᴷ":{"ha":861,"x_min":276,"x_max":615,"o":"m 276 764 l 368 764 l 368 918 l 406 918 l 515 764 l 615 764 l 482 956 l 482 962 l 610 1149 l 514 1149 l 415 992 l 368 992 l 368 1149 l 276 1149 l 276 764 "},"ᴸ":{"ha":861,"x_min":287,"x_max":594,"o":"m 287 1149 l 287 764 l 594 764 l 594 838 l 378 838 l 378 1149 l 287 1149 "},"ᴹ":{"ha":861,"x_min":266,"x_max":595,"o":"m 349 1149 l 266 1149 l 266 764 l 338 764 l 338 1017 l 341 1017 l 419 862 l 439 862 l 518 1017 l 523 1017 l 523 764 l 595 764 l 595 1149 l 517 1149 l 433 987 l 430 987 l 349 1149 "},"ᴺ":{"ha":861,"x_min":276,"x_max":585,"o":"m 360 1007 l 498 764 l 585 764 l 585 1149 l 511 1149 l 511 902 l 502 902 l 365 1149 l 276 1149 l 276 764 l 351 764 l 351 1007 l 360 1007 "},"ᴼ":{"ha":861,"x_min":255,"x_max":607,"o":"m 607 957 q 562 1108 607 1060 q 431 1156 517 1156 q 300 1108 345 1156 q 255 957 255 1060 q 301 808 255 858 q 431 758 347 758 q 561 808 516 758 q 607 957 607 858 m 513 957 q 494 861 513 889 q 431 834 474 834 q 368 861 388 834 q 349 957 349 889 q 368 1052 349 1025 q 431 1080 388 1080 q 494 1052 474 1080 q 513 957 513 1025 "},"ᴾ":{"ha":861,"x_min":281,"x_max":604,"o":"m 281 764 l 373 764 l 373 893 l 400 893 q 555 928 505 893 q 604 1026 604 963 q 561 1118 604 1086 q 446 1149 519 1149 l 281 1149 l 281 764 m 412 960 l 373 960 l 373 1085 l 419 1085 q 488 1070 465 1085 q 510 1026 510 1056 q 488 977 510 994 q 412 960 465 960 "},"ᴿ":{"ha":861,"x_min":281,"x_max":618,"o":"m 281 764 l 373 764 l 373 912 l 409 912 l 426 912 l 510 764 l 618 764 l 516 926 q 580 967 558 940 q 601 1033 601 994 q 558 1118 601 1087 q 443 1149 515 1149 l 281 1149 l 281 764 m 410 978 l 373 978 l 373 1085 l 415 1085 q 484 1073 463 1085 q 506 1033 506 1060 q 485 992 506 1006 q 410 978 463 978 "},"ᵀ":{"ha":861,"x_min":266,"x_max":596,"o":"m 385 764 l 477 764 l 477 1076 l 596 1076 l 596 1149 l 266 1149 l 266 1076 l 385 1076 l 385 764 "},"ᵁ":{"ha":861,"x_min":273,"x_max":590,"o":"m 431 833 q 380 850 394 833 q 365 901 365 867 l 365 1149 l 273 1149 l 273 901 q 313 794 273 831 q 431 758 353 758 q 549 794 509 758 q 590 901 590 831 l 590 1149 l 498 1149 l 498 901 q 483 850 498 867 q 431 833 467 833 "},"ᵂ":{"ha":861,"x_min":241,"x_max":621,"o":"m 326 1149 l 241 1149 l 309 764 l 377 764 l 428 963 l 432 963 l 479 764 l 553 764 l 621 1149 l 539 1149 l 502 936 l 497 936 l 460 1088 l 410 1088 l 367 936 l 361 936 l 326 1149 "},"ᵃ":{"ha":861,"x_min":233,"x_max":629,"o":"m 419 1158 q 289 1128 330 1158 q 247 1046 247 1098 l 247 1026 l 330 1026 l 330 1042 q 352 1083 330 1070 q 412 1097 374 1097 q 472 1082 451 1097 q 493 1033 493 1068 l 493 981 q 305 957 376 982 q 233 859 233 932 q 266 783 233 811 q 356 756 299 756 q 490 811 432 756 l 499 811 q 519 771 502 785 q 572 756 535 756 q 629 764 601 756 l 629 829 q 614 828 624 828 q 591 835 597 828 q 585 857 585 841 l 585 1037 q 542 1130 585 1101 q 419 1158 499 1158 m 328 871 q 363 918 328 903 q 461 933 397 933 q 493 931 476 933 l 493 851 q 399 821 446 821 q 347 834 365 821 q 328 871 328 847 "},"ᵇ":{"ha":861,"x_min":252,"x_max":634,"o":"m 634 958 q 593 1103 634 1049 q 476 1158 552 1158 q 348 1101 398 1158 l 343 1101 l 343 1326 l 252 1326 l 252 764 l 331 764 l 337 813 l 349 813 q 399 771 368 787 q 473 756 430 756 q 592 810 550 756 q 634 958 634 865 m 343 859 l 343 1054 q 435 1083 385 1083 q 515 1052 488 1083 q 541 958 541 1022 q 435 830 541 830 q 343 859 385 830 "},"ᶜ":{"ha":861,"x_min":227,"x_max":628,"o":"m 628 884 l 541 896 q 502 845 529 863 q 435 826 476 826 q 350 859 381 826 q 320 957 320 892 q 349 1054 320 1021 q 435 1088 378 1088 q 506 1068 478 1088 q 540 1011 533 1049 l 628 1019 q 570 1123 622 1087 q 438 1158 519 1158 q 285 1108 342 1158 q 227 957 227 1057 q 283 808 227 860 q 433 756 338 756 q 558 787 506 756 q 628 884 611 818 "},"ᵈ":{"ha":861,"x_min":227,"x_max":609,"o":"m 227 956 q 268 810 227 865 q 385 755 308 755 q 513 813 463 755 l 525 813 l 531 764 l 609 764 l 609 1326 l 518 1326 l 518 1101 l 513 1101 q 462 1143 492 1127 q 389 1158 431 1158 q 269 1103 311 1158 q 227 956 227 1048 m 320 956 q 426 1083 320 1083 q 518 1055 477 1083 l 518 859 q 426 830 476 830 q 347 861 373 830 q 320 956 320 892 "},"ᵉ":{"ha":861,"x_min":227,"x_max":626,"o":"m 227 958 q 253 847 227 892 q 326 778 279 801 q 435 756 373 756 q 554 783 504 756 q 624 867 603 811 l 535 881 q 435 826 510 826 q 352 857 382 826 q 320 947 323 888 l 626 947 l 626 983 q 577 1114 626 1070 q 439 1158 528 1158 q 284 1107 342 1158 q 227 958 227 1055 m 537 1003 l 324 1003 q 363 1067 334 1046 q 436 1088 392 1088 q 509 1066 482 1088 q 537 1003 537 1045 "},"ᶠ":{"ha":861,"x_min":224,"x_max":632,"o":"m 632 1268 l 632 1345 q 538 1356 586 1356 q 397 1312 444 1356 q 350 1167 350 1267 l 350 1149 l 224 1149 l 224 1076 l 350 1076 l 350 838 l 248 838 l 248 764 l 577 764 l 577 838 l 441 838 l 441 1076 l 618 1076 l 618 1149 l 441 1149 l 441 1184 q 452 1242 441 1222 q 484 1270 463 1263 q 542 1278 506 1278 q 632 1268 581 1278 "},"ᵍ":{"ha":861,"x_min":227,"x_max":609,"o":"m 227 977 q 246 883 227 924 q 300 820 265 843 q 385 798 336 798 q 513 855 463 798 l 518 855 l 518 776 q 492 703 518 725 q 419 681 466 681 q 358 694 382 681 q 322 738 333 708 l 239 721 q 294 645 251 672 q 419 617 336 617 q 562 658 515 617 q 609 786 609 698 l 609 1149 l 531 1149 l 525 1101 l 513 1101 q 461 1142 493 1126 q 388 1158 430 1158 q 302 1136 338 1158 q 247 1072 266 1113 q 227 977 227 1031 m 320 977 q 348 1056 320 1028 q 426 1083 376 1083 q 518 1055 477 1083 l 518 902 q 426 873 477 873 q 348 900 375 873 q 320 977 320 927 "},"ᵏ":{"ha":861,"x_min":252,"x_max":656,"o":"m 252 764 l 343 764 l 343 933 l 402 933 l 549 764 l 656 764 l 483 964 l 483 969 l 643 1149 l 542 1149 l 416 1005 l 343 1005 l 343 1326 l 252 1326 l 252 764 "},"ᵐ":{"ha":861,"x_min":238,"x_max":624,"o":"m 390 764 l 471 764 l 471 1063 q 515 1082 492 1082 q 544 1051 544 1082 l 544 764 l 624 764 l 624 1082 q 607 1139 624 1120 q 559 1158 590 1158 q 507 1141 528 1158 q 473 1098 486 1124 l 470 1098 q 406 1158 463 1158 q 353 1141 375 1158 q 319 1098 331 1124 l 311 1098 l 306 1149 l 238 1149 l 238 764 l 318 764 l 318 1063 q 362 1082 340 1082 q 390 1051 390 1082 l 390 764 "},"ᵒ":{"ha":861,"x_min":227,"x_max":634,"o":"m 634 956 q 607 1068 634 1022 q 534 1136 580 1113 q 431 1158 488 1158 q 327 1136 374 1158 q 254 1068 281 1113 q 227 956 227 1022 q 254 844 227 889 q 327 777 281 799 q 431 756 373 756 q 534 777 488 756 q 607 844 580 799 q 634 956 634 889 m 541 956 q 511 857 541 888 q 431 826 482 826 q 350 857 379 826 q 320 956 320 888 q 350 1056 320 1024 q 431 1088 379 1088 q 511 1056 482 1088 q 541 956 541 1024 "},"ᵖ":{"ha":861,"x_min":252,"x_max":634,"o":"m 634 958 q 593 1103 634 1049 q 476 1158 552 1158 q 348 1101 398 1158 l 336 1101 l 331 1149 l 252 1149 l 252 626 l 343 626 l 343 813 l 349 813 q 399 771 368 787 q 473 756 430 756 q 592 810 550 756 q 634 958 634 865 m 343 859 l 343 1054 q 435 1083 385 1083 q 515 1052 488 1083 q 541 958 541 1022 q 435 830 541 830 q 343 859 385 830 "},"ᵗ":{"ha":861,"x_min":224,"x_max":614,"o":"m 509 755 q 614 767 568 755 l 614 844 q 519 833 565 833 q 465 840 484 833 q 436 867 445 847 q 427 922 427 886 l 427 1076 l 604 1076 l 604 1149 l 427 1149 l 427 1262 l 336 1262 l 336 1149 l 224 1149 l 224 1076 l 336 1076 l 336 921 q 353 819 336 855 q 408 769 371 783 q 509 755 444 755 "},"ᵘ":{"ha":861,"x_min":252,"x_max":609,"o":"m 343 1149 l 252 1149 l 252 869 q 367 756 252 756 q 449 773 414 756 q 513 821 483 790 l 524 821 l 531 764 l 609 764 l 609 1149 l 518 1149 l 518 874 q 410 828 469 828 q 361 842 379 828 q 343 893 343 857 l 343 1149 "},"ᵛ":{"ha":861,"x_min":217,"x_max":643,"o":"m 315 1149 l 217 1149 l 383 764 l 478 764 l 643 1149 l 553 1149 l 438 873 l 432 873 l 315 1149 "},"ᶻ":{"ha":861,"x_min":249,"x_max":613,"o":"m 599 1149 l 249 1149 l 249 1076 l 474 1076 l 249 818 l 249 764 l 613 764 l 613 838 l 374 838 l 599 1096 l 599 1149 "},"⓿":{"ha":861,"x_min":13,"x_max":848,"o":"m 431 86 q 220 139 315 86 q 69 287 125 191 q 13 507 13 383 q 69 727 13 631 q 220 875 125 823 q 431 928 315 928 q 641 875 546 928 q 792 727 736 823 q 848 507 848 631 q 792 287 848 383 q 641 139 736 191 q 431 86 546 86 m 607 506 q 562 657 607 610 q 431 705 517 705 q 299 657 344 705 q 254 506 254 610 q 300 356 254 406 q 431 306 345 306 q 561 356 516 306 q 607 506 607 406 m 513 506 q 505 432 513 459 q 478 393 497 405 q 431 382 460 382 q 383 393 401 382 q 357 432 365 405 q 349 506 349 459 q 357 579 349 552 q 383 617 365 606 q 431 628 401 628 q 478 617 460 628 q 505 579 497 606 q 513 506 513 552 "},"❶":{"ha":861,"x_min":13,"x_max":848,"o":"m 431 86 q 220 139 315 86 q 69 287 125 191 q 13 507 13 383 q 69 727 13 631 q 220 875 125 823 q 431 928 315 928 q 641 875 546 928 q 792 727 736 823 q 848 507 848 631 q 792 287 848 383 q 641 139 736 191 q 431 86 546 86 m 297 642 l 297 551 q 347 562 321 551 q 396 592 373 573 l 396 385 l 285 385 l 285 313 l 596 313 l 596 385 l 487 385 l 487 698 l 396 698 q 374 669 391 681 q 335 649 357 656 q 297 642 314 642 "},"❷":{"ha":861,"x_min":13,"x_max":848,"o":"m 431 86 q 220 139 315 86 q 69 287 125 191 q 13 507 13 383 q 69 727 13 631 q 220 875 125 823 q 431 928 315 928 q 641 875 546 928 q 792 727 736 823 q 848 507 848 631 q 792 287 848 383 q 641 139 736 191 q 431 86 546 86 m 425 704 q 308 672 350 704 q 268 585 266 640 l 351 576 q 373 622 354 608 q 428 635 392 635 q 476 625 460 635 q 492 590 492 614 q 474 552 492 566 q 421 522 457 538 l 406 515 q 332 478 360 496 q 286 439 303 461 q 269 385 269 416 l 269 313 l 593 313 l 593 385 l 356 385 q 378 418 360 405 q 444 453 396 431 q 517 489 492 475 q 561 529 541 503 q 582 594 582 555 q 540 677 582 650 q 425 704 498 704 "},"❸":{"ha":861,"x_min":13,"x_max":848,"o":"m 431 86 q 220 139 315 86 q 69 287 125 191 q 13 507 13 383 q 69 727 13 631 q 220 875 125 823 q 431 928 315 928 q 641 875 546 928 q 792 727 736 823 q 848 507 848 631 q 792 287 848 383 q 641 139 736 191 q 431 86 546 86 m 433 704 q 314 674 354 704 q 273 588 273 644 l 353 579 q 377 623 358 610 q 431 635 396 635 q 503 590 503 635 q 478 547 503 562 q 405 531 453 531 l 385 531 l 385 472 l 404 472 q 483 460 458 472 q 508 424 508 448 q 490 389 508 401 q 431 377 472 377 q 371 389 391 377 q 344 431 351 401 l 261 422 q 305 333 262 360 q 431 306 348 306 q 555 334 510 306 q 600 420 600 362 q 578 478 600 458 q 518 507 556 499 q 570 541 551 519 q 590 599 590 563 q 549 677 590 651 q 433 704 508 704 "},"❹":{"ha":861,"x_min":13,"x_max":848,"o":"m 431 86 q 220 139 315 86 q 69 287 125 191 q 13 507 13 383 q 69 727 13 631 q 220 875 125 823 q 431 928 315 928 q 641 875 546 928 q 792 727 736 823 q 848 507 848 631 q 792 287 848 383 q 641 139 736 191 q 431 86 546 86 m 450 313 l 538 313 l 538 400 l 591 400 l 591 473 l 538 473 l 538 698 l 442 698 l 243 473 l 243 400 l 450 400 l 450 313 m 450 466 l 329 466 l 450 595 l 450 466 "},"❺":{"ha":861,"x_min":13,"x_max":848,"o":"m 431 86 q 220 139 315 86 q 69 287 125 191 q 13 507 13 383 q 69 727 13 631 q 220 875 125 823 q 431 928 315 928 q 641 875 546 928 q 792 727 736 823 q 848 507 848 631 q 792 287 848 383 q 641 139 736 191 q 431 86 546 86 m 577 698 l 301 698 l 270 489 l 350 479 q 386 499 365 492 q 430 506 407 506 q 491 490 471 506 q 510 443 510 473 q 490 393 510 409 q 428 378 469 378 q 373 390 394 378 q 347 430 352 401 l 261 422 q 429 307 262 307 q 555 340 510 307 q 600 442 600 374 q 561 531 600 501 q 453 562 522 562 q 358 542 401 562 l 372 625 l 577 625 l 577 698 "},"❻":{"ha":861,"x_min":13,"x_max":848,"o":"m 431 86 q 220 139 315 86 q 69 287 125 191 q 13 507 13 383 q 69 727 13 631 q 220 875 125 823 q 431 928 315 928 q 641 875 546 928 q 792 727 736 823 q 848 507 848 631 q 792 287 848 383 q 641 139 736 191 q 431 86 546 86 m 438 704 q 302 658 350 704 q 255 506 255 612 q 301 353 255 399 q 431 307 348 307 q 555 339 510 307 q 599 435 599 371 q 564 520 599 494 q 467 546 528 546 q 349 509 402 546 q 372 608 351 580 q 436 635 393 635 q 485 624 468 635 q 506 588 502 613 l 589 596 q 546 677 584 650 q 438 704 508 704 m 351 460 q 441 487 394 487 q 491 474 473 487 q 509 435 509 461 q 489 392 509 407 q 431 378 468 378 q 377 396 397 378 q 351 460 357 415 "},"❼":{"ha":861,"x_min":13,"x_max":848,"o":"m 431 86 q 220 139 315 86 q 69 287 125 191 q 13 507 13 383 q 69 727 13 631 q 220 875 125 823 q 431 928 315 928 q 641 875 546 928 q 792 727 736 823 q 848 507 848 631 q 792 287 848 383 q 641 139 736 191 q 431 86 546 86 m 590 696 l 271 696 l 271 622 l 489 622 l 347 310 l 438 310 l 590 646 l 590 696 "},"❽":{"ha":861,"x_min":13,"x_max":848,"o":"m 431 86 q 220 139 315 86 q 69 287 125 191 q 13 507 13 383 q 69 727 13 631 q 220 875 125 823 q 431 928 315 928 q 641 875 546 928 q 792 727 736 823 q 848 507 848 631 q 792 287 848 383 q 641 139 736 191 q 431 86 546 86 m 434 704 q 315 677 359 704 q 271 597 271 649 q 337 506 271 542 q 257 415 257 476 q 300 333 257 360 q 430 307 342 307 q 560 335 515 307 q 605 421 605 364 q 524 515 605 480 q 591 601 591 544 q 548 677 591 650 q 434 704 505 704 m 344 424 q 359 458 344 445 q 400 483 374 472 q 484 452 457 465 q 511 419 511 439 q 490 387 511 399 q 433 375 469 375 q 344 424 344 375 m 358 597 q 376 629 358 619 q 429 638 394 638 q 489 627 467 638 q 510 594 510 617 q 493 561 510 572 q 444 540 476 549 q 380 566 401 552 q 358 597 358 580 "},"❾":{"ha":861,"x_min":13,"x_max":848,"o":"m 431 86 q 220 139 315 86 q 69 287 125 191 q 13 507 13 383 q 69 727 13 631 q 220 875 125 823 q 431 928 315 928 q 641 875 546 928 q 792 727 736 823 q 848 507 848 631 q 792 287 848 383 q 641 139 736 191 q 431 86 546 86 m 423 307 q 558 353 510 307 q 606 505 606 399 q 430 704 606 704 q 306 672 351 704 q 262 576 262 640 q 298 491 262 517 q 394 465 333 465 q 511 501 458 465 q 489 403 510 431 q 424 376 467 376 q 375 387 392 376 q 355 424 358 399 l 272 415 q 315 334 276 361 q 423 307 353 307 m 351 576 q 372 618 351 603 q 429 633 393 633 q 484 615 464 633 q 509 550 504 596 q 419 524 464 524 q 369 537 388 524 q 351 576 351 550 "},"⓪":{"ha":861,"x_min":13,"x_max":848,"o":"m 431 86 q 641 139 546 86 q 792 287 736 191 q 848 507 848 383 q 792 727 848 631 q 641 875 736 823 q 431 928 546 928 q 220 875 315 928 q 69 727 125 823 q 13 507 13 631 q 69 287 13 383 q 220 139 125 191 q 431 86 315 86 m 431 158 q 255 201 334 158 q 131 325 176 245 q 85 507 85 404 q 131 689 85 610 q 255 813 176 769 q 431 857 334 857 q 606 813 527 857 q 731 689 685 769 q 777 507 777 610 q 731 325 777 404 q 606 201 685 245 q 431 158 527 158 m 607 506 q 562 657 607 610 q 431 705 517 705 q 299 657 344 705 q 254 506 254 610 q 300 356 254 406 q 431 306 345 306 q 561 356 516 306 q 607 506 607 406 m 513 506 q 505 432 513 459 q 478 393 497 405 q 431 382 460 382 q 383 393 401 382 q 357 432 365 405 q 349 506 349 459 q 357 579 349 552 q 383 617 365 606 q 431 628 401 628 q 478 617 460 628 q 505 579 497 606 q 513 506 513 552 "},"①":{"ha":861,"x_min":13,"x_max":848,"o":"m 431 86 q 641 139 546 86 q 792 287 736 191 q 848 507 848 383 q 792 727 848 631 q 641 875 736 823 q 431 928 546 928 q 220 875 315 928 q 69 727 125 823 q 13 507 13 631 q 69 287 13 383 q 220 139 125 191 q 431 86 315 86 m 431 158 q 255 201 334 158 q 131 325 176 245 q 85 507 85 404 q 131 689 85 610 q 255 813 176 769 q 431 857 334 857 q 606 813 527 857 q 731 689 685 769 q 777 507 777 610 q 731 325 777 404 q 606 201 685 245 q 431 158 527 158 m 297 642 l 297 551 q 347 562 321 551 q 396 592 373 573 l 396 385 l 285 385 l 285 313 l 596 313 l 596 385 l 487 385 l 487 698 l 396 698 q 374 669 391 681 q 335 649 357 656 q 297 642 314 642 "},"②":{"ha":861,"x_min":13,"x_max":848,"o":"m 431 86 q 641 139 546 86 q 792 287 736 191 q 848 507 848 383 q 792 727 848 631 q 641 875 736 823 q 431 928 546 928 q 220 875 315 928 q 69 727 125 823 q 13 507 13 631 q 69 287 13 383 q 220 139 125 191 q 431 86 315 86 m 431 158 q 255 201 334 158 q 131 325 176 245 q 85 507 85 404 q 131 689 85 610 q 255 813 176 769 q 431 857 334 857 q 606 813 527 857 q 731 689 685 769 q 777 507 777 610 q 731 325 777 404 q 606 201 685 245 q 431 158 527 158 m 425 704 q 308 672 350 704 q 268 585 266 640 l 351 576 q 373 622 354 608 q 428 635 392 635 q 476 625 460 635 q 492 590 492 614 q 474 552 492 566 q 421 522 457 538 l 406 515 q 332 478 360 496 q 286 439 303 461 q 269 385 269 416 l 269 313 l 593 313 l 593 385 l 356 385 q 378 418 360 405 q 444 453 396 431 q 517 489 492 475 q 561 529 541 503 q 582 594 582 555 q 540 677 582 650 q 425 704 498 704 "},"③":{"ha":861,"x_min":13,"x_max":848,"o":"m 431 86 q 641 139 546 86 q 792 287 736 191 q 848 507 848 383 q 792 727 848 631 q 641 875 736 823 q 431 928 546 928 q 220 875 315 928 q 69 727 125 823 q 13 507 13 631 q 69 287 13 383 q 220 139 125 191 q 431 86 315 86 m 431 158 q 255 201 334 158 q 131 325 176 245 q 85 507 85 404 q 131 689 85 610 q 255 813 176 769 q 431 857 334 857 q 606 813 527 857 q 731 689 685 769 q 777 507 777 610 q 731 325 777 404 q 606 201 685 245 q 431 158 527 158 m 433 704 q 314 674 354 704 q 273 588 273 644 l 353 579 q 377 623 358 610 q 431 635 396 635 q 503 590 503 635 q 478 547 503 562 q 405 531 453 531 l 385 531 l 385 472 l 404 472 q 483 460 458 472 q 508 424 508 448 q 490 389 508 401 q 431 377 472 377 q 371 389 391 377 q 344 431 351 401 l 261 422 q 305 333 262 360 q 431 306 348 306 q 555 334 510 306 q 600 420 600 362 q 578 478 600 458 q 518 507 556 499 q 570 541 551 519 q 590 599 590 563 q 549 677 590 651 q 433 704 508 704 "},"④":{"ha":861,"x_min":13,"x_max":848,"o":"m 431 86 q 641 139 546 86 q 792 287 736 191 q 848 507 848 383 q 792 727 848 631 q 641 875 736 823 q 431 928 546 928 q 220 875 315 928 q 69 727 125 823 q 13 507 13 631 q 69 287 13 383 q 220 139 125 191 q 431 86 315 86 m 431 158 q 255 201 334 158 q 131 325 176 245 q 85 507 85 404 q 131 689 85 610 q 255 813 176 769 q 431 857 334 857 q 606 813 527 857 q 731 689 685 769 q 777 507 777 610 q 731 325 777 404 q 606 201 685 245 q 431 158 527 158 m 450 313 l 538 313 l 538 400 l 591 400 l 591 473 l 538 473 l 538 698 l 442 698 l 243 473 l 243 400 l 450 400 l 450 313 m 450 466 l 329 466 l 450 595 l 450 466 "},"⑤":{"ha":861,"x_min":13,"x_max":848,"o":"m 431 86 q 641 139 546 86 q 792 287 736 191 q 848 507 848 383 q 792 727 848 631 q 641 875 736 823 q 431 928 546 928 q 220 875 315 928 q 69 727 125 823 q 13 507 13 631 q 69 287 13 383 q 220 139 125 191 q 431 86 315 86 m 431 158 q 255 201 334 158 q 131 325 176 245 q 85 507 85 404 q 131 689 85 610 q 255 813 176 769 q 431 857 334 857 q 606 813 527 857 q 731 689 685 769 q 777 507 777 610 q 731 325 777 404 q 606 201 685 245 q 431 158 527 158 m 577 698 l 301 698 l 270 489 l 350 479 q 386 499 365 492 q 430 506 407 506 q 491 490 471 506 q 510 443 510 473 q 490 393 510 409 q 428 378 469 378 q 373 390 394 378 q 347 430 352 401 l 261 422 q 429 307 262 307 q 555 340 510 307 q 600 442 600 374 q 561 531 600 501 q 453 562 522 562 q 358 542 401 562 l 372 625 l 577 625 l 577 698 "},"⑥":{"ha":861,"x_min":13,"x_max":848,"o":"m 431 86 q 641 139 546 86 q 792 287 736 191 q 848 507 848 383 q 792 727 848 631 q 641 875 736 823 q 431 928 546 928 q 220 875 315 928 q 69 727 125 823 q 13 507 13 631 q 69 287 13 383 q 220 139 125 191 q 431 86 315 86 m 431 158 q 255 201 334 158 q 131 325 176 245 q 85 507 85 404 q 131 689 85 610 q 255 813 176 769 q 431 857 334 857 q 606 813 527 857 q 731 689 685 769 q 777 507 777 610 q 731 325 777 404 q 606 201 685 245 q 431 158 527 158 m 438 704 q 302 658 350 704 q 255 506 255 612 q 301 353 255 399 q 431 307 348 307 q 555 339 510 307 q 599 435 599 371 q 564 520 599 494 q 467 546 528 546 q 349 509 402 546 q 372 608 351 580 q 436 635 393 635 q 485 624 468 635 q 506 588 502 613 l 589 596 q 546 677 584 650 q 438 704 508 704 m 351 460 q 441 487 394 487 q 491 474 473 487 q 509 435 509 461 q 489 392 509 407 q 431 378 468 378 q 377 396 397 378 q 351 460 357 415 "},"⑦":{"ha":861,"x_min":13,"x_max":848,"o":"m 431 86 q 641 139 546 86 q 792 287 736 191 q 848 507 848 383 q 792 727 848 631 q 641 875 736 823 q 431 928 546 928 q 220 875 315 928 q 69 727 125 823 q 13 507 13 631 q 69 287 13 383 q 220 139 125 191 q 431 86 315 86 m 431 158 q 255 201 334 158 q 131 325 176 245 q 85 507 85 404 q 131 689 85 610 q 255 813 176 769 q 431 857 334 857 q 606 813 527 857 q 731 689 685 769 q 777 507 777 610 q 731 325 777 404 q 606 201 685 245 q 431 158 527 158 m 590 696 l 271 696 l 271 622 l 489 622 l 347 310 l 438 310 l 590 646 l 590 696 "},"⑧":{"ha":861,"x_min":13,"x_max":848,"o":"m 431 86 q 641 139 546 86 q 792 287 736 191 q 848 507 848 383 q 792 727 848 631 q 641 875 736 823 q 431 928 546 928 q 220 875 315 928 q 69 727 125 823 q 13 507 13 631 q 69 287 13 383 q 220 139 125 191 q 431 86 315 86 m 431 158 q 255 201 334 158 q 131 325 176 245 q 85 507 85 404 q 131 689 85 610 q 255 813 176 769 q 431 857 334 857 q 606 813 527 857 q 731 689 685 769 q 777 507 777 610 q 731 325 777 404 q 606 201 685 245 q 431 158 527 158 m 434 704 q 315 677 359 704 q 271 597 271 649 q 337 506 271 542 q 257 415 257 476 q 300 333 257 360 q 430 307 342 307 q 560 335 515 307 q 605 421 605 364 q 524 515 605 480 q 591 601 591 544 q 548 677 591 650 q 434 704 505 704 m 344 424 q 359 458 344 445 q 400 483 374 472 q 484 452 457 465 q 511 419 511 439 q 490 387 511 399 q 433 375 469 375 q 344 424 344 375 m 358 597 q 376 629 358 619 q 429 638 394 638 q 489 627 467 638 q 510 594 510 617 q 493 561 510 572 q 444 540 476 549 q 380 566 401 552 q 358 597 358 580 "},"⑨":{"ha":861,"x_min":13,"x_max":848,"o":"m 431 86 q 641 139 546 86 q 792 287 736 191 q 848 507 848 383 q 792 727 848 631 q 641 875 736 823 q 431 928 546 928 q 220 875 315 928 q 69 727 125 823 q 13 507 13 631 q 69 287 13 383 q 220 139 125 191 q 431 86 315 86 m 431 158 q 255 201 334 158 q 131 325 176 245 q 85 507 85 404 q 131 689 85 610 q 255 813 176 769 q 431 857 334 857 q 606 813 527 857 q 731 689 685 769 q 777 507 777 610 q 731 325 777 404 q 606 201 685 245 q 431 158 527 158 m 423 307 q 558 353 510 307 q 606 505 606 399 q 430 704 606 704 q 306 672 351 704 q 262 576 262 640 q 298 491 262 517 q 394 465 333 465 q 511 501 458 465 q 489 403 510 431 q 424 376 467 376 q 375 387 392 376 q 355 424 358 399 l 272 415 q 315 334 276 361 q 423 307 353 307 m 351 576 q 372 618 351 603 q 429 633 393 633 q 484 615 464 633 q 509 550 504 596 q 419 524 464 524 q 369 537 388 524 q 351 576 351 550 "},"⑴":{"ha":861,"x_min":13,"x_max":848,"o":"m 97 507 q 138 698 97 615 q 257 863 180 781 l 179 863 q 60 711 108 799 q 13 507 13 623 q 60 303 13 391 q 179 152 108 216 l 257 152 q 138 317 180 234 q 97 507 97 399 m 765 507 q 724 317 765 399 q 605 152 682 234 l 682 152 q 801 303 754 215 q 848 507 848 391 q 801 711 848 623 q 682 863 753 799 l 605 863 q 724 698 682 781 q 765 507 765 615 m 297 642 l 297 551 q 347 562 321 551 q 396 592 373 573 l 396 385 l 285 385 l 285 313 l 596 313 l 596 385 l 487 385 l 487 698 l 396 698 q 374 669 391 681 q 335 649 357 656 q 297 642 314 642 "},"⑵":{"ha":861,"x_min":13,"x_max":848,"o":"m 97 507 q 138 698 97 615 q 257 863 180 781 l 179 863 q 60 711 108 799 q 13 507 13 623 q 60 303 13 391 q 179 152 108 216 l 257 152 q 138 317 180 234 q 97 507 97 399 m 765 507 q 724 317 765 399 q 605 152 682 234 l 682 152 q 801 303 754 215 q 848 507 848 391 q 801 711 848 623 q 682 863 753 799 l 605 863 q 724 698 682 781 q 765 507 765 615 m 425 704 q 308 672 350 704 q 268 585 266 640 l 351 576 q 373 622 354 608 q 428 635 392 635 q 476 625 460 635 q 492 590 492 614 q 474 552 492 566 q 421 522 457 538 l 406 515 q 332 478 360 496 q 286 439 303 461 q 269 385 269 416 l 269 313 l 593 313 l 593 385 l 356 385 q 378 418 360 405 q 444 453 396 431 q 517 489 492 475 q 561 529 541 503 q 582 594 582 555 q 540 677 582 650 q 425 704 498 704 "},"⑶":{"ha":861,"x_min":13,"x_max":848,"o":"m 97 507 q 138 698 97 615 q 257 863 180 781 l 179 863 q 60 711 108 799 q 13 507 13 623 q 60 303 13 391 q 179 152 108 216 l 257 152 q 138 317 180 234 q 97 507 97 399 m 765 507 q 724 317 765 399 q 605 152 682 234 l 682 152 q 801 303 754 215 q 848 507 848 391 q 801 711 848 623 q 682 863 753 799 l 605 863 q 724 698 682 781 q 765 507 765 615 m 433 704 q 314 674 354 704 q 273 588 273 644 l 353 579 q 377 623 358 610 q 431 635 396 635 q 503 590 503 635 q 478 547 503 562 q 405 531 453 531 l 385 531 l 385 472 l 404 472 q 483 460 458 472 q 508 424 508 448 q 490 389 508 401 q 431 377 472 377 q 371 389 391 377 q 344 431 351 401 l 261 422 q 305 333 262 360 q 431 306 348 306 q 555 334 510 306 q 600 420 600 362 q 578 478 600 458 q 518 507 556 499 q 570 541 551 519 q 590 599 590 563 q 549 677 590 651 q 433 704 508 704 "},"⑷":{"ha":861,"x_min":13,"x_max":848,"o":"m 97 507 q 138 698 97 615 q 257 863 180 781 l 179 863 q 60 711 108 799 q 13 507 13 623 q 60 303 13 391 q 179 152 108 216 l 257 152 q 138 317 180 234 q 97 507 97 399 m 765 507 q 724 317 765 399 q 605 152 682 234 l 682 152 q 801 303 754 215 q 848 507 848 391 q 801 711 848 623 q 682 863 753 799 l 605 863 q 724 698 682 781 q 765 507 765 615 m 450 313 l 538 313 l 538 400 l 591 400 l 591 473 l 538 473 l 538 698 l 442 698 l 243 473 l 243 400 l 450 400 l 450 313 m 450 466 l 329 466 l 450 595 l 450 466 "},"⑸":{"ha":861,"x_min":13,"x_max":848,"o":"m 97 507 q 138 698 97 615 q 257 863 180 781 l 179 863 q 60 711 108 799 q 13 507 13 623 q 60 303 13 391 q 179 152 108 216 l 257 152 q 138 317 180 234 q 97 507 97 399 m 765 507 q 724 317 765 399 q 605 152 682 234 l 682 152 q 801 303 754 215 q 848 507 848 391 q 801 711 848 623 q 682 863 753 799 l 605 863 q 724 698 682 781 q 765 507 765 615 m 577 698 l 301 698 l 270 489 l 350 479 q 386 499 365 492 q 430 506 407 506 q 491 490 471 506 q 510 443 510 473 q 490 393 510 409 q 428 378 469 378 q 373 390 394 378 q 347 430 352 401 l 261 422 q 429 307 262 307 q 555 340 510 307 q 600 442 600 374 q 561 531 600 501 q 453 562 522 562 q 358 542 401 562 l 372 625 l 577 625 l 577 698 "},"⑹":{"ha":861,"x_min":13,"x_max":848,"o":"m 97 507 q 138 698 97 615 q 257 863 180 781 l 179 863 q 60 711 108 799 q 13 507 13 623 q 60 303 13 391 q 179 152 108 216 l 257 152 q 138 317 180 234 q 97 507 97 399 m 765 507 q 724 317 765 399 q 605 152 682 234 l 682 152 q 801 303 754 215 q 848 507 848 391 q 801 711 848 623 q 682 863 753 799 l 605 863 q 724 698 682 781 q 765 507 765 615 m 438 704 q 302 658 350 704 q 255 506 255 612 q 301 353 255 399 q 431 307 348 307 q 555 339 510 307 q 599 435 599 371 q 564 520 599 494 q 467 546 528 546 q 349 509 402 546 q 372 608 351 580 q 436 635 393 635 q 485 624 468 635 q 506 588 502 613 l 589 596 q 546 677 584 650 q 438 704 508 704 m 351 460 q 441 487 394 487 q 491 474 473 487 q 509 435 509 461 q 489 392 509 407 q 431 378 468 378 q 377 396 397 378 q 351 460 357 415 "},"⑺":{"ha":861,"x_min":13,"x_max":848,"o":"m 97 507 q 138 698 97 615 q 257 863 180 781 l 179 863 q 60 711 108 799 q 13 507 13 623 q 60 303 13 391 q 179 152 108 216 l 257 152 q 138 317 180 234 q 97 507 97 399 m 765 507 q 724 317 765 399 q 605 152 682 234 l 682 152 q 801 303 754 215 q 848 507 848 391 q 801 711 848 623 q 682 863 753 799 l 605 863 q 724 698 682 781 q 765 507 765 615 m 590 696 l 271 696 l 271 622 l 489 622 l 347 310 l 438 310 l 590 646 l 590 696 "},"⑻":{"ha":861,"x_min":13,"x_max":848,"o":"m 97 507 q 138 698 97 615 q 257 863 180 781 l 179 863 q 60 711 108 799 q 13 507 13 623 q 60 303 13 391 q 179 152 108 216 l 257 152 q 138 317 180 234 q 97 507 97 399 m 765 507 q 724 317 765 399 q 605 152 682 234 l 682 152 q 801 303 754 215 q 848 507 848 391 q 801 711 848 623 q 682 863 753 799 l 605 863 q 724 698 682 781 q 765 507 765 615 m 434 704 q 315 677 359 704 q 271 597 271 649 q 337 506 271 542 q 257 415 257 476 q 300 333 257 360 q 430 307 342 307 q 560 335 515 307 q 605 421 605 364 q 524 515 605 480 q 591 601 591 544 q 548 677 591 650 q 434 704 505 704 m 344 424 q 359 458 344 445 q 400 483 374 472 q 484 452 457 465 q 511 419 511 439 q 490 387 511 399 q 433 375 469 375 q 344 424 344 375 m 358 597 q 376 629 358 619 q 429 638 394 638 q 489 627 467 638 q 510 594 510 617 q 493 561 510 572 q 444 540 476 549 q 380 566 401 552 q 358 597 358 580 "},"⑼":{"ha":861,"x_min":13,"x_max":848,"o":"m 97 507 q 138 698 97 615 q 257 863 180 781 l 179 863 q 60 711 108 799 q 13 507 13 623 q 60 303 13 391 q 179 152 108 216 l 257 152 q 138 317 180 234 q 97 507 97 399 m 765 507 q 724 317 765 399 q 605 152 682 234 l 682 152 q 801 303 754 215 q 848 507 848 391 q 801 711 848 623 q 682 863 753 799 l 605 863 q 724 698 682 781 q 765 507 765 615 m 423 307 q 558 353 510 307 q 606 505 606 399 q 430 704 606 704 q 306 672 351 704 q 262 576 262 640 q 298 491 262 517 q 394 465 333 465 q 511 501 458 465 q 489 403 510 431 q 424 376 467 376 q 375 387 392 376 q 355 424 358 399 l 272 415 q 315 334 276 361 q 423 307 353 307 m 351 576 q 372 618 351 603 q 429 633 393 633 q 484 615 464 633 q 509 550 504 596 q 419 524 464 524 q 369 537 388 524 q 351 576 351 550 "},"⁄":{"ha":861,"x_min":126,"x_max":736,"o":"m 736 723 l 669 793 l 126 285 l 193 215 l 736 723 "},"½":{"ha":861,"x_min":59,"x_max":820,"o":"m 70 958 l 70 867 q 121 878 95 867 q 169 908 147 889 l 169 701 l 59 701 l 59 628 l 369 628 l 369 701 l 260 701 l 260 1014 l 169 1014 q 148 985 165 997 q 109 965 131 972 q 70 958 88 958 m 761 723 l 694 793 l 151 285 l 218 215 l 761 723 m 652 392 q 535 360 577 392 q 495 272 493 328 l 578 264 q 600 309 581 296 q 656 323 619 323 q 703 312 688 323 q 719 277 719 301 q 701 240 719 253 q 648 210 684 226 l 633 203 q 559 166 588 183 q 513 126 531 149 q 496 73 496 103 l 496 0 l 820 0 l 820 73 l 582 73 q 605 106 586 92 q 672 141 624 119 q 744 176 719 163 q 789 216 768 190 q 809 282 809 242 q 767 365 809 338 q 652 392 725 392 "},"⅓":{"ha":861,"x_min":59,"x_max":823,"o":"m 70 958 l 70 867 q 121 878 95 867 q 169 908 147 889 l 169 701 l 59 701 l 59 628 l 369 628 l 369 701 l 260 701 l 260 1014 l 169 1014 q 148 985 165 997 q 109 965 131 972 q 70 958 88 958 m 761 723 l 694 793 l 151 285 l 218 215 l 761 723 m 656 392 q 536 361 577 392 q 496 275 496 331 l 576 267 q 600 310 581 298 q 653 323 619 323 q 726 277 726 323 q 701 234 726 249 q 628 219 676 219 l 608 219 l 608 160 l 627 160 q 706 148 681 160 q 731 111 731 135 q 713 76 731 88 q 654 65 694 65 q 594 77 614 65 q 567 118 574 89 l 484 109 q 528 20 485 47 q 653 -6 571 -6 q 778 22 733 -6 q 823 108 823 49 q 801 166 823 146 q 740 194 778 186 q 793 228 773 206 q 813 286 813 251 q 772 365 813 338 q 656 392 731 392 "},"⅔":{"ha":861,"x_min":63,"x_max":823,"o":"m 222 1020 q 105 988 147 1020 q 65 901 63 956 l 148 892 q 169 938 151 924 q 225 951 188 951 q 273 941 257 951 q 288 906 288 930 q 271 868 288 882 q 217 838 253 854 l 202 831 q 128 794 157 812 q 83 755 100 777 q 65 701 65 732 l 65 628 l 390 628 l 390 701 l 151 701 q 174 734 156 721 q 241 769 193 747 q 313 805 289 791 q 358 845 338 819 q 378 910 378 871 q 336 993 378 966 q 222 1020 294 1020 m 761 723 l 694 793 l 151 285 l 218 215 l 761 723 m 656 392 q 536 361 577 392 q 496 275 496 331 l 576 267 q 600 310 581 298 q 653 323 619 323 q 726 277 726 323 q 701 234 726 249 q 628 219 676 219 l 608 219 l 608 160 l 627 160 q 706 148 681 160 q 731 111 731 135 q 713 76 731 88 q 654 65 694 65 q 594 77 614 65 q 567 118 574 89 l 484 109 q 528 20 485 47 q 653 -6 571 -6 q 778 22 733 -6 q 823 108 823 49 q 801 166 823 146 q 740 194 778 186 q 793 228 773 206 q 813 286 813 251 q 772 365 813 338 q 656 392 731 392 "},"¼":{"ha":861,"x_min":59,"x_max":787,"o":"m 70 958 l 70 867 q 121 878 95 867 q 169 908 147 889 l 169 701 l 59 701 l 59 628 l 369 628 l 369 701 l 260 701 l 260 1014 l 169 1014 q 148 985 165 997 q 109 965 131 972 q 70 958 88 958 m 768 723 l 701 793 l 158 285 l 225 215 l 768 723 m 646 0 l 734 0 l 734 88 l 787 88 l 787 160 l 734 160 l 734 385 l 639 385 l 439 160 l 439 88 l 646 88 l 646 0 m 646 153 l 526 153 l 646 283 l 646 153 "},"¾":{"ha":861,"x_min":51,"x_max":787,"o":"m 223 1020 q 104 990 144 1020 q 63 903 63 960 l 144 895 q 167 939 149 926 q 221 951 186 951 q 293 906 293 951 q 268 863 293 878 q 195 847 244 847 l 176 847 l 176 788 l 194 788 q 273 776 248 788 q 298 740 298 764 q 280 705 298 717 q 222 693 262 693 q 161 705 181 693 q 135 747 141 717 l 51 738 q 95 649 52 676 q 221 622 138 622 q 345 650 301 622 q 390 736 390 678 q 368 794 390 774 q 307 823 346 815 q 360 857 340 834 q 381 915 381 879 q 340 993 381 967 q 223 1020 299 1020 m 768 723 l 701 793 l 158 285 l 225 215 l 768 723 m 646 0 l 734 0 l 734 88 l 787 88 l 787 160 l 734 160 l 734 385 l 639 385 l 439 160 l 439 88 l 646 88 l 646 0 m 646 153 l 526 153 l 646 283 l 646 153 "},"⅛":{"ha":861,"x_min":59,"x_max":823,"o":"m 70 958 l 70 867 q 121 878 95 867 q 169 908 147 889 l 169 701 l 59 701 l 59 628 l 369 628 l 369 701 l 260 701 l 260 1014 l 169 1014 q 148 985 165 997 q 109 965 131 972 q 70 958 88 958 m 761 723 l 694 793 l 151 285 l 218 215 l 761 723 m 652 392 q 533 364 577 392 q 489 285 489 337 q 507 233 489 256 q 556 193 524 210 q 496 157 517 178 q 475 102 475 135 q 518 21 475 47 q 648 -6 560 -6 q 778 23 733 -6 q 823 108 823 51 q 742 202 823 167 q 810 288 810 231 q 766 364 810 337 q 652 392 723 392 m 563 112 q 577 145 563 133 q 617 169 592 158 q 701 140 673 154 q 729 106 729 126 q 709 74 729 86 q 651 63 688 63 q 563 112 563 63 m 576 285 q 594 316 576 307 q 647 326 613 326 q 707 315 685 326 q 728 282 728 304 q 711 249 728 260 q 665 227 694 237 q 576 285 576 251 "},"⅜":{"ha":861,"x_min":51,"x_max":823,"o":"m 223 1020 q 104 990 144 1020 q 63 903 63 960 l 144 895 q 167 939 149 926 q 221 951 186 951 q 293 906 293 951 q 268 863 293 878 q 195 847 244 847 l 176 847 l 176 788 l 194 788 q 273 776 248 788 q 298 740 298 764 q 280 705 298 717 q 222 693 262 693 q 161 705 181 693 q 135 747 141 717 l 51 738 q 95 649 52 676 q 221 622 138 622 q 345 650 301 622 q 390 736 390 678 q 368 794 390 774 q 307 823 346 815 q 360 857 340 834 q 381 915 381 879 q 340 993 381 967 q 223 1020 299 1020 m 761 723 l 694 793 l 151 285 l 218 215 l 761 723 m 652 392 q 533 364 577 392 q 489 285 489 337 q 507 233 489 256 q 556 193 524 210 q 496 157 517 178 q 475 102 475 135 q 518 21 475 47 q 648 -6 560 -6 q 778 23 733 -6 q 823 108 823 51 q 742 202 823 167 q 810 288 810 231 q 766 364 810 337 q 652 392 723 392 m 563 112 q 577 145 563 133 q 617 169 592 158 q 701 140 673 154 q 729 106 729 126 q 709 74 729 86 q 651 63 688 63 q 563 112 563 63 m 576 285 q 594 316 576 307 q 647 326 613 326 q 707 315 685 326 q 728 282 728 304 q 711 249 728 260 q 665 227 694 237 q 576 285 576 251 "},"⅝":{"ha":861,"x_min":58,"x_max":823,"o":"m 374 1014 l 98 1014 l 67 805 l 147 795 q 183 815 163 808 q 227 822 204 822 q 288 806 268 822 q 308 759 308 789 q 287 709 308 725 q 226 694 266 694 q 170 706 191 694 q 144 746 149 717 l 58 738 q 226 623 59 623 q 352 656 308 623 q 397 758 397 690 q 358 847 397 817 q 250 878 319 878 q 154 858 198 878 l 169 941 l 374 941 l 374 1014 m 761 723 l 694 793 l 151 285 l 218 215 l 761 723 m 652 392 q 533 364 577 392 q 489 285 489 337 q 507 233 489 256 q 556 193 524 210 q 496 157 517 178 q 475 102 475 135 q 518 21 475 47 q 648 -6 560 -6 q 778 23 733 -6 q 823 108 823 51 q 742 202 823 167 q 810 288 810 231 q 766 364 810 337 q 652 392 723 392 m 563 112 q 577 145 563 133 q 617 169 592 158 q 701 140 673 154 q 729 106 729 126 q 709 74 729 86 q 651 63 688 63 q 563 112 563 63 m 576 285 q 594 316 576 307 q 647 326 613 326 q 707 315 685 326 q 728 282 728 304 q 711 249 728 260 q 665 227 694 237 q 576 285 576 251 "},"⅞":{"ha":861,"x_min":115,"x_max":823,"o":"m 434 1012 l 115 1012 l 115 938 l 333 938 l 190 626 l 282 626 l 434 962 l 434 1012 m 740 723 l 674 793 l 131 285 l 197 215 l 740 723 m 652 392 q 533 364 577 392 q 489 285 489 337 q 507 233 489 256 q 556 193 524 210 q 496 157 517 178 q 475 102 475 135 q 518 21 475 47 q 648 -6 560 -6 q 778 23 733 -6 q 823 108 823 51 q 742 202 823 167 q 810 288 810 231 q 766 364 810 337 q 652 392 723 392 m 563 112 q 577 145 563 133 q 617 169 592 158 q 701 140 673 154 q 729 106 729 126 q 709 74 729 86 q 651 63 688 63 q 563 112 563 63 m 576 285 q 594 316 576 307 q 647 326 613 326 q 707 315 685 326 q 728 282 728 304 q 711 249 728 260 q 665 227 694 237 q 576 285 576 251 "},"₀":{"ha":861,"x_min":254,"x_max":607,"o":"m 607 -1 q 562 150 607 103 q 431 198 517 198 q 299 150 344 198 q 254 -1 254 103 q 300 -151 254 -101 q 431 -201 345 -201 q 561 -151 516 -201 q 607 -1 607 -101 m 513 -1 q 505 -75 513 -48 q 478 -114 497 -102 q 431 -125 460 -125 q 383 -114 401 -125 q 357 -75 365 -102 q 349 -1 349 -48 q 357 72 349 45 q 383 110 365 99 q 431 122 401 122 q 478 110 460 122 q 505 72 497 99 q 513 -1 513 45 m 431 -45 q 402 -34 412 -45 q 392 -4 392 -23 q 402 26 392 15 q 431 37 412 37 q 459 26 449 37 q 469 -4 469 16 q 459 -34 469 -24 q 431 -45 449 -45 "},"₁":{"ha":861,"x_min":285,"x_max":595,"o":"m 296 135 l 296 44 q 347 55 321 44 q 395 85 372 66 l 395 -122 l 285 -122 l 285 -194 l 595 -194 l 595 -122 l 486 -122 l 486 191 l 395 191 q 373 162 390 174 q 335 142 356 149 q 296 135 313 135 "},"₂":{"ha":861,"x_min":256,"x_max":583,"o":"m 415 197 q 298 165 340 197 q 258 78 256 133 l 341 69 q 363 115 344 101 q 418 128 381 128 q 466 118 450 128 q 481 83 481 107 q 464 45 481 59 q 410 15 447 31 l 395 8 q 322 -28 350 -11 q 276 -68 293 -46 q 258 -122 258 -91 l 258 -194 l 583 -194 l 583 -122 l 344 -122 q 367 -89 349 -102 q 434 -53 386 -76 q 506 -18 482 -32 q 551 22 531 -4 q 572 88 572 48 q 530 170 572 143 q 415 197 488 197 "},"₃":{"ha":861,"x_min":249,"x_max":588,"o":"m 421 197 q 302 167 342 197 q 261 81 261 137 l 342 72 q 365 116 347 103 q 419 128 384 128 q 491 83 491 128 q 466 40 491 55 q 393 24 442 24 l 374 24 l 374 -35 l 392 -35 q 471 -47 446 -35 q 496 -83 496 -59 q 478 -118 496 -106 q 419 -130 460 -130 q 359 -118 379 -130 q 333 -76 339 -106 l 249 -85 q 293 -174 250 -147 q 419 -201 336 -201 q 543 -173 499 -201 q 588 -87 588 -145 q 566 -28 588 -49 q 505 0 544 -8 q 558 34 538 11 q 578 92 578 56 q 538 170 578 144 q 421 197 497 197 "},"₄":{"ha":861,"x_min":251,"x_max":599,"o":"m 458 -194 l 546 -194 l 546 -107 l 599 -107 l 599 -34 l 546 -34 l 546 191 l 451 191 l 251 -34 l 251 -107 l 458 -107 l 458 -194 m 458 -41 l 338 -41 l 458 88 l 458 -41 "},"₅":{"ha":861,"x_min":256,"x_max":595,"o":"m 572 191 l 296 191 l 265 -18 l 345 -28 q 381 -8 360 -15 q 425 -1 402 -1 q 486 -17 466 -1 q 506 -64 506 -34 q 485 -114 506 -98 q 424 -129 464 -129 q 368 -117 389 -129 q 342 -77 347 -106 l 256 -85 q 424 -200 257 -200 q 550 -167 506 -200 q 595 -65 595 -133 q 556 24 595 -6 q 448 55 517 55 q 352 35 396 55 l 367 118 l 572 118 l 572 191 "},"₆":{"ha":861,"x_min":259,"x_max":603,"o":"m 442 197 q 307 151 354 197 q 259 -1 259 105 q 306 -154 259 -108 q 435 -200 352 -200 q 559 -168 514 -200 q 603 -72 603 -136 q 568 13 603 -13 q 471 39 532 39 q 353 2 404 39 q 376 101 355 73 q 440 128 397 128 q 489 117 472 128 q 510 81 506 106 l 593 89 q 550 170 588 143 q 442 197 512 197 m 356 -45 q 445 -20 398 -20 q 495 -33 477 -20 q 513 -72 513 -46 q 493 -115 513 -100 q 435 -129 472 -129 q 380 -110 400 -129 q 356 -45 360 -92 "},"₇":{"ha":861,"x_min":274,"x_max":593,"o":"m 593 189 l 274 189 l 274 115 l 492 115 l 349 -197 l 441 -197 l 593 139 l 593 189 "},"₈":{"ha":861,"x_min":256,"x_max":604,"o":"m 433 197 q 314 170 358 197 q 270 90 270 142 q 288 39 270 62 q 337 -1 306 15 q 277 -38 299 -16 q 256 -92 256 -60 q 299 -174 256 -147 q 429 -200 342 -200 q 559 -172 515 -200 q 604 -86 604 -143 q 523 8 604 -28 q 591 94 591 37 q 548 170 591 142 q 433 197 504 197 m 344 -83 q 358 -49 344 -62 q 399 -25 373 -36 q 482 -54 454 -40 q 510 -88 510 -68 q 490 -120 510 -108 q 433 -132 469 -132 q 344 -83 344 -132 m 358 90 q 376 122 358 113 q 428 131 394 131 q 488 120 467 131 q 510 88 510 110 q 493 54 510 66 q 446 33 476 42 q 358 90 358 56 "},"₉":{"ha":861,"x_min":259,"x_max":603,"o":"m 420 -200 q 556 -154 508 -200 q 603 -2 603 -108 q 427 197 603 197 q 303 165 348 197 q 259 69 259 133 q 295 -16 259 10 q 392 -42 331 -42 q 508 -6 457 -42 q 485 -104 506 -76 q 422 -131 465 -131 q 373 -120 390 -131 q 352 -83 356 -108 l 269 -92 q 312 -173 274 -146 q 420 -200 351 -200 m 349 69 q 369 111 349 97 q 426 126 390 126 q 481 107 461 126 q 507 42 501 88 q 417 17 462 17 q 367 30 385 17 q 349 69 349 43 "},"⁰":{"ha":861,"x_min":254,"x_max":607,"o":"m 607 957 q 562 1109 607 1061 q 431 1156 517 1156 q 299 1109 344 1156 q 254 957 254 1061 q 300 808 254 858 q 431 758 345 758 q 561 808 516 758 q 607 957 607 858 m 513 957 q 505 883 513 910 q 478 845 497 856 q 431 833 460 833 q 383 845 401 833 q 357 883 365 856 q 349 957 349 910 q 357 1030 349 1003 q 383 1068 365 1057 q 431 1080 401 1080 q 478 1068 460 1080 q 505 1030 497 1057 q 513 957 513 1003 m 431 913 q 402 924 412 913 q 392 954 392 935 q 402 984 392 974 q 431 995 412 995 q 459 985 449 995 q 469 954 469 974 q 459 924 469 935 q 431 913 449 913 "},"¹":{"ha":861,"x_min":285,"x_max":595,"o":"m 296 1094 l 296 1003 q 347 1014 321 1003 q 395 1043 372 1024 l 395 837 l 285 837 l 285 764 l 595 764 l 595 837 l 486 837 l 486 1149 l 395 1149 q 373 1120 390 1133 q 335 1101 356 1108 q 296 1094 313 1094 "},"²":{"ha":861,"x_min":256,"x_max":583,"o":"m 415 1156 q 298 1124 340 1156 q 258 1036 256 1092 l 341 1028 q 363 1073 344 1060 q 418 1087 381 1087 q 466 1076 450 1087 q 481 1041 481 1065 q 464 1003 481 1017 q 410 974 447 990 l 395 967 q 322 930 350 947 q 276 890 293 913 q 258 837 258 867 l 258 764 l 583 764 l 583 837 l 344 837 q 367 869 349 856 q 434 905 386 883 q 506 940 482 926 q 551 980 531 954 q 572 1046 572 1006 q 530 1128 572 1101 q 415 1156 488 1156 "},"³":{"ha":861,"x_min":249,"x_max":588,"o":"m 421 1156 q 302 1125 342 1156 q 261 1039 261 1095 l 342 1031 q 365 1074 347 1062 q 419 1087 384 1087 q 491 1041 491 1087 q 466 998 491 1013 q 393 983 442 983 l 374 983 l 374 924 l 392 924 q 471 911 446 924 q 496 875 496 899 q 478 840 496 852 q 419 828 460 828 q 359 841 379 828 q 333 882 339 853 l 249 873 q 293 784 250 811 q 419 758 336 758 q 543 785 499 758 q 588 872 588 813 q 566 930 588 910 q 505 958 544 950 q 558 992 538 969 q 578 1050 578 1015 q 538 1129 578 1102 q 421 1156 497 1156 "},"⁴":{"ha":861,"x_min":251,"x_max":599,"o":"m 458 764 l 546 764 l 546 851 l 599 851 l 599 924 l 546 924 l 546 1149 l 451 1149 l 251 924 l 251 851 l 458 851 l 458 764 m 458 917 l 338 917 l 458 1047 l 458 917 "},"⁵":{"ha":861,"x_min":256,"x_max":595,"o":"m 572 1149 l 296 1149 l 265 940 l 345 931 q 381 951 360 944 q 425 958 402 958 q 486 941 466 958 q 506 894 506 924 q 485 845 506 860 q 424 829 464 829 q 368 841 389 829 q 342 881 347 853 l 256 873 q 424 758 257 758 q 550 792 506 758 q 595 893 595 825 q 556 983 595 952 q 448 1013 517 1013 q 352 994 396 1013 l 367 1076 l 572 1076 l 572 1149 "},"⁶":{"ha":861,"x_min":259,"x_max":603,"o":"m 442 1156 q 307 1109 354 1156 q 259 958 259 1063 q 306 805 259 851 q 435 758 352 758 q 559 790 514 758 q 603 886 603 822 q 568 971 603 945 q 471 997 532 997 q 353 960 404 997 q 376 1059 355 1031 q 440 1087 397 1087 q 489 1076 472 1087 q 510 1039 506 1065 l 593 1047 q 550 1128 588 1101 q 442 1156 512 1156 m 356 913 q 445 938 398 938 q 495 925 477 938 q 513 887 513 913 q 493 844 513 858 q 435 829 472 829 q 380 848 400 829 q 356 913 360 867 "},"⁷":{"ha":861,"x_min":274,"x_max":593,"o":"m 593 1147 l 274 1147 l 274 1074 l 492 1074 l 349 762 l 441 762 l 593 1097 l 593 1147 "},"⁸":{"ha":861,"x_min":256,"x_max":604,"o":"m 433 1156 q 314 1128 358 1156 q 270 1049 270 1101 q 288 997 270 1020 q 337 957 306 974 q 277 920 299 942 q 256 866 256 899 q 299 785 256 811 q 429 758 342 758 q 559 787 515 758 q 604 872 604 815 q 523 966 604 931 q 591 1052 591 995 q 548 1128 591 1101 q 433 1156 504 1156 m 344 876 q 358 909 344 897 q 399 933 373 922 q 482 904 454 918 q 510 870 510 890 q 490 838 510 850 q 433 826 469 826 q 344 876 344 826 m 358 1049 q 376 1080 358 1071 q 428 1090 394 1090 q 488 1079 467 1090 q 510 1046 510 1068 q 493 1013 510 1024 q 446 991 476 1001 q 358 1049 358 1015 "},"⁹":{"ha":861,"x_min":259,"x_max":603,"o":"m 420 758 q 556 805 508 758 q 603 956 603 851 q 427 1156 603 1156 q 303 1124 348 1156 q 259 1028 259 1092 q 295 942 259 969 q 392 916 331 916 q 508 952 457 916 q 485 855 506 882 q 422 827 465 827 q 373 839 390 827 q 352 875 356 850 l 269 867 q 312 785 274 813 q 420 758 351 758 m 349 1027 q 369 1070 349 1055 q 426 1085 390 1085 q 481 1066 461 1085 q 507 1001 501 1047 q 417 975 462 975 q 367 988 385 975 q 349 1027 349 1001 "}," ":{"ha":861,"x_min":0,"x_max":0,"o":""}," ":{"ha":861,"x_min":0,"x_max":0,"o":""},"⁤":{"ha":861,"x_min":0,"x_max":0,"o":""},"⁣":{"ha":861,"x_min":0,"x_max":0,"o":""},"⁢":{"ha":861,"x_min":0,"x_max":0,"o":""},"⟦":{"ha":861,"x_min":227,"x_max":703,"o":"m 227 1113 l 227 -278 l 703 -278 l 703 -208 l 506 -208 l 506 1043 l 703 1043 l 703 1113 l 227 1113 m 419 -208 l 315 -208 l 315 1043 l 419 1043 l 419 -208 "},"⟧":{"ha":861,"x_min":158,"x_max":634,"o":"m 634 1113 l 634 -278 l 158 -278 l 158 -208 l 442 -208 l 442 -233 l 355 -233 l 355 1067 l 442 1067 l 442 1043 l 158 1043 l 158 1113 l 634 1113 m 442 1043 l 442 -208 l 547 -208 l 547 1043 l 442 1043 "},"⟨":{"ha":861,"x_min":181,"x_max":681,"o":"m 343 418 l 681 1062 l 547 1126 l 181 418 l 547 -290 l 681 -226 l 343 418 "},"⟩":{"ha":861,"x_min":181,"x_max":680,"o":"m 314 1126 l 181 1062 l 519 418 l 181 -226 l 314 -290 l 680 418 l 314 1126 "},"⟪":{"ha":861,"x_min":66,"x_max":795,"o":"m 210 417 l 538 1113 l 394 1113 l 66 417 l 394 -278 l 538 -278 l 210 417 m 468 417 l 795 1113 l 652 1113 l 324 417 l 652 -278 l 795 -278 l 468 417 "},"⟫":{"ha":861,"x_min":66,"x_max":795,"o":"m 467 1113 l 324 1113 l 651 417 l 324 -278 l 467 -278 l 795 417 l 467 1113 m 210 1113 l 66 1113 l 393 417 l 66 -278 l 210 -278 l 538 417 l 210 1113 "},".":{"ha":858,"x_min":292,"x_max":566,"o":"m 428 -25 q 498 -9 467 -25 q 548 38 530 8 q 566 109 566 69 q 548 180 566 150 q 498 226 530 210 q 428 242 467 242 q 359 226 390 242 q 310 180 328 210 q 292 109 292 150 q 310 38 292 69 q 359 -9 328 8 q 428 -25 390 -25 "},",":{"ha":861,"x_min":274,"x_max":583,"o":"m 431 -26 q 463 -23 449 -26 q 398 -139 445 -83 q 274 -255 350 -196 l 349 -316 q 517 -146 451 -243 q 583 62 583 -49 q 563 162 583 122 q 508 223 542 203 q 430 242 474 242 q 359 226 390 242 q 309 180 327 210 q 291 109 291 150 q 309 38 291 69 q 359 -9 327 8 q 431 -26 391 -26 "},":":{"ha":861,"x_min":296,"x_max":571,"o":"m 433 -21 q 503 -5 472 -21 q 552 42 534 12 q 571 113 571 73 q 552 184 571 154 q 503 231 534 215 q 433 247 472 247 q 364 231 395 247 q 314 184 333 215 q 296 113 296 154 q 314 42 296 73 q 364 -5 333 12 q 433 -21 395 -21 m 433 518 q 503 534 472 518 q 552 581 534 551 q 571 652 571 612 q 552 723 571 693 q 503 769 534 753 q 433 785 472 785 q 364 769 395 785 q 314 723 333 753 q 296 652 296 693 q 314 581 296 612 q 364 534 333 551 q 433 518 395 518 "},";":{"ha":861,"x_min":274,"x_max":583,"o":"m 431 -26 q 463 -23 449 -26 q 398 -139 445 -83 q 274 -255 350 -196 l 349 -316 q 517 -146 451 -243 q 583 62 583 -49 q 563 162 583 122 q 508 223 542 203 q 430 242 474 242 q 359 226 390 242 q 309 180 327 210 q 291 109 291 150 q 309 38 291 69 q 359 -9 327 8 q 431 -26 391 -26 m 432 518 q 501 534 470 518 q 551 581 533 551 q 569 652 569 612 q 551 723 569 693 q 501 769 533 753 q 432 785 470 785 q 362 769 394 785 q 312 723 331 753 q 294 652 294 693 q 312 581 294 612 q 362 534 331 551 q 432 518 394 518 "},"…":{"ha":861,"x_min":51,"x_max":814,"o":"m 150 -17 q 221 10 192 -17 q 249 82 249 37 q 221 154 249 128 q 150 181 192 181 q 79 154 108 181 q 51 82 51 128 q 79 10 51 37 q 150 -17 108 -17 m 433 -17 q 503 10 474 -17 q 531 82 531 37 q 503 154 531 127 q 433 181 475 181 q 361 154 390 181 q 333 82 333 128 q 361 10 333 37 q 433 -17 390 -17 m 715 -17 q 785 10 757 -17 q 814 82 814 37 q 785 154 814 128 q 715 181 757 181 q 644 154 672 181 q 615 82 615 128 q 644 10 615 37 q 715 -17 672 -17 "},"!":{"ha":861,"x_min":315,"x_max":551,"o":"m 365 415 l 497 415 l 513 1014 l 349 1014 l 365 415 m 433 -18 q 492 -4 465 -18 q 535 35 519 10 q 551 95 551 61 q 517 177 551 147 q 433 207 483 207 q 348 177 382 207 q 315 95 315 147 q 330 35 315 61 q 373 -4 346 10 q 433 -18 400 -18 "},"¡":{"ha":861,"x_min":310,"x_max":547,"o":"m 496 309 l 364 309 l 349 -291 l 512 -291 l 496 309 m 428 741 q 368 727 395 741 q 325 688 341 713 q 310 628 310 662 q 343 546 310 576 q 428 516 377 516 q 513 546 478 516 q 547 628 547 576 q 531 688 547 662 q 488 727 515 713 q 428 741 460 741 "},"?":{"ha":861,"x_min":86,"x_max":732,"o":"m 433 -18 q 492 -4 465 -18 q 535 35 519 10 q 551 95 551 61 q 517 177 551 147 q 433 207 483 207 q 348 177 382 207 q 315 95 315 147 q 330 35 315 61 q 373 -4 346 10 q 433 -18 400 -18 m 86 746 l 234 732 q 286 862 242 822 q 413 902 331 902 q 574 756 574 902 q 549 658 574 697 q 477 596 523 619 q 361 556 431 573 l 365 397 l 497 397 l 499 504 q 667 588 603 527 q 732 765 732 648 q 647 963 732 895 q 415 1031 562 1031 q 175 959 263 1031 q 86 746 87 888 "},"¿":{"ha":861,"x_min":129,"x_max":775,"o":"m 428 741 q 368 727 395 741 q 325 688 341 713 q 310 628 310 662 q 343 546 310 576 q 428 516 377 516 q 513 546 478 516 q 547 628 547 576 q 531 688 547 662 q 488 727 515 713 q 428 741 460 741 m 129 -41 q 214 -239 129 -172 q 447 -307 299 -307 q 686 -236 598 -307 q 775 -23 774 -165 l 627 -8 q 575 -139 619 -98 q 448 -179 531 -179 q 287 -33 287 -179 q 313 65 287 26 q 384 127 338 104 q 500 168 431 151 l 496 326 l 364 326 l 362 219 q 194 136 258 197 q 129 -41 129 76 "},"·":{"ha":861,"x_min":293,"x_max":568,"o":"m 431 324 q 501 341 469 324 q 550 388 532 357 q 568 458 568 418 q 550 530 568 499 q 501 576 532 560 q 431 592 469 592 q 361 576 393 592 q 311 530 330 560 q 293 458 293 499 q 311 388 293 418 q 361 341 330 357 q 431 324 393 324 "},"•":{"ha":861,"x_min":242,"x_max":625,"o":"m 434 272 q 531 294 488 272 q 600 359 574 317 q 625 458 625 401 q 600 557 625 515 q 531 622 574 599 q 434 644 488 644 q 337 622 381 644 q 267 557 293 599 q 242 458 242 515 q 267 359 242 401 q 337 294 293 317 q 434 272 381 272 "},"*":{"ha":861,"x_min":62,"x_max":800,"o":"m 110 644 l 62 497 l 333 428 l 153 212 l 279 120 l 431 360 l 582 120 l 708 212 l 528 428 l 800 497 l 751 644 l 491 542 l 509 822 l 353 822 l 371 542 l 110 644 "},"﹡":{"ha":861,"x_min":228,"x_max":633,"o":"m 266 574 l 228 457 l 360 429 l 268 336 l 367 262 l 431 376 l 495 262 l 594 336 l 501 428 l 633 457 l 596 574 l 475 511 l 493 649 l 369 649 l 386 511 l 266 574 "},"⁅":{"ha":861,"x_min":238,"x_max":703,"o":"m 238 1113 l 238 -278 l 703 -278 l 703 -160 l 389 -160 l 389 358 l 703 358 l 703 476 l 389 476 l 389 994 l 703 994 l 703 1113 l 238 1113 "},"⁆":{"ha":861,"x_min":158,"x_max":624,"o":"m 473 476 l 550 476 l 550 358 l 473 358 l 473 476 m 624 1113 l 624 -278 l 158 -278 l 158 -160 l 473 -160 l 473 358 l 158 358 l 158 476 l 473 476 l 473 994 l 158 994 l 158 1113 l 624 1113 "},"⁀":{"ha":861,"x_min":-43,"x_max":904,"o":"m 13 1117 l -43 1178 q 431 1378 143 1378 q 904 1178 719 1378 l 849 1117 q 431 1253 683 1253 q 13 1117 179 1253 "},"‖":{"ha":861,"x_min":206,"x_max":656,"o":"m 206 -278 l 344 -278 l 344 1113 l 206 1113 l 206 -278 m 517 -278 l 656 -278 l 656 1113 l 517 1113 l 517 -278 "},"⁉":{"ha":861,"x_min":26,"x_max":832,"o":"m 76 415 l 209 415 l 224 1014 l 61 1014 l 76 415 m 144 -18 q 204 -4 177 -18 q 247 35 231 10 q 263 95 263 61 q 229 177 263 147 q 144 207 195 207 q 60 177 94 207 q 26 95 26 147 q 42 35 26 61 q 85 -4 58 10 q 144 -18 112 -18 m 588 -18 q 648 -4 621 -18 q 691 35 675 10 q 706 95 706 61 q 673 177 706 147 q 588 207 639 207 q 503 177 538 207 q 469 95 469 147 q 485 35 469 61 q 528 -4 501 10 q 588 -18 556 -18 m 309 746 l 453 732 q 470 833 457 795 q 508 886 484 870 q 570 902 533 902 q 651 869 624 902 q 678 763 678 835 q 636 630 678 679 q 517 556 595 581 l 520 397 l 653 397 l 655 509 q 782 599 733 536 q 832 771 832 662 q 764 965 832 899 q 570 1031 696 1031 q 380 959 450 1031 q 309 746 310 888 "},"‼":{"ha":861,"x_min":97,"x_max":764,"o":"m 148 415 l 281 415 l 295 1014 l 133 1014 l 148 415 m 216 -18 q 276 -4 249 -18 q 318 35 303 10 q 334 95 334 61 q 300 177 334 147 q 216 207 267 207 q 131 177 165 207 q 97 95 97 147 q 113 35 97 61 q 156 -4 129 10 q 216 -18 183 -18 m 578 415 l 710 415 l 725 1014 l 563 1014 l 578 415 m 646 -18 q 706 -4 678 -18 q 748 35 733 10 q 764 95 764 61 q 730 177 764 147 q 646 207 697 207 q 561 177 595 207 q 527 95 527 147 q 543 35 527 61 q 586 -4 559 10 q 646 -18 613 -18 "},"‽":{"ha":861,"x_min":83,"x_max":746,"o":"m 365 397 l 497 397 l 500 503 q 677 585 609 525 q 746 763 746 644 q 659 963 746 895 q 423 1031 573 1031 q 177 959 267 1031 q 83 746 88 887 l 229 732 q 286 862 241 822 q 422 902 331 902 q 547 866 506 902 q 588 751 588 830 q 566 657 588 694 q 503 599 544 621 l 508 776 l 354 776 l 365 397 m 433 -18 q 492 -4 465 -18 q 535 35 519 10 q 551 95 551 61 q 517 177 551 147 q 433 207 483 207 q 348 177 382 207 q 315 95 315 147 q 330 35 315 61 q 373 -4 346 10 q 433 -18 400 -18 "}}}
